<svg xmlns="http://www.w3.org/2000/svg" fill="none" viewBox="0 0 51 49"><g fill="#000" clip-path="url(#a)"><path d="M25.499 15.115c2.393 0 4.341-1.871 4.341-4.171 0-2.3-1.948-4.172-4.341-4.172-2.394 0-4.342 1.871-4.342 4.171 0 2.3 1.948 4.172 4.342 4.172Zm0-6.782c1.497 0 2.716 1.171 2.716 2.61 0 1.44-1.219 2.61-2.716 2.61-1.498 0-2.717-1.17-2.717-2.61 0-1.439 1.219-2.61 2.717-2.61Z"/><path d="M50.189 19.63c.447 0 .812-.348.812-.777v-4.517a.777.777 0 0 0-.397-.67L27.59.533c-1.344-.716-2.834-.71-4.202.01L.397 13.666a.775.775 0 0 0-.397.67v4.518c0 .43.364.777.812.777h3.89v21.033H4.34C1.946 40.663 0 42.533 0 44.83v3.389c0 .43.364.78.812.78H50.19c.447 0 .812-.35.812-.78V44.83c0-2.298-1.946-4.168-4.34-4.168h-.363V19.63h3.89Zm-3.527 22.592c.724 0 1.405.27 1.919.764a2.54 2.54 0 0 1 .795 1.844v2.608H1.623V44.83c0-1.438 1.218-2.608 2.715-2.608h42.324Zm-40.336-1.56V19.63h5.43v21.03h-5.43Zm7.054 0V19.63h7.781v21.03h-7.78Zm9.405 0V19.63h5.43v21.03h-5.43Zm7.054 0V19.63h7.78v21.03h-7.78Zm9.404 0V19.63h5.43v21.03h-5.43ZM1.623 18.07v-3.295L24.2 1.89a2.705 2.705 0 0 1 2.583-.008l.012.006 22.584 12.888v3.295H1.623Z"/></g><defs><clipPath id="a"><path fill="#fff" d="M0 0h51v49H0z"/></clipPath></defs></svg>