<svg xmlns="http://www.w3.org/2000/svg" fill="none" viewBox="0 0 55 54"><g fill="#000" clip-path="url(#a)"><path d="m53.32 49.134-.042-.015v-8.132l.043-.015a2.504 2.504 0 0 0 1.536-3.192 2.516 2.516 0 0 0-2.37-1.674h-4.565l.032-.087c.1-.269.152-.55.155-.837a2.51 2.51 0 0 0-1.68-2.354l-.042-.015v-1.985h2.728l-1.5-8.963.025-.023a2.916 2.916 0 0 0-1.207-4.908l-.046-.014v-3.74l-2.356-.894 7.15-2.849L27.501 0 3.821 9.437l9.962 3.97v10.684h-3.518c-3.757 0-6.815 3.043-6.819 6.787a6.801 6.801 0 0 0 2.849 5.53l.106.076-.123.038c-4.722 1.485-7.35 6.52-5.86 11.225A8.943 8.943 0 0 0 8.981 54h43.505A2.51 2.51 0 0 0 55 51.502a2.505 2.505 0 0 0-1.68-2.368h.002ZM43.948 29.24l1.108-6.626.066.013c.31.063.627.063.938 0l.066-.013 1.108 6.626h-3.286Zm-4.322-4.655-.018.018c-.859.886-4.267 3.777-12.106 3.777-7.838 0-11.247-2.89-12.106-3.777l-.018-.018V14.042l.088.035 12.036 4.796 12.124-4.832v10.544Zm1.137 1.112.02-.02h2.145l-.309 1.846h-4.28l.21-.12a10.421 10.421 0 0 0 2.214-1.706Zm-20.157 3.416c2.249.593 4.57.88 6.895.856a26.062 26.062 0 0 0 6.896-.856l.017-.002h7.938l-.287 1.716h2.728v1.845H10.273c-.985 0-1.787-.799-1.787-1.78 0-.982.802-1.781 1.787-1.781h10.324l.009.002h-.001Zm26.34-9.378c0 .745-.608 1.351-1.356 1.351a1.355 1.355 0 0 1-1.357-1.351 1.357 1.357 0 0 1 2.713 0Zm-2.153-5.46v2.645l-.046.014a2.907 2.907 0 0 0-1.748 1.4 2.892 2.892 0 0 0-.24 2.223c.142.488.412.932.78 1.285l.026.023-.373 2.225h-1.974V13.407l.628-.25.024.01 2.923 1.11ZM8.112 9.437 27.5 1.71l.024.01 19.364 7.717-5.057 2.016-.023-.009-13.964-5.3-.568 1.483 12.372 4.696L27.5 17.164l-.024-.01L8.111 9.438ZM5.04 30.892c.003-2.871 2.35-5.21 5.232-5.213h3.948l.02.02a10.421 10.421 0 0 0 2.214 1.705l.209.12h-6.39a3.38 3.38 0 0 0-3.381 3.368 3.38 3.38 0 0 0 3.38 3.369H45.59c.51 0 .926.414.926.923a.926.926 0 0 1-.926.922H10.273c-2.882-.003-5.23-2.342-5.232-5.214Zm47.44 21.52h-43.5c-4.073 0-7.386-3.3-7.386-7.359 0-4.058 3.313-7.36 7.386-7.36h43.5c.51 0 .926.415.926.924a.926.926 0 0 1-.926.922H8.829c-3.052 0-5.535 2.474-5.535 5.514s2.483 5.514 5.535 5.514H52.48c.51 0 .926.414.926.923a.926.926 0 0 1-.926.922Zm-.797-7.852v4.42H8.83c-2.173 0-3.941-1.762-3.941-3.927s1.768-3.926 3.94-3.926h42.856v1.845H36.18v1.588h15.505Z"/><path d="M32.605 45.547H8.615v1.587h23.99v-1.587Z"/></g><defs><clipPath id="a"><path fill="#fff" d="M0 0h55v54H0z"/></clipPath></defs></svg>