<svg xmlns="http://www.w3.org/2000/svg" fill="none" viewBox="0 0 56 57"><g fill="#000" clip-path="url(#a)"><path d="M39.706 28.09a.82.82 0 0 1-.812-.828V10.726a.82.82 0 0 1 .812-.827.82.82 0 0 1 .813.827v16.536a.82.82 0 0 1-.813.827ZM34.355 52.5H3.023C1.355 52.5 0 51.12 0 49.423v-18.11a.82.82 0 0 1 .813-.828.82.82 0 0 1 .812.828v18.11c0 .784.627 1.423 1.398 1.423h31.332a.82.82 0 0 1 .813.827.82.82 0 0 1-.813.827ZM.813 22.014A.82.82 0 0 1 0 21.187V3.077C0 1.38 1.356 0 3.023 0H29.98a.82.82 0 0 1 .813.827.82.82 0 0 1-.813.827H3.023c-.77 0-1.398.639-1.398 1.423v18.11a.82.82 0 0 1-.812.827Z"/><path d="M39.706 11.553h-7.667c-1.583 0-2.871-1.311-2.871-2.922V.827c0-.334.198-.636.502-.764a.8.8 0 0 1 .885.18l9.725 9.899a.836.836 0 0 1 .176.9.813.813 0 0 1-.751.511h.001Zm-8.913-8.729v5.808c0 .7.56 1.268 1.246 1.268h5.706l-6.952-7.076ZM29.98 32.475H7.557a.82.82 0 0 1-.813-.827.82.82 0 0 1 .813-.827H29.98a.82.82 0 0 1 .812.827.82.82 0 0 1-.812.827ZM29.98 38.776H7.557a.82.82 0 0 1-.813-.828.82.82 0 0 1 .813-.827H29.98a.82.82 0 0 1 .812.828.82.82 0 0 1-.812.827ZM20.817 45.078H7.556a.82.82 0 0 1-.813-.828.82.82 0 0 1 .813-.827h13.262a.82.82 0 0 1 .813.828.82.82 0 0 1-.813.827Z"/><path d="M42.81 57a.79.79 0 0 1-.153-.014C35.103 55.513 29.62 48.76 29.62 40.93v-10.52c0-.362.23-.682.57-.79l12.356-3.927a.82.82 0 0 1 .53 0L55.43 29.62c.339.108.57.428.57.79v10.52c0 7.83-5.483 14.581-13.038 16.055a.797.797 0 0 1-.153.014V57ZM31.245 31.017v9.913c0 6.985 4.855 13.014 11.565 14.4 6.712-1.386 11.565-7.416 11.565-14.4v-9.913L42.81 27.342l-11.566 3.675h.001Z"/><path d="M42.81 52.383a.797.797 0 0 1-.216-.03c-5.036-1.408-8.554-6.105-8.554-11.424v-7.213c0-.361.23-.681.57-.79l7.957-2.528a.79.79 0 0 1 .485 0l7.957 2.529c.34.108.57.428.57.79v7.212c0 5.319-3.518 10.016-8.554 11.424a.797.797 0 0 1-.216.03h.001Zm-7.145-18.058v6.604c0 4.5 2.927 8.483 7.145 9.766 4.218-1.284 7.145-5.267 7.145-9.766v-6.604l-7.145-2.27-7.145 2.27Z"/><path d="M41.82 44.227a.799.799 0 0 1-.575-.242l-2.546-2.592a.838.838 0 0 1 0-1.17.803.803 0 0 1 1.15 0l1.971 2.007 3.952-4.022a.803.803 0 0 1 1.15 0 .838.838 0 0 1 0 1.17l-4.526 4.607a.804.804 0 0 1-.575.242h-.002ZM23.47 27.076h-5.304a.82.82 0 0 1-.813-.827v-3.672h-3.609a.82.82 0 0 1-.812-.827v-5.4a.82.82 0 0 1 .812-.827h3.609V11.85a.82.82 0 0 1 .813-.827h5.305a.82.82 0 0 1 .812.827v3.673h3.61a.82.82 0 0 1 .812.827v5.4a.82.82 0 0 1-.813.827h-3.609v3.672a.82.82 0 0 1-.812.827Zm-4.492-1.654h3.68V21.75a.82.82 0 0 1 .813-.827h3.608v-3.746h-3.608a.82.82 0 0 1-.813-.827v-3.673h-3.68v3.673a.82.82 0 0 1-.813.827h-3.608v3.746h3.609a.82.82 0 0 1 .812.827v3.672ZM.813 27.076a.782.782 0 0 1-.452-.14.788.788 0 0 1-.3-.37A.842.842 0 0 1 0 26.25a.844.844 0 0 1 .36-.688.873.873 0 0 1 .293-.124.811.811 0 0 1 .734.226.84.84 0 0 1 0 1.17.863.863 0 0 1-.416.226.764.764 0 0 1-.158.016Z"/></g><defs><clipPath id="a"><path fill="#fff" d="M0 0h56v57H0z"/></clipPath></defs></svg>