<svg xmlns="http://www.w3.org/2000/svg" fill="none" viewBox="0 0 55 38"><path fill="#000" d="M51.774 28.884v-2.697A24.41 24.41 0 0 0 33.541 2.704a2.697 2.697 0 0 0-2.697-2.59h-6.698a2.697 2.697 0 0 0-2.697 2.58A24.094 24.094 0 0 0 10.49 8.88a.899.899 0 0 0 0 1.268.899.899 0 0 0 .64.27.9.9 0 0 0 .628-.261 22.86 22.86 0 0 1 3.911-3.066l2.697 21.793H5.024v-2.697a22.332 22.332 0 0 1 4.44-13.414.9.9 0 0 0-1.438-1.079 24.14 24.14 0 0 0-4.8 14.493v2.697A2.697 2.697 0 0 0 .527 31.58v3.596a2.697 2.697 0 0 0 2.697 2.697h48.549a2.697 2.697 0 0 0 2.697-2.697v-3.596a2.697 2.697 0 0 0-2.697-2.697ZM23.472 2.218a.9.9 0 0 1 .674-.306h6.707a.9.9 0 0 1 .674.306.9.9 0 0 1 .225.701l-1.555 12.587a.899.899 0 0 1-.9.791h-3.595a.899.899 0 0 1-.9-.791L23.23 2.919a.9.9 0 0 1 .243-.7Zm-6.114 3.929a22.626 22.626 0 0 1 4.28-1.645l1.366 11.229a2.697 2.697 0 0 0 2.698 2.364h3.596a2.697 2.697 0 0 0 2.697-2.364l1.402-11.22a21.92 21.92 0 0 1 4.28 1.636L34.8 28.884H20.2L17.358 6.147Zm35.315 29.03a.9.9 0 0 1-.899.9H3.225a.899.899 0 0 1-.899-.9v-3.596a.9.9 0 0 1 .9-.9h38.659a.899.899 0 1 0 0-1.797h-5.278L39.304 7.1a22.646 22.646 0 0 1 10.672 19.087v2.697H45.48a.9.9 0 0 0 0 1.798h6.293a.9.9 0 0 1 .9.899v3.596Z"/></svg>