<svg xmlns="http://www.w3.org/2000/svg" fill="none" viewBox="0 0 55 50"><path fill="#000" d="M54.414 31.601c-1.046-1.525-3.152-1.93-4.695-.9L42.7 35.36l-.02-14.507 2.438 2.266a2.789 2.789 0 0 0 1.905.747h.004c.766 0 1.506-.32 2.03-.875.51-.54.776-1.242.752-1.98a2.743 2.743 0 0 0-.88-1.929l-4.623-4.297a.789.789 0 0 0-1.11.037.774.774 0 0 0 .037 1.1l4.623 4.297a1.197 1.197 0 0 1 .057 1.706 1.206 1.206 0 0 1-.886.382h-.002a1.22 1.22 0 0 1-.831-.326L27.835 4.92a.79.79 0 0 0-1.075.001L8.452 22.036a1.22 1.22 0 0 1-1.719-.052 1.196 1.196 0 0 1 .05-1.705L26.462 1.884a1.226 1.226 0 0 1 1.666-.002L39.64 12.583a.789.789 0 0 0 1.11-.036.774.774 0 0 0-.037-1.101L29.2.745a2.807 2.807 0 0 0-3.816.005l-6.3 5.888-.002-1.05a1.246 1.246 0 0 0-1.25-1.238h-.001l-4.506.007A1.245 1.245 0 0 0 12.078 5.6l.013 7.578-6.385 5.968a2.735 2.735 0 0 0-.874 1.93 2.737 2.737 0 0 0 .757 1.979c.51.537 1.201.846 1.946.867l.084.001c.714 0 1.388-.265 1.91-.752l2.432-2.275.01 6.853a16.631 16.631 0 0 0-2.384-.174H8.245v-.467c0-1.568-1.286-2.844-2.866-2.844H2.866C1.286 24.263 0 25.54 0 27.107v12.207c0 .43.351.78.785.78a.782.782 0 0 0 .786-.78V27.107c0-.709.58-1.285 1.295-1.285h2.513c.714 0 1.295.576 1.295 1.285v18.447c0 .709-.581 1.285-1.295 1.285H2.866a1.292 1.292 0 0 1-1.295-1.285V44.19c0-.431-.352-.78-.786-.78a.782.782 0 0 0-.785.78v1.363c0 1.568 1.286 2.844 2.866 2.844h2.513c1.58 0 2.866-1.276 2.866-2.844v-.106l11.496 4.32c.021.01.043.015.064.022.5.14 1 .21 1.494.21.266 0 .531-.02.793-.062l16.896-2.416.011-.002a8.306 8.306 0 0 0 3.92-1.743l.028-.025 10.915-9.741a3.355 3.355 0 0 0 .552-4.41ZM17.514 5.91l.003 2.195-3.857 3.606-.01-5.795 3.864-.006Zm9.786.647 13.808 12.835.024 17.011-2.223 1.476-2.353-.13-.063-.621a4.947 4.947 0 0 0-3.994-4.362l-.014-10.12a1.417 1.417 0 0 0-1.42-1.409h-.003l-7.482.01a1.414 1.414 0 0 0-1.419 1.413l.013 8.824a14.964 14.964 0 0 1-4.22-1.66 16.361 16.361 0 0 0-.5-.278c-.066-.035-.132-.068-.199-.102-.102-.054-.204-.107-.307-.157l-.248-.118a28.48 28.48 0 0 0-.264-.124l-.272-.118c-.083-.035-.167-.072-.25-.106l-.28-.112c-.085-.032-.167-.065-.252-.096a14.937 14.937 0 0 0-.545-.19 18.226 18.226 0 0 0-.81-.247c-.11-.03-.22-.058-.33-.086-.051-.013-.103-.028-.154-.04l-.012-8.622L27.3 6.557ZM30.93 32.57l-6.566-.75-.619-.07-.012-8.945 7.183-.01.014 9.775Zm21.887 2.279L41.912 44.58c-.91.731-2 1.215-3.154 1.398L21.87 48.395s-.008 0-.01.002l-.012.002a3.773 3.773 0 0 1-1.584-.1l-12.02-4.517v-14.65h1.343c1.143 0 2.28.131 3.385.386l.124.03c.135.031.272.065.406.101l.035.01a13.272 13.272 0 0 1 .476.138 15 15 0 0 1 .427.137l.044.015c.294.101.586.211.874.33l.047.02c.144.06.287.121.429.186l.012.005c.137.063.273.127.408.194l.048.024c.133.065.264.133.393.202l.075.04c.13.071.262.144.392.218a16.572 16.572 0 0 0 6.044 2.087l.02.002 8.797 1.006.144.023a3.394 3.394 0 0 1 2.765 2.994l.036.349-16.485-1.434a.784.784 0 0 0-.85.708.78.78 0 0 0 .713.844l17.428 1.515h.023l3.287.184.044.001c.016 0 .032-.002.047-.003l.052-.004c.024-.003.046-.009.069-.013l.05-.01.074-.027c.012-.006.026-.01.04-.015a.856.856 0 0 0 .106-.059l2.79-1.852 8.239-5.472a1.834 1.834 0 0 1 2.522.484c.513.75.386 1.767-.3 2.373Z"/></svg>