<svg xmlns="http://www.w3.org/2000/svg" fill="none" viewBox="0 0 53 54"><g fill="#000" clip-path="url(#a)"><path d="M27.303 11.345h-1.606v1.637h1.606v-1.636ZM23.877 11.345H22.27v1.637h1.607v-1.636ZM34.156 11.345H32.55v1.637h1.606v-1.636ZM30.73 11.345h-1.607v1.637h1.606v-1.636ZM20.45 11.345h-1.605v1.637h1.606v-1.636ZM37.582 11.345h-1.606v1.637h1.606v-1.636ZM17.024 11.345h-1.606v1.637h1.606v-1.636ZM17.024 14.836h-1.606v1.637h1.606v-1.637ZM30.73 14.836h-1.607v1.637h1.606v-1.637ZM37.582 14.836h-1.606v1.637h1.606v-1.637ZM34.156 14.836H32.55v1.637h1.606v-1.637ZM27.303 14.836h-1.606v1.637h1.606v-1.637ZM20.45 14.836h-1.605v1.637h1.606v-1.637ZM23.877 14.836H22.27v1.637h1.607v-1.637ZM37.582 18.327h-1.606v1.637h1.606v-1.637ZM20.45 18.327h-1.605v1.637h1.606v-1.637ZM23.877 18.327H22.27v1.637h1.607v-1.637ZM27.303 18.327h-1.606v1.637h1.606v-1.637ZM17.024 18.327h-1.606v1.637h1.606v-1.637ZM34.156 18.327H32.55v1.637h1.606v-1.637ZM30.73 18.327h-1.607v1.637h1.606v-1.637ZM20.45 21.818h-1.605v1.636h1.606v-1.636ZM23.877 21.818H22.27v1.636h1.607v-1.636ZM34.156 21.818H32.55v1.636h1.606v-1.636ZM17.024 21.818h-1.606v1.636h1.606v-1.636ZM30.73 21.818h-1.607v1.636h1.606v-1.636ZM37.582 21.818h-1.606v1.636h1.606v-1.636ZM27.303 21.818h-1.606v1.636h1.606v-1.636Z"/><path d="M47.895 43.361a2.523 2.523 0 0 0 1.37-1.169 2.586 2.586 0 0 0 .205-1.953 2.54 2.54 0 0 0-1.21-1.526l-7.253-4.03V3.491h-1.713v-.927C39.294 1.15 38.165 0 36.778 0H16.22c-1.387 0-2.516 1.15-2.516 2.564v.927h-1.713v31.191l-.028.015-7.225 4.015c-.59.327-1.02.87-1.21 1.528-.19.658-.117 1.35.206 1.95.288.539.774.954 1.37 1.172l.035.012v8.99H3.427v1.637h46.148v-1.636H47.86v-8.99l.035-.014ZM15.31 2.565a.92.92 0 0 1 .91-.928H36.78a.92.92 0 0 1 .91.928v.927H15.31v-.927Zm-1.713 2.563h25.804v2.728H13.598V5.127Zm0 4.364h25.804V33.79l-1.768-.982-1.765.98V30.29l.035-.013a2.564 2.564 0 0 0 1.678-2.407c0-1.413-1.129-2.563-2.516-2.563H17.934c-1.387 0-2.516 1.15-2.516 2.564 0 1.074.675 2.042 1.678 2.406l.035.013v3.499l-1.765-.981-1.768.982V9.49ZM17.934 28.8a.92.92 0 0 1-.91-.927.92.92 0 0 1 .91-.928h17.132a.92.92 0 0 1 .91.928.92.92 0 0 1-.91.927H17.934Zm16.329 1.636v4.246l-.028.015-7.227 4.016c-.16.088-.314.203-.473.348l-.035.033-.035-.033a2.545 2.545 0 0 0-.473-.348l-7.255-4.03v-4.247h15.526ZM17.989 52.364h-5.247V46.2a.92.92 0 0 1 .91-.927h3.427a.92.92 0 0 1 .91.927v6.164Zm5.996 0h-4.39V46.2c0-1.414-1.128-2.564-2.516-2.564h-3.426c-1.388 0-2.517 1.15-2.517 2.564v6.164h-4.39v-8.99l.036-.013.089-.031c.097-.034.19-.067.276-.115l8.218-4.569.025.015 8.19 4.552c.09.05.183.082.284.118l.086.03.035.014v8.99-.001Zm1.058-10.518a.926.926 0 0 1-.266.04.874.874 0 0 1-.426-.11l-8.985-4.993-8.989 4.995a.88.88 0 0 1-.682.066.923.923 0 0 1-.55-.438.93.93 0 0 1-.075-.703.905.905 0 0 1 .438-.553l9.858-5.479.025.014 9.833 5.465c.216.12.367.31.437.552a.916.916 0 0 1-.619 1.145Zm2.367 10.518h-1.818v-8.99l.035-.014a2.48 2.48 0 0 0 .838-.51l.035-.032.036.033c.242.223.524.395.839.51l.035.013v8.99Zm12.849 0h-5.247V46.2a.92.92 0 0 1 .91-.927h3.427a.92.92 0 0 1 .91.927v6.164Zm5.996 0h-4.39V46.2c0-1.414-1.129-2.564-2.517-2.564h-3.426c-1.387 0-2.516 1.15-2.516 2.564v6.164h-4.39v-8.99l.036-.013.088-.031c.098-.034.191-.067.278-.115l8.217-4.569.026.015 8.19 4.552c.089.05.183.082.283.117l.085.03.036.014v8.99Zm1.601-10.955a.919.919 0 0 1-.811.477.87.87 0 0 1-.425-.108l-8.986-4.994-8.988 4.996a.88.88 0 0 1-.682.065.924.924 0 0 1-.55-.437.935.935 0 0 1-.075-.704.905.905 0 0 1 .438-.553l9.858-5.479.026.015 9.832 5.464a.905.905 0 0 1 .436.552.939.939 0 0 1-.074.707l.001-.001ZM53 52.364h-1.606V54H53v-1.636ZM1.606 52.364H0V54h1.606v-1.636Z"/></g><defs><clipPath id="a"><path fill="#fff" d="M0 0h53v54H0z"/></clipPath></defs></svg>