<svg xmlns="http://www.w3.org/2000/svg" fill="none" viewBox="0 0 51 49"><g fill="#000" clip-path="url(#a)"><path d="M12.21 28.735c-.003-2.266-1.386-4.35-3.523-5.308l-.082-.035.061-.064a3.237 3.237 0 0 0-.234-4.697 3.526 3.526 0 0 0-2.326-.863c-.942 0-1.88.367-2.562 1.088a3.217 3.217 0 0 0 0 4.472l.06.064-.08.035C1.385 24.386.003 26.47 0 28.735c0 .432.366.784.815.784h10.58c.45 0 .815-.352.815-.784Zm-6.105-9.38c1.008 0 1.83.788 1.83 1.757 0 .969-.822 1.758-1.83 1.758s-1.83-.79-1.83-1.758c0-.969.822-1.758 1.83-1.758Zm-4.4 8.597.016-.077c.426-1.99 2.27-3.436 4.385-3.439 2.115.003 3.959 1.449 4.385 3.44l.017.076H1.704ZM25.5 33.88c-1.907 0-3.46 1.492-3.46 3.325 0 1.833 1.553 3.325 3.46 3.325 1.908 0 3.46-1.492 3.46-3.325 0-1.832-1.552-3.324-3.46-3.324Zm0 5.083c-1.008 0-1.829-.789-1.829-1.758 0-.968.821-1.757 1.83-1.757 1.008 0 1.829.788 1.829 1.757 0 .97-.821 1.758-1.83 1.758ZM47.477 23.427l-.082-.035.06-.064a3.237 3.237 0 0 0-.233-4.697 3.526 3.526 0 0 0-2.325-.863c-.942 0-1.88.367-2.562 1.088a3.217 3.217 0 0 0 0 4.472l.06.064-.08.035c-2.138.959-3.522 3.042-3.524 5.308 0 .432.366.784.816.784h10.579c.45 0 .815-.352.815-.784-.003-2.266-1.386-4.35-3.523-5.308h-.001Zm-2.582-4.073c1.008 0 1.83.79 1.83 1.758 0 .969-.822 1.758-1.83 1.758s-1.83-.79-1.83-1.758c0-.969.822-1.758 1.83-1.758Zm-4.4 8.598.016-.077a4.27 4.27 0 0 1 1.914-2.728 4.593 4.593 0 0 1 3.361-.629c1.765.344 3.137 1.662 3.495 3.357l.016.077h-8.802ZM3.46 31.34C2.04 31.34.882 32.45.882 33.817c0 1.366 1.157 2.478 2.578 2.478 1.422 0 2.58-1.112 2.58-2.478S4.881 31.34 3.46 31.34Zm0 3.388c-.522 0-.947-.409-.947-.91 0-.503.425-.911.947-.911.523 0 .948.408.948.91s-.425.91-.948.91ZM6.987 10.884c1.421 0 2.579-1.112 2.579-2.477 0-1.366-1.158-2.478-2.58-2.478-1.42 0-2.578 1.112-2.578 2.478 0 1.365 1.157 2.477 2.579 2.477Zm0-3.388c.522 0 .948.409.948.91 0 .503-.426.911-.948.911s-.948-.408-.948-.91.426-.91.948-.91ZM44.013 10.884c1.422 0 2.579-1.112 2.579-2.477 0-1.366-1.157-2.478-2.579-2.478-1.421 0-2.578 1.112-2.578 2.478 0 1.365 1.157 2.477 2.578 2.477Zm0-3.388c.523 0 .948.409.948.91 0 .503-.425.911-.948.911-.522 0-.947-.408-.947-.91s.425-.91.947-.91ZM47.54 31.34c-1.422 0-2.58 1.111-2.58 2.477 0 1.366 1.158 2.478 2.58 2.478 1.421 0 2.578-1.112 2.578-2.478s-1.157-2.477-2.578-2.477Zm0 3.388c-.523 0-.948-.409-.948-.91 0-.503.425-.911.948-.911.522 0 .947.408.947.91s-.425.91-.947.91ZM18.513 23.653c0 .899.762 1.63 1.697 1.63h.066v1.758c.003.636.393 1.218.995 1.48l.03.013.595 2.29c.189.727.866 1.236 1.648 1.236h3.913c.78 0 1.458-.509 1.646-1.236l.596-2.29.03-.013c.602-.263.993-.844.994-1.48v-1.758h.066c.936 0 1.697-.731 1.697-1.63 0-1.587.879-2.62 1.992-3.928l.007-.009c1.467-1.718 3.292-3.857 3.292-7.921C37.776 5.29 32.269 0 25.5 0c-6.77 0-12.276 5.29-12.276 11.795 0 4.068 1.825 6.204 3.291 7.921 1.12 1.316 1.998 2.349 1.998 3.937Zm8.995 6.84h-4.016l-.474-1.821h4.963l-.473 1.82Zm1.584-3.388h-7.185v-1.822h7.185v1.822ZM22.04 15.246h-.948c-.522 0-.948-.408-.948-.91s.426-.91.948-.91.948.408.948.91v.91Zm1.63 8.47v-6.903h3.66v6.904h-3.66ZM25.5 1.567c5.863.006 10.638 4.594 10.645 10.228 0 3.507-1.487 5.248-2.925 6.932-1.164 1.369-2.365 2.779-2.365 4.926v.064H28.96v-6.904h.948c1.421 0 2.578-1.111 2.578-2.477 0-1.366-1.157-2.478-2.578-2.478-1.422 0-2.579 1.112-2.579 2.478v.91H23.67v-.91c0-1.366-1.157-2.478-2.578-2.478-1.422 0-2.579 1.112-2.579 2.478s1.157 2.477 2.579 2.477h.948v6.904h-1.896v-.064c0-2.146-1.201-3.556-2.364-4.92-1.441-1.693-2.925-3.437-2.925-6.938C14.86 6.16 19.636 1.573 25.5 1.567Zm3.46 13.68v-.911c0-.502.425-.91.948-.91.522 0 .947.408.947.91s-.425.91-.947.91h-.948ZM16.396 40.412l-.107-.041.09-.068c2.27-1.704 2.671-4.865.897-7.045a5.246 5.246 0 0 0-3.48-1.89 5.493 5.493 0 0 0-.645-.038c-1.159 0-2.278.369-3.206 1.066-1.1.826-1.798 2.014-1.967 3.344a4.848 4.848 0 0 0 1.07 3.701c.26.321.563.611.897.862l.09.068-.107.041c-3.347 1.28-5.513 4.343-5.52 7.805 0 .431.366.783.816.783h15.868c.45 0 .816-.352.816-.783-.006-3.46-2.169-6.523-5.512-7.805Zm-6.83-4.054c0-1.903 1.61-3.451 3.592-3.451 1.981 0 3.592 1.548 3.592 3.451 0 1.904-1.61 3.452-3.592 3.452-1.981 0-3.592-1.548-3.592-3.452ZM20.23 47.433H9.67l.021-.08c.157-.594.477-1.14.927-1.576a.76.76 0 0 0 .02-1.108.829.829 0 0 0-.571-.24h-.014a.83.83 0 0 0-.567.22l-.02.02a4.889 4.889 0 0 0-1.455 2.711l-.01.053H6.086l.01-.07c.235-1.813 1.193-3.43 2.694-4.55a7.28 7.28 0 0 1 5.254-1.388c3.233.39 5.774 2.83 6.179 5.937l.008.071ZM41.08 40.412l-.107-.041.09-.068c2.27-1.704 2.672-4.865.898-7.045a5.246 5.246 0 0 0-3.48-1.89 5.495 5.495 0 0 0-.645-.038c-1.16 0-2.279.369-3.207 1.066-1.098.826-1.797 2.014-1.967 3.344a4.848 4.848 0 0 0 1.07 3.701c.261.321.563.611.897.862l.09.068-.106.041c-3.347 1.28-5.514 4.343-5.52 7.805 0 .431.366.783.815.783h15.869c.45 0 .815-.352.815-.783-.005-3.46-2.168-6.523-5.512-7.805Zm-6.83-4.054c0-1.903 1.611-3.451 3.593-3.451 1.98 0 3.592 1.548 3.592 3.451 0 1.904-1.611 3.452-3.592 3.452-1.982 0-3.593-1.548-3.593-3.452Zm10.663 11.075h-1.914l-.01-.053a4.876 4.876 0 0 0-1.455-2.71.84.84 0 0 0-1.154-.036.765.765 0 0 0 0 1.142 3.4 3.4 0 0 1 .93 1.579l.02.08H30.768l.009-.072c.235-1.813 1.193-3.428 2.694-4.55a7.28 7.28 0 0 1 5.254-1.386c3.233.388 5.775 2.83 6.18 5.936l.008.071v-.001Z"/></g><defs><clipPath id="a"><path fill="#fff" d="M0 0h51v49H0z"/></clipPath></defs></svg>