<svg xmlns="http://www.w3.org/2000/svg" viewBox="0 0 24 24"><path d="M18 3H6C4.346 3 3 4.346 3 6v12c0 1.654 1.346 3 3 3h12c1.654 0 3-1.346 3-3V6c0-1.654-1.346-3-3-3zm-4.995 15.279c-.18.518-.674.721-1.005.721s-.825-.203-1.005-.721c-.18-.518-.495-2.311-.495-3.513S11.564 13.5 12 13.5s1.5.065 1.5 1.266c0 1.202-.316 2.995-.495 3.513zM10.75 11.25a1.25 1.25 0 1 1 2.5 0 1.25 1.25 0 0 1-2.5 0zM12 8.5c-1.654 0-3 1.346-3 3 0 .804.322 1.532.839 2.071a2.415 2.415 0 0 0-.316 1.045C8.602 13.882 8 12.766 8 11.5c0-2.206 1.794-4 4-4s4 1.794 4 4c0 1.266-.602 2.382-1.522 3.116a2.433 2.433 0 0 0-.316-1.045A2.987 2.987 0 0 0 15 11.5c0-1.654-1.346-3-3-3zm2.333 8.528c.052-.396.096-.804.125-1.201C15.968 14.965 17 13.359 17 11.5c0-2.757-2.243-5-5-5s-5 2.243-5 5c0 1.859 1.032 3.465 2.542 4.327.03.397.073.805.125 1.201A6.009 6.009 0 0 1 6 11.5c0-3.309 2.691-6 6-6s6 2.691 6 6a6.009 6.009 0 0 1-3.667 5.528z"/></svg>