<svg xmlns="http://www.w3.org/2000/svg" fill="none" viewBox="0 0 697 420"><mask id="a" width="683" height="408" x="8" y="5" maskUnits="userSpaceOnUse" style="mask-type:alpha"><path fill="#000" d="M76.853 36.072c0 5.205-1.194 9.984-3.584 14.336-2.389 4.267-6.058 7.723-11.008 10.368-4.949 2.645-11.093 3.968-18.431 3.968H30.262V97H8.373V7.144H43.83c7.168 0 13.226 1.237 18.175 3.712 4.95 2.475 8.662 5.888 11.136 10.24 2.475 4.352 3.712 9.344 3.712 14.976ZM42.166 47.336c4.18 0 7.296-.981 9.344-2.944 2.047-1.963 3.072-4.736 3.072-8.32 0-3.584-1.025-6.357-3.072-8.32-2.048-1.963-5.163-2.944-9.344-2.944H30.262v22.528h11.904Zm67.971-22.656v18.176h29.312v16.896h-29.312v19.712h33.152V97h-55.04V7.144h55.04V24.68h-33.152ZM203.323 97l-18.688-33.92h-5.248V97h-21.888V7.144h36.736c7.082 0 13.098 1.237 18.048 3.712 5.034 2.475 8.789 5.888 11.264 10.24 2.474 4.267 3.712 9.045 3.712 14.336 0 5.973-1.707 11.307-5.12 16-3.328 4.693-8.278 8.021-14.848 9.984L228.027 97h-24.704Zm-23.936-49.408h13.568c4.01 0 6.997-.981 8.96-2.944 2.048-1.963 3.072-4.736 3.072-8.32 0-3.413-1.024-6.101-3.072-8.064-1.963-1.963-4.95-2.944-8.96-2.944h-13.568v22.272Zm94.124 50.304c-6.571 0-12.459-1.067-17.664-3.2-5.206-2.133-9.387-5.29-12.544-9.472-3.072-4.181-4.694-9.216-4.864-15.104h23.296c.341 3.328 1.493 5.888 3.456 7.68 1.962 1.707 4.522 2.56 7.68 2.56 3.242 0 5.802-.725 7.68-2.176 1.877-1.536 2.816-3.627 2.816-6.272 0-2.219-.768-4.053-2.304-5.504-1.451-1.45-3.286-2.645-5.504-3.584-2.134-.939-5.206-2.005-9.216-3.2-5.803-1.792-10.539-3.584-14.208-5.376-3.67-1.792-6.827-4.437-9.472-7.936-2.646-3.499-3.968-8.064-3.968-13.696 0-8.363 3.029-14.89 9.088-19.584 6.058-4.779 13.952-7.168 23.68-7.168 9.898 0 17.877 2.39 23.936 7.168 6.058 4.693 9.301 11.264 9.728 19.712h-23.68c-.171-2.901-1.238-5.163-3.2-6.784-1.963-1.707-4.48-2.56-7.553-2.56-2.645 0-4.778.725-6.399 2.176-1.622 1.365-2.432 3.37-2.432 6.016 0 2.901 1.365 5.163 4.095 6.784 2.731 1.621 6.998 3.37 12.801 5.248 5.802 1.963 10.496 3.84 14.08 5.632 3.669 1.792 6.826 4.395 9.472 7.808 2.645 3.413 3.968 7.808 3.968 13.184 0 5.12-1.323 9.77-3.968 13.952-2.56 4.181-6.315 7.51-11.264 9.984-4.95 2.475-10.795 3.712-17.536 3.712Zm68.126-73.216v18.176h29.312v16.896h-29.312v19.712h33.152V97h-55.04V7.144h55.04V24.68h-33.152ZM473.351 7.144 441.479 97h-27.392L382.215 7.144h23.296l22.272 67.84 22.4-67.84h23.168Zm31.036 17.536v18.176h29.312v16.896h-29.312v19.712h33.152V97h-55.04V7.144h55.04V24.68h-33.152ZM597.573 97l-18.688-33.92h-5.248V97h-21.888V7.144h36.736c7.082 0 13.098 1.237 18.048 3.712 5.034 2.475 8.789 5.888 11.264 10.24 2.474 4.267 3.712 9.045 3.712 14.336 0 5.973-1.707 11.307-5.12 16-3.328 4.693-8.278 8.021-14.848 9.984L622.277 97h-24.704Zm-23.936-49.408h13.568c4.01 0 6.997-.981 8.96-2.944 2.048-1.963 3.072-4.736 3.072-8.32 0-3.413-1.024-6.101-3.072-8.064-1.963-1.963-4.95-2.944-8.96-2.944h-13.568v22.272Zm83.5-22.912v18.176h29.312v16.896h-29.312v19.712h33.152V97h-55.04V7.144h55.04V24.68h-33.152Zm-324.186 87.464v17.536h-23.808V202h-21.888v-72.32h-23.808v-17.536h69.504Zm53.481 90.752c-8.448 0-16.213-1.963-23.296-5.888-6.997-3.925-12.587-9.387-16.768-16.384-4.096-7.083-6.144-15.019-6.144-23.808s2.048-16.683 6.144-23.68c4.181-6.997 9.771-12.459 16.768-16.384 7.083-3.925 14.848-5.888 23.296-5.888 8.448 0 16.171 1.963 23.168 5.888 7.083 3.925 12.629 9.387 16.64 16.384 4.096 6.997 6.144 14.891 6.144 23.68s-2.048 16.725-6.144 23.808c-4.096 6.997-9.643 12.459-16.64 16.384-6.997 3.925-14.72 5.888-23.168 5.888Zm0-19.968c7.168 0 12.885-2.389 17.152-7.168 4.352-4.779 6.528-11.093 6.528-18.944 0-7.936-2.176-14.251-6.528-18.944-4.267-4.779-9.984-7.168-17.152-7.168-7.253 0-13.056 2.347-17.408 7.04-4.267 4.693-6.4 11.051-6.4 19.072 0 7.936 2.133 14.293 6.4 19.072 4.352 4.693 10.155 7.04 17.408 7.04ZM184.074 234.68v18.176h29.312v16.896h-29.312v19.712h33.152V307h-55.04v-89.856h55.04v17.536h-33.152ZM286.476 307l-18.304-27.52L252.044 307h-24.832l28.8-45.696-29.44-44.16h25.472l18.048 27.136 15.872-27.136h24.832l-28.544 45.312L311.948 307h-25.472Zm32.748-45.056c0-8.875 1.92-16.768 5.76-23.68 3.84-6.997 9.173-12.416 16-16.256 6.912-3.925 14.72-5.888 23.424-5.888 10.667 0 19.797 2.816 27.392 8.448 7.595 5.632 12.672 13.312 15.232 23.04h-24.064c-1.792-3.755-4.352-6.613-7.68-8.576-3.243-1.963-6.955-2.944-11.136-2.944-6.741 0-12.203 2.347-16.384 7.04-4.181 4.693-6.272 10.965-6.272 18.816 0 7.851 2.091 14.123 6.272 18.816s9.643 7.04 16.384 7.04c4.181 0 7.893-.981 11.136-2.944 3.328-1.963 5.888-4.821 7.68-8.576h24.064c-2.56 9.728-7.637 17.408-15.232 23.04-7.595 5.547-16.725 8.32-27.392 8.32-8.704 0-16.512-1.92-23.424-5.76-6.827-3.925-12.16-9.344-16-16.256-3.84-6.912-5.76-14.805-5.76-23.68Zm123.1-27.264v18.176h29.312v16.896h-29.312v19.712h33.152V307h-55.04v-89.856h55.04v17.536h-33.152Zm69.25 55.424h28.672V307h-50.56v-89.856h21.888v72.96Zm-396.533 60.968c0 5.205-1.195 9.984-3.584 14.336-2.389 4.267-6.059 7.723-11.008 10.368-4.95 2.645-11.093 3.968-18.432 3.968H68.449V412H46.561v-89.856h35.456c7.168 0 13.227 1.237 18.176 3.712 4.949 2.475 8.661 5.888 11.136 10.24 2.475 4.352 3.712 9.344 3.712 14.976Zm-34.688 11.264c4.181 0 7.296-.981 9.344-2.944 2.048-1.963 3.072-4.736 3.072-8.32 0-3.584-1.024-6.357-3.072-8.32s-5.163-2.944-9.344-2.944H68.449v22.528h11.904Zm88.579 50.56c-8.448 0-16.213-1.963-23.296-5.888-6.997-3.925-12.587-9.387-16.768-16.384-4.096-7.083-6.144-15.019-6.144-23.808s2.048-16.683 6.144-23.68c4.181-6.997 9.771-12.459 16.768-16.384 7.083-3.925 14.848-5.888 23.296-5.888 8.448 0 16.171 1.963 23.168 5.888 7.083 3.925 12.629 9.387 16.64 16.384 4.096 6.997 6.144 14.891 6.144 23.68s-2.048 16.725-6.144 23.808c-4.096 6.997-9.643 12.459-16.64 16.384-6.997 3.925-14.72 5.888-23.168 5.888Zm0-19.968c7.168 0 12.885-2.389 17.152-7.168 4.352-4.779 6.528-11.093 6.528-18.944 0-7.936-2.176-14.251-6.528-18.944-4.267-4.779-9.984-7.168-17.152-7.168-7.253 0-13.056 2.347-17.408 7.04-4.267 4.693-6.4 11.051-6.4 19.072 0 7.936 2.133 14.293 6.4 19.072 4.352 4.693 10.155 7.04 17.408 7.04Zm91.793-70.784c9.472 0 17.749 1.877 24.832 5.632 7.083 3.755 12.544 9.045 16.384 15.872 3.925 6.741 5.888 14.549 5.888 23.424 0 8.789-1.963 16.597-5.888 23.424-3.84 6.827-9.344 12.117-16.512 15.872-7.083 3.755-15.317 5.632-24.704 5.632h-33.664v-89.856h33.664Zm-1.408 70.912c8.277 0 14.72-2.261 19.328-6.784 4.608-4.523 6.912-10.923 6.912-19.2s-2.304-14.72-6.912-19.328c-4.608-4.608-11.051-6.912-19.328-6.912h-10.368v52.224h10.368Zm57.032-26.112c0-8.875 1.92-16.768 5.76-23.68 3.84-6.997 9.173-12.416 16-16.256 6.912-3.925 14.72-5.888 23.424-5.888 10.667 0 19.797 2.816 27.392 8.448 7.595 5.632 12.672 13.312 15.232 23.04h-24.064c-1.792-3.755-4.352-6.613-7.68-8.576-3.243-1.963-6.955-2.944-11.136-2.944-6.741 0-12.203 2.347-16.384 7.04-4.181 4.693-6.272 10.965-6.272 18.816 0 7.851 2.091 14.123 6.272 18.816s9.643 7.04 16.384 7.04c4.181 0 7.893-.981 11.136-2.944 3.328-1.963 5.888-4.821 7.68-8.576h24.064c-2.56 9.728-7.637 17.408-15.232 23.04-7.595 5.547-16.725 8.32-27.392 8.32-8.704 0-16.512-1.92-23.424-5.76-6.827-3.925-12.16-9.344-16-16.256-3.84-6.912-5.76-14.805-5.76-23.68Zm157.148 29.184h-33.536L434.585 412h-22.912l32.512-89.856h25.344L502.041 412h-23.168l-5.376-15.872Zm-5.632-16.896-11.136-32.896-11.008 32.896h22.144Zm76.583 33.664c-6.571 0-12.459-1.067-17.664-3.2-5.205-2.133-9.387-5.291-12.544-9.472-3.072-4.181-4.693-9.216-4.864-15.104h23.296c.341 3.328 1.493 5.888 3.456 7.68 1.963 1.707 4.523 2.56 7.68 2.56 3.243 0 5.803-.725 7.68-2.176 1.877-1.536 2.816-3.627 2.816-6.272 0-2.219-.768-4.053-2.304-5.504-1.451-1.451-3.285-2.645-5.504-3.584-2.133-.939-5.205-2.005-9.216-3.2-5.803-1.792-10.539-3.584-14.208-5.376-3.669-1.792-6.827-4.437-9.472-7.936-2.645-3.499-3.968-8.064-3.968-13.696 0-8.363 3.029-14.891 9.088-19.584 6.059-4.779 13.952-7.168 23.68-7.168 9.899 0 17.877 2.389 23.936 7.168 6.059 4.693 9.301 11.264 9.728 19.712h-23.68c-.171-2.901-1.237-5.163-3.2-6.784-1.963-1.707-4.48-2.56-7.552-2.56-2.645 0-4.779.725-6.4 2.176-1.621 1.365-2.432 3.371-2.432 6.016 0 2.901 1.365 5.163 4.096 6.784 2.731 1.621 6.997 3.371 12.8 5.248 5.803 1.963 10.496 3.84 14.08 5.632 3.669 1.792 6.827 4.395 9.472 7.808 2.645 3.413 3.968 7.808 3.968 13.184 0 5.12-1.323 9.771-3.968 13.952-2.56 4.181-6.315 7.509-11.264 9.984-4.949 2.475-10.795 3.712-17.536 3.712Zm110.878-90.752v17.536h-23.808V412H609.63v-72.32h-23.808v-17.536h69.504Z"/></mask><g mask="url(#a)"><path fill="#F1003E" d="M415.692-106.876H-17.723V325.61h433.415v-432.486Z"/><mask id="b" width="434" height="433" x="-18" y="-107" maskUnits="userSpaceOnUse" style="mask-type:luminance"><path fill="#fff" d="M415.688-106.876H-17.727V325.61h433.415v-432.486Z"/></mask><g fill="#083780" mask="url(#b)"><path d="M585.541 37.093h6.475c3.653-.083 7.305.331 11.207 1.325a29.195 29.195 0 0 1 7.388 2.9c2.159 1.242 3.902 2.567 5.396 4.224l1.245 1.243c2.906 3.644 4.483 8.697 4.566 14.662.166 13.916-8.052 31.56-21.998 47.382l-41.009 42.743c-1.91 1.988-2.906 4.556-2.906 7.455 0 5.633 4.068 10.355 9.464 11.349l43.914 8.366c30.632 5.385 53.627 24.602 57.279 47.879a38.05 38.05 0 0 1 .499 6.13c.166 12.177-4.898 24.023-14.611 34.294l-42.752 44.318a10.357 10.357 0 0 0-2.905 7.538c0 3.893 2.158 7.786 5.645 9.857l57.777 35.371c6.309 3.313 11.871 6.71 16.769 10.272 17.35 12.508 27.726 27.087 27.809 38.933a19.77 19.77 0 0 1-.747 5.467c-3.901 13.502-23.576 20.957-50.057 18.886l-15.939-1.242.665.745c-47.899-1.077-93.64 4.639-136.226 16.982-1.577-.912-3.237-1.823-4.981-2.651-4.15-1.988-8.716-3.728-13.448-5.219l-20.338-7.869 10.875-16.816c7.554-12.011 10.293-25.016 7.803-37.856-.415-2.319-1.079-4.556-1.826-6.71-7.804-22.697-31.795-37.773-59.521-37.607h-.415l5.313-8.201c9.546-16.319 13.282-32.72 10.708-46.554a39.964 39.964 0 0 0-5.064-13.253c-1.826-2.982-4.067-5.716-6.724-8.035-.664-.58-1.909-1.492-2.822-2.071-2.324-1.74-5.479-3.397-8.883-4.639-3.237-1.16-6.807-1.823-10.376-1.988-3.819-.166-7.305 0-10.709.662-35.945 5.053-98.371 59.477-137.554 140.324 52.216-225.313 256.43-352.798 321.014-358.265v-.331Z"/><path d="m260.956 602.365-.415-2.154C227.917 423.605 365.139 289.577 406.147 282.37c.498 0 .913-.083 1.412-.166 1.66-.331 3.32-.497 5.312-.331 1.08 0 2.159.248 3.072.58.747.248 1.411.58 1.826.911.166.166.498.331.747.58.913.994 1.578 2.568 1.993 4.473 1.328 6.875-1.412 17.23-7.223 27.087l-19.674 30.65c-1.743 2.733-2.407 6.047-1.743 9.36 1.245 6.461 6.724 11.183 13.116 11.183H432.214c16.104-.249 29.552 7.041 33.371 18.058.332.911.581 1.823.747 2.817 1.411 7.289-1.494 13.833-4.15 18.058l-20.671 31.892c-1.743 2.65-2.407 6.047-1.743 9.36.913 4.722 4.15 8.615 8.55 10.355l35.53 13.75 2.823 1.077s.415.166.664.249c3.569 1.077 6.973 2.402 10.044 3.893.083 0 .166.083.249.083 11.373 5.55 16.271 11.928 17.018 15.656.083.58.166 1.077.083 1.574-.498 4.804-8.467 10.437-22.746 12.094-.332 0-.664.083-.996.165-92.062 13.088-160.88 62.542-210.19 151.259l-.997 1.739c-.498.912-1.079 1.823-1.577 2.734-4.566-11.514-8.384-23.277-11.622-35.205-2.158-7.953-4.067-15.905-5.645-23.857v-.083Z"/><path d="M314.664 729.435c-78.78-42.909-130.165-124.916-131.992-226.39-4.399-245.94 284.571-359.177 176.985-543.9-21.832-37.526-61.015-57.489-94.303-66.684a186.597 186.597 0 0 0-33.621-6.047c-41.755-3.479-80.772 7.538-111.653 28.744-.332.249-.664.415-1.079.663a144.09 144.09 0 0 0-13.697 10.686C90.942-59.991 80.981-42.264 77.66-21.97c-1.743 2.236-28.059 6.875-71.309 36.2a498.21 498.21 0 0 0-11.373 7.951c11.456.166 22.746 1.077 33.787 4.225 15.274 4.307 28.972 11.68 42.254 19.963 5.81 3.645 11.622 7.124 17.433 10.686 3.57 2.32 7.056 4.64 10.543 7.041a276.312 276.312 0 0 0 19.674 12.591C226.172 146.602 274.07 60.95 274.07 60.95c-2.656 156.975-406.268 123.095-422.539 435.386-16.769 321.238 437.15 362.738 553.369 262.921-32.458-4.639-62.924-14.827-90.319-29.821h.083Z"/></g><path fill="#FAB202" d="M121.986 344-98 272.678 50.511 58.465l157.062 164.677L121.986 344Z"/><mask id="c" width="373" height="236" x="-98" y="58" maskUnits="userSpaceOnUse" style="mask-type:luminance"><path fill="#fff" d="M274.731 293.222-98 272.678 50.511 58.465l84.01 88.137c16.686 17.561 43.167 21.703 64.502 10.106l75.708 136.514Z"/></mask><g fill="#67B14E" mask="url(#c)"><path d="m325.123 137.656 3.32 2.236c1.827 1.243 3.57 2.817 5.147 4.639 1.163 1.325 1.993 2.651 2.74 4.059.664 1.408 1.079 2.651 1.245 4.059l.166 1.077c.166 2.816-.83 5.964-2.988 9.029-4.898 7.041-15.358 13.005-27.976 16.07l-35.945 6.958c-1.66.332-3.072 1.243-4.068 2.734-1.992 2.816-1.66 6.71.664 9.112l19.094 19.798c13.531 13.585 18.263 31.477 11.788 44.483a30.383 30.383 0 0 1-1.91 3.23c-4.317 6.213-11.041 10.355-19.591 12.094l-37.356 7.124c-1.66.331-3.155 1.325-4.151 2.734-1.411 1.988-1.66 4.721-.664 6.958l16.437 38.353c1.992 3.893 3.569 7.538 4.815 11.1 4.233 12.425 4.316 23.443.083 29.49-.665.994-1.495 1.822-2.325 2.485-6.807 5.384-19.342 2.153-31.96-8.284l-7.554-6.296v.58c-23.659-17.561-48.729-30.98-74.63-39.844-.498-.994-.996-2.071-1.577-3.147-1.411-2.486-3.071-4.971-4.898-7.456l-7.471-11.183 11.456-4.638c8.052-3.314 14.112-8.947 17.433-16.319a33.842 33.842 0 0 0 1.494-4.059c4.151-14.165-2.49-30.318-16.52-40.093l-.166-.165 5.562-2.237c10.626-4.804 18.346-11.763 21.999-19.632 1.245-2.734 1.992-5.633 2.158-8.449.166-2.154 0-4.308-.498-6.461-.083-.497-.415-1.409-.664-2.071-.581-1.74-1.577-3.645-2.822-5.467a22.317 22.317 0 0 0-4.566-4.722c-1.826-1.491-3.653-2.568-5.562-3.479-19.923-10.272-70.728-4.97-119.374 21.786 106.673-94.93 255.018-86.481 289.469-66.352l.166.166Z"/><path d="m-39.97 306.972.58-1.242C7.181 205.25 124.147 186.446 147.308 197.38c.249.166.498.332.83.415.913.414 1.826.911 2.823 1.739a9.95 9.95 0 0 1 1.328 1.326c.249.414.498.745.581 1.159 0 .166.083.332.166.58.083.828-.083 1.822-.581 2.982-1.826 3.893-6.89 8.201-13.282 11.1l-20.837 8.449c-1.826.746-3.32 2.237-4.233 4.059-1.661 3.728-.582 8.035 2.656 10.272l13.365 9.443s.249.166.332.249c8.219 5.633 12.369 13.999 10.294 20.957a9.859 9.859 0 0 1-.664 1.657c-1.91 4.142-5.728 6.461-8.551 7.621l-21.749 8.698c-1.826.745-3.321 2.153-4.234 4.142-1.245 2.65-.996 5.798.664 8.283l12.95 19.549.997 1.574s.166.249.249.332a48.102 48.102 0 0 1 3.652 5.467s0 .083.083.165c3.736 6.793 3.985 11.763 2.989 13.917a7.26 7.26 0 0 1-.498.828c-1.91 2.237-7.97 2.237-15.773-1.988a4.055 4.055 0 0 0-.581-.248C59.23 314.013 6.932 314.428-49.517 341.598l-1.08.497c-.58.248-1.162.58-1.743.828 1.827-7.455 4.068-14.662 6.724-21.869 1.743-4.721 3.653-9.443 5.728-13.999l-.083-.083Z"/><path d="M-58.319 390.057C-82.642 340.438-79.32 280.879-44.04 229.189c85.504-125.413 271.454-79.771 283.159-210.983 2.408-26.673-10.21-50.612-23.659-67.097-4.399-5.384-9.297-10.354-14.776-14.993-19.757-16.65-43.416-24.85-66.494-25.182h-.747c-3.57 0-7.139.166-10.709.497-12.037 1.657-23.41 7.124-32.292 16.153-1.66.497-16.603-6.544-48.812-7.124h-8.55c5.727 4.142 11.04 8.615 15.523 14.165 6.143 7.62 10.46 16.153 14.195 25.016 1.66 3.894 3.32 7.704 4.981 11.597.996 2.403 1.91 4.888 2.74 7.29 1.743 4.804 3.486 9.195 5.395 13.337 29.221 73.392 83.844 47.299 83.844 47.299-57.362 78.031-248.46-82.422-368.082 69.002C-331.35 263.98-117.673 446.137-23.536 437.19c-14.693-13.833-26.398-29.821-34.866-47.133h.083Z"/></g><path fill="#FAA400" d="m354.593 257.188-172.835-72.482c-2.988 9.609-23.41-39.181-3.403-82.421 17.848-38.436 44.993-83.416 61.596-135.934 7.471-23.608 203.051 88.137 203.051 88.137l-88.326 202.617-.083.083Z"/><mask id="d" width="292" height="295" x="151" y="-37" maskUnits="userSpaceOnUse" style="mask-type:luminance"><path fill="#fff" d="M354.59 257.188 151.539 169.05S238.122.728 239.866-33.566c1.162-21.62 203.051 88.137 203.051 88.137L354.59 257.188Z"/></mask><g fill="#28BCD9" mask="url(#d)"><path d="M352.602 281.956c2.159-47.797-13.116-94.019-43.665-131.378a193.028 193.028 0 0 0-25.153-25.596c-4.317-3.645-6.807-9.029-6.724-14.662 0-5.716 2.656-11.017 7.056-14.58 6.558-5.3 15.607-5.798 22.663-1.159l30.383 20.046h.249l.166-.165 4.898-31.56c1.162-7.456 5.063-14.166 10.874-18.97a30.361 30.361 0 0 1 12.95-6.213c12.204-2.568 24.573 2.402 31.629 12.674l15.025 22.2 11.456-38.519c.664-2.154 1.577-4.142 2.823-5.881-10.543-35.288-28.225-68.505-52.548-97.332a17.203 17.203 0 0 0-21.584-3.894c-5.562 3.148-8.882 9.195-8.633 15.574l2.241 53.677c.332 8.864-9.712 14.165-16.851 8.864L300.968 3.544c-9.796-7.372-23.161-8.035-33.704-1.74-10.792 6.462-16.437 18.887-14.278 31.23l7.471 42.163c1.411 7.87-5.811 14.497-13.614 12.509l-47.235-12.343c-6.309-1.657-12.95.994-16.437 6.544-4.897 7.87-1.494 18.307 7.14 21.703 15.274 5.964 30.217 13.42 44.661 22.366 59.604 37.027 99.782 93.439 117.547 155.897l.083.083Z"/><path d="M448.483 47.944c-2.075-.745-4.317-.91-6.641-.497-.996.166-1.909.497-2.823.911-.083 0-.166 0-.332.166-.83.414-1.66.911-2.324 1.491 0 0-.166 0-.249.166 0 0-.166.166-.249.166l-.747.745c-.166.166-.332.331-.498.58-.249.248-.498.58-.664.828a2.524 2.524 0 0 0-.416.58c-.249.331-.415.746-.581 1.077l-.249.497c-.249.58-.498 1.16-.664 1.74l-1.328 4.473-10.128 34.045a8.559 8.559 0 0 1-.996 2.154c-.166.249-.332.331-.498.58-.332.414-.664.745-.996 1.077-.498.414-.996.745-1.577.994-.166 0-.332.165-.498.165a7.053 7.053 0 0 1-1.412.415c-.166 0-.332 0-.581.082-.581 0-1.162.083-1.743 0h-.166c-.664 0-1.245-.248-1.826-.497-.166 0-.332-.165-.498-.248-.415-.166-.831-.497-1.246-.746-.166-.082-.332-.248-.498-.33-.498-.415-.996-.912-1.411-1.575l-15.191-22.2c-1.329-1.905-2.823-3.562-4.566-4.887-1.743-1.326-3.653-2.485-5.728-3.314-3.072-1.242-6.392-1.74-9.713-1.573-1.162 0-2.241.248-3.403.497-1.079.248-2.076.497-3.072.91-.332.084-.581.25-.913.332-.664.249-1.328.58-1.992.911-.332.166-.581.332-.913.497a37.77 37.77 0 0 0-1.91 1.243c-.249.165-.415.331-.664.497 0 0-.166.083-.166.165-.249.166-.332.415-.581.58-.664.58-1.411 1.243-1.992 1.906-.332.331-.581.662-.83.994-.499.662-.997 1.325-1.412 2.07-.249.415-.498.746-.664 1.16-.415.746-.747 1.574-1.079 2.403-.166.414-.332.745-.498 1.16-.415 1.242-.747 2.484-.913 3.727l-4.898 31.56c-.083.663-.332 1.243-.498 1.823 0 .165-.166.331-.249.497l-.747 1.242c-.083.083-.166.249-.249.332a7.671 7.671 0 0 1-1.162 1.159h-.083c-.582.497-1.246.829-1.993 1.16-.166 0-.332.083-.581.166-.581.165-1.079.331-1.743.414h-.747c-.581 0-1.08 0-1.661-.166-.249 0-.498 0-.747-.166-.747-.248-1.577-.497-2.241-.994l-30.383-20.046a11.485 11.485 0 0 0-3.238-1.49c-1.162-.332-2.324-.415-3.486-.332-1.162 0-2.325.331-3.404.745-1.079.414-2.158.994-3.071 1.74-.664.58-1.245 1.16-1.744 1.822a10.583 10.583 0 0 0-1.245 2.071c-1.743 3.645-1.328 8.035 1.079 11.349.499.662 1.08 1.242 1.744 1.822 4.648 3.976 9.214 8.118 13.531 12.591 4.317 4.473 8.55 9.112 12.535 13.999 13.282 16.236 23.576 33.88 31.047 52.353a191.711 191.711 0 0 1 6.475 18.721c3.736 12.591 6.143 25.43 7.305 38.353 1.163 12.922 1.08 25.927-.166 38.767-.332 3.479 1.329 6.461 3.902 8.118.747.497 1.66.828 2.49.994.914.248 1.827.248 2.823.165h.83c.581-.082 1.162-.331 1.743-.579.083 0 .166 0 .249-.083.249-.083.498-.166.747-.332a85.868 85.868 0 0 0 5.811-3.727 201.333 201.333 0 0 0 16.935-12.426c21.833-17.809 39.017-39.181 51.386-62.624 3.735-7.041 6.973-14.247 9.795-21.62 1.91-4.887 3.57-9.857 5.064-14.91 1.494-5.053 2.823-10.106 3.902-15.159 1.079-5.136 1.992-10.272 2.656-15.408a241.073 241.073 0 0 0 1.494-15.573c.415-7.786.415-15.656 0-23.525-.249-3.645-.581-7.29-.996-10.852-.332-3.23-.83-6.46-1.328-9.692-.415-2.319-.83-4.638-1.245-7.04a185.164 185.164 0 0 0-2.574-11.349c-.996-3.81-2.075-7.621-3.32-11.431a182.327 182.327 0 0 0-4.068-11.266c0-.166-.166-.331-.249-.497a12.152 12.152 0 0 0-1.992-3.314v-.082c-.498-.58-.996-1.077-1.577-1.491-1.163-.912-2.408-1.657-3.819-2.154v.248Z"/></g><path fill="#F52224" d="M94.345-50.548c22.912 6.544 47.151 4.474 68.818-5.964 5.396-2.568 10.543-5.715 15.275-9.195 2.241-1.656 5.146-2.236 7.886-1.573 2.739.662 5.064 2.567 6.309 5.053 1.826 3.727.996 8.2-2.075 11.1l-13.283 12.342v.166l14.777 6.047c3.486 1.408 6.309 4.059 7.969 7.455 1.079 2.154 1.577 4.556 1.494 6.958-.166 6.213-3.984 11.597-9.795 13.834L179.185.397l17.35 9.94c.996.58 1.826 1.242 2.49 2.07 18.346-.993 36.526-5.715 53.295-14.164 3.652-1.823 5.562-6.047 4.399-10.023-.913-3.065-3.403-5.385-6.558-5.965l-26.315-5.135c-4.317-.829-5.728-6.379-2.324-9.195l13.78-11.431c4.732-3.894 6.558-10.272 4.732-16.07-1.91-5.965-7.222-10.107-13.532-10.52l-21.334-1.243c-3.985-.249-6.392-4.474-4.483-8.035l11.456-21.372c1.494-2.899.996-6.378-1.245-8.698-3.238-3.313-8.717-2.816-11.373.911-4.649 6.71-10.045 13.088-16.022 18.97-24.904 24.52-56.864 37.442-89.24 38.85l.084.165Z"/><path fill="#F52224" d="M196.782 22.845c.582-.911.914-1.988.997-3.148 0-.497 0-.994-.083-1.49v-.166a8.13 8.13 0 0 0-.415-1.326v-.248c0-.166-.166-.332-.249-.415 0-.082-.167-.248-.167-.33-.083-.167-.249-.332-.332-.415 0-.083-.166-.166-.249-.249-.166-.165-.332-.248-.415-.414 0 0-.166-.165-.249-.165l-.747-.497-1.992-1.16-15.358-8.864s-.664-.497-.913-.745c-.083-.083-.166-.249-.249-.331a2.517 2.517 0 0 1-.415-.58c-.166-.249-.249-.58-.332-.912V.148c0-.331.083-.58.166-.828.083-.332.249-.58.415-.829 0 0 .083-.165.166-.248l.498-.497s.166-.166.249-.166c.249-.166.581-.414.913-.497l12.535-4.804a11.038 11.038 0 0 0 2.906-1.657c.83-.663 1.66-1.491 2.241-2.402a12.376 12.376 0 0 0 1.91-4.556c.083-.58.166-1.077.166-1.657v-2.071c0-.331-.166-.745-.249-1.077 0-.166-.083-.331-.166-.497a5.685 5.685 0 0 0-.416-1.077c0-.083-.083-.248-.166-.331v-.083c0-.083-.166-.248-.166-.331-.249-.415-.415-.829-.747-1.16-.166-.166-.249-.331-.415-.497-.249-.331-.498-.663-.83-.911l-.498-.497c-.332-.249-.664-.58-.996-.829-.166-.082-.332-.248-.498-.33-.581-.332-1.079-.664-1.744-.912l-14.776-6.047c-.332-.166-.581-.331-.83-.497 0 0-.166-.083-.166-.166l-.498-.497-.166-.166c-.166-.248-.332-.414-.415-.662-.166-.331-.249-.746-.332-1.077V-39.2c0-.249.166-.497.249-.746 0-.083.083-.248.166-.331.166-.331.415-.663.747-.994l13.282-12.343c.415-.414.83-.91 1.079-1.408.249-.497.498-1.077.581-1.657.083-.58.083-1.16 0-1.739 0-.58-.249-1.16-.498-1.657 0 0-.415-.745-.664-1.077-.249-.331-.581-.58-.83-.828a5.548 5.548 0 0 0-5.645-.745c-.415.165-.747.33-1.079.662-2.491 1.823-4.981 3.48-7.637 5.136-2.657 1.657-5.396 3.065-8.219 4.473-9.38 4.556-19.176 7.455-28.971 8.946a98.137 98.137 0 0 1-9.796.994c-6.558.332-13.033 0-19.508-.91-6.392-.912-12.701-2.486-18.844-4.557a4.212 4.212 0 0 0-4.4.994 5.321 5.321 0 0 0-.83 1.077c-.25.414-.332.911-.415 1.326v1.905c.332 1.077.747 2.153 1.079 3.23 1.162 3.231 2.49 6.462 4.067 9.61 6.144 12.59 14.528 23.36 24.49 32.057 2.988 2.568 6.143 5.053 9.38 7.207 2.158 1.49 4.4 2.899 6.641 4.141 2.242 1.326 4.566 2.485 6.89 3.645 2.325 1.16 4.732 2.154 7.139 3.065a110.42 110.42 0 0 0 7.389 2.485c3.735 1.16 7.554 1.988 11.373 2.734 1.826.331 3.569.58 5.395.828 1.578.166 3.238.331 4.815.497 1.162.083 2.325.166 3.57.166 1.909 0 3.818.083 5.811 0 1.992 0 3.984-.166 5.977-.249 1.992-.165 3.984-.331 5.977-.662h.249c.664-.083 1.245-.332 1.826-.58.332-.166.664-.332.913-.58.581-.414 1.079-.994 1.494-1.574l-.166-.497Z"/><path fill="#F1003E" d="m881.194 186.603-425.44-364.802L91.734 246.33l425.44 364.802 364.02-424.529Z"/><mask id="e" width="791" height="791" x="91" y="-179" maskUnits="userSpaceOnUse" style="mask-type:luminance"><path fill="#fff" d="m881.194 186.603-425.44-364.802L91.734 246.33l425.44 364.802 364.02-424.529Z"/></mask><g fill="#083780" mask="url(#e)"><path d="m926.74 470.881 6.356 5.45c3.655 2.993 6.892 6.474 9.885 10.734 2.131 2.956 3.657 5.958 4.812 9.064 1.073 3.037 1.668 5.805 1.74 8.689l.177 2.268c-.216 6.023-2.921 12.311-7.859 18.235-11.551 13.8-34.469 24.202-61.475 27.994l-76.231 7.44c-3.548.345-6.687 2.027-9.127 4.873-4.741 5.529-4.723 13.588-.263 19.105l36.064 45.175c25.537 31.068 31.933 69.287 15.927 95.21a49.458 49.458 0 0 1-4.671 6.436c-10.086 12.093-25.027 19.458-43.207 21.366l-79.267 7.518a13.39 13.39 0 0 0-9.196 4.953c-3.277 3.822-4.436 9.46-2.756 14.428l26.943 83.351c3.404 8.563 6.005 16.578 7.814 24.197 6.503 26.881 4.418 49.926-5.471 61.623-1.604 1.871-3.382 3.45-5.335 4.738-15.195 9.97-40.782.728-65.033-23.594l-14.6-14.635.025 1.291c-46.112-41.373-95.821-74.262-148.013-97.991-.781-2.222-1.644-4.514-2.658-6.794-2.401-5.445-5.418-10.996-8.808-16.442l-13.34-24.843 24.828-7.353c17.525-5.432 31.16-15.893 39.523-30.592 1.545-2.626 2.775-5.381 3.855-8.123 11.444-28.848.584-63.84-26.772-87.014l-.408-.35 12.118-3.578c23.106-7.983 40.578-20.938 49.696-36.684a51.708 51.708 0 0 0 6.185-17.272c.717-4.464.818-9.034.162-13.546-.163-1.129-.619-3.071-1.027-4.409-.818-3.664-2.52-7.945-4.815-12.03-2.202-3.863-5.148-7.518-8.512-10.685-3.609-3.377-7.171-6.149-11.07-8.363-39.536-25.295-146.622-24.417-253.132 21.964 240.9-177.219 548.659-130.472 616.657-81.479l.279-.325Z"/><path d="m132.34 752.554 1.405-2.464c116.624-200.816 364.132-216.881 410.452-189.438.489.419.966.687 1.525 1.025 1.908 1.072 3.677 2.307 5.494 4.147 1.059.908 1.909 2.06 2.527 3.154.524.873.897 1.757 1.025 2.432.024.302.21.744.246 1.198.059 1.744-.614 3.848-1.81 6.068-4.483 7.866-15.887 15.725-29.888 20.51l-45.11 13.525a16.402 16.402 0 0 0-9.59 7.721c-4.216 7.391-2.812 16.637 3.463 22.017l25.994 22.289.733.629c16.018 13.312 23.083 31.786 17.558 45.815a20.131 20.131 0 0 1-1.637 3.393c-4.75 8.344-13.11 12.322-19.274 14.233l-47.133 13.907c-3.942 1.134-7.453 3.909-9.59 7.721-3.078 5.403-3.177 11.95-.322 17.36l23.302 43.403 1.864 3.433s.268.512.443.803c2.598 4.062 4.823 8.227 6.583 12.276.082.07.093.221.175.291 6.492 15.02 5.931 25.404 3.527 29.692-.407.639-.744 1.196-1.243 1.614-4.533 4.297-17.097 3.119-32.507-7.273-.326-.279-.722-.478-1.117-.676-101.385-64.641-210.561-74.021-333.637-28.44l-2.442.869c-1.256.475-2.593.88-3.849 1.356 5.21-15.146 11.362-29.906 18.224-44.34 4.575-9.623 9.394-19.036 14.539-28.169l.07-.081Z"/><path d="M78.11 922.493C36.898 814.065 55.483 690.316 139.1 589.171 341.786 344.053 720.75 476.124 770.625 204.245c10.153-55.211-11.505-107.787-36.442-144.83a241.244 241.244 0 0 0-27.912-34.235c-38.06-38.56-85.631-60.586-133.793-65.762-.535-.036-1.001-.153-1.617-.258a186.47 186.47 0 0 0-22.44-1.04c-25.462 1.166-50.161 10.182-70.502 27.309-3.594.728-33.329-16.868-100.465-24.487a643.879 643.879 0 0 0-17.857-1.767c11.105 9.806 21.42 20.203 29.609 32.585 11.368 17.085 18.608 35.85 24.673 55.161 2.636 8.47 5.412 16.775 8.118 25.163a599.433 599.433 0 0 1 4.422 15.785 357.438 357.438 0 0 0 8.715 28.919c46.679 159.111 165.79 115.351 165.79 115.351-134.732 151.85-502.402-221.124-781.227 71.727C-467.146 605.079-56.51 1027.88 141.586 1027.72 113.63 995.843 92.3 960.198 78.029 922.423l.082.07Z"/></g><path fill="#FAB202" d="M306.61 321.478 150.702 66.308l326.081-85.272 15.564 293.846-185.737 46.596Z"/><mask id="f" width="390" height="420" x="150" y="-19" maskUnits="userSpaceOnUse" style="mask-type:luminance"><path fill="#fff" d="M499.284 400.198 150.702 66.308l326.081-85.272 8.28 157.226c1.597 31.283 24.105 57.638 54.808 64.211l-40.587 197.725Z"/></mask><g fill="#67B14E" mask="url(#f)"><path d="m679.69 289.907 1.377 4.99c.747 2.757 1.133 5.769 1.147 8.886.026 2.279-.275 4.278-.727 6.29-.533 1.941-1.172 3.51-2.194 5.032l-.743 1.197c-2.208 2.904-5.835 5.155-10.534 6.347-10.734 2.789-26.021-.16-40.987-7.772l-41.14-23.424c-1.909-1.073-4.061-1.366-6.294-.741-4.326 1.088-7.277 5.189-7.017 9.503l2.078 35.505c1.848 24.724-8.568 46.27-25.87 53.586-1.546.649-3.105 1.147-4.593 1.564-9.467 2.465-19.553.871-29.41-4.618l-42.665-24.45c-1.909-1.072-4.212-1.354-6.376-.81-3.058.763-5.604 3.237-6.508 6.271l-16.147 51.482c-1.322 5.499-2.841 10.404-4.617 14.948-6.302 15.761-15.494 26.645-24.74 29.017-1.488.417-3 .531-4.373.483-11.214-.444-20.799-14.166-24.4-35.032l-2.116-12.538-.488.569c-8.443-37.151-21.757-71.425-39.72-101.925.348-1.395.765-2.872 1.101-4.418.707-3.627 1.168-7.464 1.467-11.44l2.079-17.266 15.15 5.089c10.693 3.525 21.382 3.096 30.847-1.345a43.71 43.71 0 0 0 4.883-2.727c15.997-10.411 23.074-31.856 17.53-53.259l-.023-.303 7.342 2.486c14.474 4.228 27.909 3.896 38.118-.755 3.523-1.635 6.697-3.852 9.23-6.477a27.492 27.492 0 0 0 4.95-6.761c.336-.558.777-1.732 1.091-2.592.894-2.197 1.519-4.905 1.831-7.742.242-2.756.1-5.559-.508-8.478-.537-3.001-1.424-5.595-2.531-8.097-10.911-26.852-65.243-64.409-135.514-79.091 184.612-3.397 323.116 129.758 339.99 178.513l.024.303Z"/><path d="m178.789 148.811 1.617-.731c130.287-59.433 260.928 20.559 274.459 50.787.105.372.21.744.467 1.105.547 1.175 1.025 2.432 1.306 4.083.14.826.211 1.733.188 2.419-.104.616-.138 1.151-.406 1.628-.139.162-.197.395-.325.708-.615.883-1.615 1.719-3.08 2.439-5.07 2.284-13.666 2.25-22.381-.284l-27.564-9.244c-2.421-.806-5.142-.6-7.573.421-4.767 2.261-7.333 7.398-6.038 12.318l5.171 20.519s.105.372.117.524c3.326 12.446.359 24.152-7.535 29.236a12.76 12.76 0 0 1-2.047 1.067c-5.36 2.458-11.061 1.521-14.807.284l-28.67-9.769c-2.421-.805-5.073-.681-7.642.502-3.454 1.554-5.859 4.854-6.321 8.69l-3.742 30.09-.347 2.383s-.046.384-.035.535a62.246 62.246 0 0 1-1.016 8.441s-.07.081-.058.233c-2.05 9.811-5.989 14.9-8.78 16.175a9.32 9.32 0 0 1-1.186.394c-3.757.589-9.705-4.512-13.809-15.227a5.185 5.185 0 0 0-.361-.733c-28.152-68.584-79.837-112.197-158.116-133.04l-1.478-.42c-.78-.246-1.629-.409-2.409-.655 8.068-5.78 16.334-10.968 25.008-15.806 5.685-3.168 11.533-6.195 17.405-8.921l-.012-.151Z"/><path d="M90.854 214.925c17.888-69.178 71.278-124.846 149.416-145.89 189.491-51.137 333.603 150.179 455.533 31.233 24.814-24.156 32.577-58.276 33.251-85.776.214-8.989-.411-17.99-1.884-27.155-5.38-32.973-21.701-60.937-44.075-80.686l-.734-.63a149.755 149.755 0 0 0-10.93-8.525c-13.21-8.505-28.975-12.711-45.294-11.324-2.048-.91-10.789-20.398-41.918-48.078l-8.393-7.197c2.137 8.887 3.587 17.75 3.316 26.971-.385 12.651-3.329 24.659-7.122 36.504-1.648 5.219-3.225 10.357-4.872 15.576-1.044 3.197-2.24 6.405-3.447 9.461-2.332 6.184-4.317 11.96-5.928 17.633-33.091 96.637 42.489 117 42.489 117-121.985 28.314-174.515-290.032-419.389-242.08-251.91 49.398-195.484 408.053-95.549 478.506-2.78-25.946-.812-51.491 5.448-75.613l.082.07Z"/></g><path fill="#FAB202" d="m46.226 552.951-62.36-292.456 335.897 27.811-82.865 282.349-190.672-17.704Z"/><mask id="g" width="337" height="432" x="-17" y="260" maskUnits="userSpaceOnUse" style="mask-type:luminance"><path fill="#fff" d="M201.842 691.168-16.134 260.495l335.897 27.811-44.383 151.059c-8.878 30.038 3.605 62.37 30.385 78.763l-103.923 173.04Z"/></mask><g fill="#67B14E" mask="url(#g)"><path d="m408.626 647.018-.358 5.164c-.21 2.849-.846 5.818-1.867 8.763-.733 2.158-1.68 3.945-2.774 5.692-1.148 1.654-2.271 2.922-3.74 4.018l-1.099.883c-3.046 2.006-7.215 2.926-12.043 2.491-11.051-.933-24.492-8.79-36.083-20.938l-31.031-35.753c-1.444-1.645-3.377-2.637-5.691-2.788-4.442-.41-8.587 2.479-9.774 6.635l-9.826 34.18c-6.464 23.936-23.442 40.803-42.191 41.96-1.675.099-3.31.052-4.852-.049-9.748-.818-18.734-5.67-26.21-14.12l-32.129-37.226c-1.444-1.645-3.524-2.676-5.745-2.881-3.138-.295-6.36 1.194-8.221 3.755l-32.322 43.203c-3.071 4.748-6.133 8.87-9.317 12.568-11.177 12.774-23.46 19.99-32.969 19.159-1.542-.101-3.007-.496-4.285-.997-10.431-4.141-14.918-20.267-11.388-41.145l2.166-12.53-.65.375c4.37-37.847 3.189-74.597-3.63-109.331.79-1.2 1.674-2.454 2.504-3.801 1.87-3.187 3.58-6.653 5.182-10.305l7.693-15.596 12.601 9.829c8.916 6.875 19.142 10.019 29.545 8.971a43.685 43.685 0 0 0 5.511-.951c18.546-4.51 32.34-22.39 34.216-44.42l.078-.293 6.101 4.782c12.25 8.793 25.033 12.94 36.207 11.942 3.866-.373 7.595-1.411 10.857-3.046a27.466 27.466 0 0 0 6.913-4.735c.503-.414 1.309-1.375 1.89-2.082 1.572-1.776 3.061-4.123 4.297-6.696a28.855 28.855 0 0 0 2.336-8.165c.489-3.009.514-5.75.3-8.478-1.379-28.951-40.162-82.415-101.575-119.591 175.271 58.079 261.719 229.661 261.451 281.254l-.078.293Z"/><path d="m-17.026 347.644 1.767-.153c142.628-12.812 239.307 106.012 242.036 139.017-.024.386-.049.772.073 1.197.127 1.291.16 2.634-.123 4.286-.142.825-.376 1.704-.626 2.344-.302.546-.512 1.04-.922 1.4-.186.107-.318.307-.542.561-.874.629-2.095 1.085-3.716 1.277-5.54.472-13.638-2.413-21.017-7.697l-22.933-17.87c-2.015-1.563-4.651-2.273-7.282-2.117-5.248.551-9.374 4.544-9.785 9.616l-1.934 21.072s-.025.386-.064.532c-.994 12.845-7.679 22.902-16.813 25.077-.757.189-1.567.285-2.285.327-5.872.54-10.938-2.237-14.062-4.648l-23.801-18.732c-2.016-1.563-4.559-2.326-7.375-2.063-3.774.319-7.138 2.633-8.847 6.099l-13.52 27.141-1.118 2.133s-.17.347-.21.493a62.25 62.25 0 0 1-3.76 7.625s-.093.054-.132.2c-5.192 8.575-10.596 12.067-13.652 12.344-.478.029-.864.003-1.25-.022-3.739-.692-7.657-7.478-7.97-18.948-.015-.239-.03-.479-.098-.811C39.225 463.283 4.949 404.986-61.973 359.34l-1.254-.887c-.654-.491-1.4-.927-2.055-1.417 9.53-2.775 19.049-4.924 28.836-6.609 6.415-1.1 12.937-2.015 19.38-2.637l.04-.146Z"/><path d="M-121.926 380.817c39.839-59.317 108.68-94.105 189.374-88.016C263.169 307.467 332.28 545.207 486.78 473.482c31.425-14.549 50.075-44.156 59.84-69.874 3.185-8.408 5.584-17.105 7.236-26.24 5.872-32.889-.241-64.685-14.79-90.742l-.483-.837a150.077 150.077 0 0 0-7.48-11.67c-9.638-12.408-23.113-21.609-38.967-25.718-1.63-1.538-3.406-22.823-23.58-59.267l-5.529-9.575c-.934 9.093-2.509 17.934-5.825 26.542-4.563 11.806-11.326 22.156-18.836 32.07-3.287 4.376-6.48 8.699-9.767 13.075-2.046 2.669-4.238 5.298-6.392 7.781-4.253 5.058-8.042 9.849-11.446 14.665-63.294 80.172 1.241 124.47 1.241 124.47C287.536 384.376 343.664 66.644 96.758 30.589-157.266-6.441-223.1 350.608-152.22 450.24c5.992-25.398 16.327-48.842 30.24-69.517l.053.093Z"/></g><path fill="#FAA400" d="M607.994 432.044 499.346 215.423c-11.021 6.917 10-58.165 66.033-83.77 49.871-22.707 114.376-44.01 174.877-81.588 27.205-16.885 125.131 257.423 125.131 257.423L608.145 432.033l-.151.011Z"/><mask id="h" width="384" height="384" x="482" y="49" maskUnits="userSpaceOnUse" style="mask-type:luminance"><path fill="#fff" d="M607.993 432.044 482.862 174.621S709.528 82.272 740.105 50.076C759.443 29.832 865.236 307.5 865.236 307.5L607.993 432.044Z"/></mask><g fill="#28BCD9" mask="url(#h)"><path d="M585.19 454.679c42.349-45.1 66.26-103.328 67.718-165.713a249.67 249.67 0 0 0-3.146-46.297c-1.169-7.211.918-14.592 5.74-20.051 4.811-5.611 11.881-8.579 19.198-8.372 10.9.316 20.2 7.444 23.222 17.936l12.951 45.251.245.21.302-.023 31.372-26.858c7.416-6.339 16.893-9.642 26.641-9.467a39.252 39.252 0 0 1 17.941 4.802c14.14 7.75 22.098 23.04 20.379 39.062l-3.937 34.438 43.666-28.167c2.465-1.556 5.035-2.738 7.721-3.398 19.353-43.512 29.955-91.001 30.343-139.77.084-10.652-7.404-19.894-17.909-21.989-8.11-1.591-16.459 1.55-21.583 8.02l-42.98 54.577c-7.134 8.98-21.456 5.729-24.002-5.484l-10.229-45.456c-3.41-15.482-15.972-27.382-31.62-30.076-16.031-2.741-32.031 4.705-40.301 18.637l-28.154 47.676c-5.239 8.912-17.906 9.338-23.892.819l-35.977-51.873c-4.799-6.936-13.549-9.924-21.643-7.411-11.431 3.603-16.875 16.713-11.259 27.313 9.973 18.711 18.366 38.606 25.014 59.545 27.342 86.515 19.3 175.706-15.832 251.968l.011.151Z"/><path d="M876.276 305.675c-1.409-2.478-3.47-4.527-6.1-6.077-1.118-.676-2.293-1.12-3.538-1.482-.081-.069-.163-.139-.465-.116-1.164-.293-2.397-.503-3.537-.493 0 0-.163-.14-.384-.047 0 0-.302.023-.384-.047l-1.361.103a4.695 4.695 0 0 0-.977.15c-.453.034-.977.15-1.349.254a3.251 3.251 0 0 0-.895.22c-.524.115-1.035.382-1.477.568l-.663.278c-.732.359-1.465.719-2.116 1.148l-5.069 3.273-38.597 24.895c-.942.604-1.825.975-2.79 1.276-.373.104-.605.046-.977.15-.675.127-1.28.173-1.885.218-.837-.012-1.605-.106-2.385-.352-.163-.139-.465-.116-.628-.256-.547-.187-1.175-.443-1.734-.781a2.091 2.091 0 0 0-.64-.408c-.57-.489-1.21-.897-1.711-1.467l-.163-.14c-.652-.559-1.013-1.292-1.374-2.025-.163-.14-.187-.442-.28-.663-.268-.512-.397-1.187-.595-1.78-.093-.221-.117-.524-.21-.745-.14-.826-.211-1.733-.061-2.733l3.774-34.578c.3-2.988.228-5.872-.368-8.64-.596-2.768-1.494-5.514-2.834-8.074-1.969-3.805-4.81-7.087-8.209-9.72-1.141-.978-2.409-1.642-3.759-2.377-1.269-.664-2.456-1.258-3.782-1.69-.396-.199-.78-.246-1.175-.444-.861-.315-1.792-.548-2.723-.782-.465-.117-.849-.164-1.315-.281-1-.152-2.001-.305-2.92-.387-.384-.047-.686-.024-1.07-.071 0 0-.233-.059-.302.022-.384-.047-.675.128-1.059.081-1.14.01-2.431.031-3.559.193-.605.046-1.128.161-1.652.277-1.046.231-2.093.462-3.128.845-.593.197-1.116.312-1.628.579-1.035.383-2.058.916-3.081 1.45-.512.267-.954.452-1.465.719-1.454.87-2.825 1.811-4.034 2.89l-31.372 26.858c-.639.58-1.372.94-2.023 1.369-.139.163-.442.186-.663.279l-1.779.591c-.151.011-.372.104-.523.115a9.952 9.952 0 0 1-2.117.16l-.082-.07c-.988-.001-1.919-.234-2.931-.538-.163-.14-.396-.198-.71-.327-.71-.326-1.338-.583-2.06-1.06l-.733-.629c-.571-.489-1.06-.909-1.491-1.56-.244-.21-.489-.419-.594-.792-.524-.873-1.13-1.815-1.363-2.862l-12.951-45.251a14.86 14.86 0 0 0-1.923-4.188c-.862-1.304-1.933-2.363-3.144-3.26-1.141-.978-2.56-1.631-3.968-2.133s-2.956-.841-4.479-.878c-1.14.01-2.199.091-3.246.322-1.046.231-2.011.532-2.965.984-4.779 2.111-8.067 6.77-8.493 12.049-.068 1.069.014 2.128.178 3.256 1.216 7.816 2.212 15.724 2.684 23.748.473 8.024.724 16.141.522 24.293-.628 27.116-5.375 53.1-13.589 77.521-2.715 8.113-5.895 16.109-9.401 23.826-6.931 15.504-15.375 30.134-25.111 43.796-9.736 13.663-20.764 26.359-32.793 37.915-3.254 3.135-4.135 7.46-3.003 11.252.315 1.117.932 2.211 1.608 3.072.687 1.013 1.583 1.781 2.631 2.538l.815.699c.64.408 1.42.653 2.199.898.082.07.163.14.314.129.314.128.629.256 1.013.303 2.931.539 5.851.926 8.841 1.232a260.125 260.125 0 0 0 27.082 2.057c36.421.895 71.277-5.62 103.15-18.221 9.593-3.767 18.837-8.116 27.813-12.977 5.988-3.191 11.801-6.672 17.521-10.374 5.719-3.702 11.276-7.545 16.588-11.596 5.383-4.133 10.602-8.406 15.576-12.888a311.817 311.817 0 0 0 14.575-14.029 287.594 287.594 0 0 0 19.801-23.093 296.363 296.363 0 0 0 8.156-11.49c2.393-3.451 4.623-7.041 6.854-10.632 1.544-2.626 3.089-5.252 4.704-7.959a240.546 240.546 0 0 0 7.026-13.306c2.229-4.579 4.377-9.227 6.362-14.016 1.985-4.788 3.819-9.565 5.489-14.482.14-.163.116-.465.174-.698.557-1.638.812-3.254.833-4.929l.07-.081c-.001-.989-.071-1.896-.293-2.791-.374-1.873-.969-3.653-1.936-5.329l-.209.244Z"/></g><path fill="#F52224" d="M611.558-89.078C628.54-63.37 654.077-45 684.13-37.008c7.458 2.02 15.16 3.262 22.733 3.83 3.594.26 6.934 2.137 9.066 5.093 2.131 2.956 2.809 6.783 1.94 10.27-1.345 5.196-5.925 8.888-11.38 9.15l-23.427.935-.139.163 9.415 18.373c2.237 4.317 2.776 9.294 1.547 14.025-.753 3.023-2.286 5.8-4.39 8.088-5.392 5.959-13.672 8.03-21.259 5.335l-16.278-5.916 8.664 24.36c.489 1.408.747 2.757.701 4.13 18.845 14.465 40.665 25.132 64.237 30.953 5.119 1.285 10.549-1.255 12.755-6.136 1.684-3.777 1.191-8.15-1.417-11.374l-21.509-27.19c-3.54-4.447-.254-11.083 5.458-10.983l23.148.378c7.922.16 15.083-4.563 18.171-11.792 3.146-7.462 1.417-15.999-4.427-21.716l-19.896-19.177c-3.703-3.597-2.51-9.77 2.362-11.66l29.234-11.336c3.907-1.588 6.346-5.422 6.098-9.586-.389-5.977-6.185-10.1-11.93-8.678-10.211 2.674-20.876 4.393-31.693 5.135-45.084 3.107-87.333-11.109-120.298-36.977l-.058.233Z"/><path fill="#F52224" d="M650.335 69.186c1.337-.405 2.57-1.183 3.627-2.251.419-.488.837-.976 1.174-1.534l.139-.162c.267-.477.523-1.105.708-1.65l.07-.082.14-.163c.139-.162.115-.465.104-.616.069-.081.046-.384.116-.465.058-.232.034-.535.022-.686.07-.081-.023-.302-.035-.453-.024-.303-.117-.524-.059-.756 0 0-.023-.303-.105-.373l-.315-1.116-.979-2.816-7.615-21.626s-.234-1.047-.269-1.5c-.012-.152.046-.384.034-.536a3.272 3.272 0 0 1 .081-.918c.046-.384.244-.779.441-1.174l.209-.244.628-.732.209-.244c.279-.325.569-.499.86-.673.36-.256.733-.36 1.105-.464 0 0 .221-.093.372-.104l.907-.069s.303-.023.384.047c.384.047.919.083 1.315.281l16.348 5.835a14.29 14.29 0 0 0 4.247.819c1.372.048 2.884-.066 4.222-.472 2.012-.532 3.988-1.518 5.709-2.865.569-.499 1.069-.917 1.557-1.486l1.325-1.545.418-.488c.279-.325.465-.872.662-1.267.139-.162.197-.395.255-.627.198-.395.383-.942.499-1.407.07-.081.128-.313.116-.465l.07-.081c.07-.081.046-.384.116-.465.104-.616.29-1.163.243-1.767-.024-.303.034-.535.01-.837.035-.535.069-1.07-.047-1.594l-.071-.907c-.117-.523-.164-1.128-.281-1.651-.093-.221-.116-.524-.21-.745-.291-.814-.501-1.559-.944-2.361l-9.415-18.373c-.186-.443-.291-.815-.396-1.187 0 0-.094-.221-.024-.302l-.07-.908-.024-.302c.046-.384.023-.686.15-1 .116-.465.383-.941.581-1.336l.209-.244.697-.813.349-.407c.209-.244.581-.348.872-.522.07-.081.29-.174.442-.186.442-.185.965-.3 1.57-.346l23.426-.937c.756-.057 1.582-.195 2.245-.473.663-.279 1.395-.638 1.965-1.138a7.923 7.923 0 0 0 1.464-1.707c.488-.57.731-1.348.905-2.046 0 0 .22-1.08.255-1.616.034-.535-.083-1.058-.118-1.511a7.172 7.172 0 0 0-4.913-5.483c-.547-.187-1.013-.304-1.617-.258-3.979-.308-7.818-.778-11.82-1.387-4.002-.61-7.876-1.533-11.832-2.527-13.043-3.423-25.099-8.822-35.969-15.603a126.799 126.799 0 0 1-10.452-7.27c-6.716-5.194-12.793-10.97-18.382-17.314-5.508-6.275-10.376-13.13-14.663-20.333a5.447 5.447 0 0 0-5.155-2.727 6.881 6.881 0 0 0-1.722.358c-.593.197-1.093.615-1.523.951l-.348.407-.767.894-.14.163-.348.407c-.581 1.336-1.08 2.743-1.66 4.08-1.578 4.148-2.994 8.438-4.095 12.855-4.568 17.53-5.402 35.158-2.944 52.08.772 5.036 1.777 10.13 3.142 14.97.864 3.28 1.878 6.549 3.033 9.655 1.084 3.188 2.39 6.282 3.695 9.377 1.306 3.095 2.832 6.097 4.428 9.018 1.597 2.92 3.344 5.83 5.161 8.658 2.691 4.282 5.742 8.31 8.863 12.255 1.514 1.863 3.016 3.574 4.599 5.355 1.409 1.49 2.899 3.05 4.308 4.54 1.071 1.06 2.142 2.12 3.365 3.168 1.874 1.607 3.678 3.295 5.704 4.89 1.955 1.678 4.05 3.192 6.076 4.788 2.095 1.514 4.19 3.028 6.425 4.38l.244.21c.722.477 1.501.722 2.281.968.465.116.931.233 1.384.199.919.082 1.896-.067 2.792-.287l.255-.628Z"/></g></svg>