<svg xmlns="http://www.w3.org/2000/svg" fill="none" viewBox="0 0 31 31"><path fill="#686868" d="M15.54 0C6.974-.043.057 6.834 0 15.45-.055 23.98 6.905 30.983 15.458 31c8.57.017 15.498-6.877 15.542-15.466C31.044 6.979 24.14.044 15.54 0Zm12.802 15.522c-.008 7.042-5.782 12.81-12.827 12.813-7.096.004-12.87-5.779-12.859-12.879C2.667 8.42 8.453 2.632 15.485 2.625c7.07-.008 12.866 5.806 12.857 12.897Z"/><path fill="#686868" d="M12.932 15.474c0 1.471-.018 2.942.006 4.413.017 1.01.613 1.346 1.427.77a336.762 336.762 0 0 0 6.122-4.442c.625-.463.622-1.02-.01-1.49a325.333 325.333 0 0 0-6.119-4.446c-.812-.574-1.404-.234-1.42.78-.024 1.472-.006 2.943-.006 4.414Z"/></svg>