<svg xmlns="http://www.w3.org/2000/svg" fill="none" viewBox="0 0 1293 522"><path fill="#FFC124" d="M188.182 233h-.001C166.542 233 149 250.578 149 272.261v.001c0 21.683 17.542 39.261 39.181 39.261h.001c21.64 0 39.181-17.578 39.181-39.261v-.001c0-21.683-17.541-39.261-39.181-39.261Z"/><mask id="a" width="79" height="79" x="149" y="233" maskUnits="userSpaceOnUse" style="mask-type:luminance"><path fill="#fff" d="M188.182 233h-.001C166.542 233 149 250.578 149 272.261v.001c0 21.683 17.542 39.261 39.181 39.261h.001c21.64 0 39.181-17.578 39.181-39.261v-.001c0-21.683-17.541-39.261-39.181-39.261Z"/></mask><g fill="#FC2A4F" mask="url(#a)"><path d="m195.32 189.802 1.386-.056a9.4 9.4 0 0 1 2.402.21 6.213 6.213 0 0 1 1.596.563c.467.246.85.527 1.176.86l.277.249c.64.759 1.018 1.828 1.073 3.12.132 2.975-1.502 6.825-4.365 10.302l-8.467 9.452c-.39.43-.59 1.003-.567 1.612.052 1.199.937 2.198 2.092 2.375l9.432 1.488c6.571.944 11.622 4.906 12.556 9.864.084.437.135.872.152 1.305.116 2.611-.882 5.185-2.878 7.446l-8.829 9.791a2.26 2.26 0 0 0-.569 1.634 2.53 2.53 0 0 0 1.28 2.072l12.573 7.184a29.581 29.581 0 0 1 3.658 2.08c3.781 2.561 6.1 5.611 6.211 8.16.018.41-.022.807-.12 1.183-.745 2.924-4.888 4.648-10.552 4.394l-3.403-.153.141.147c-10.238.101-19.964 1.642-28.966 4.587-.35-.184-.711-.364-1.088-.53a22.147 22.147 0 0 0-2.906-1.035l-4.403-1.554 2.21-3.684c1.535-2.62 2.018-5.442 1.404-8.172a10.875 10.875 0 0 0-.429-1.431c-1.83-4.804-7.039-7.876-12.971-7.654h-.082l1.071-1.796c1.931-3.557 2.616-7.11 1.958-10.05a8.56 8.56 0 0 0-1.163-2.8 7.591 7.591 0 0 0-1.49-1.68 5.538 5.538 0 0 0-.613-.425c-.511-.36-1.19-.691-1.931-.926a8.004 8.004 0 0 0-2.237-.359 9.9 9.9 0 0 0-2.277.207c-7.647 1.324-20.586 13.425-28.404 31.035 9.59-48.649 52.313-77.382 66.062-79.015Z"/><path d="m129.929 313.196-.102-.458c-8.177-37.625 20.181-67.314 28.888-69.144.102-.009.203-.026.305-.051a4.294 4.294 0 0 1 1.134-.114c.238.006.457.039.652.101.163.049.298.112.398.187.041.03.104.071.169.111.208.213.362.532.454.943.33 1.465-.19 3.71-1.354 5.857l-3.992 6.697a2.738 2.738 0 0 0-.306 2.02c.307 1.378 1.518 2.348 2.879 2.305l5.658-.183c.05.002.101.002.152 0 3.443-.159 6.357 1.302 7.24 3.65.076.195.133.394.179.594.35 1.553-.222 2.978-.763 3.902l-4.188 6.976a2.73 2.73 0 0 0-.31 2.025c.221.998.95 1.823 1.901 2.154l7.68 2.707.606.213c.049.016.099.033.148.047a15.85 15.85 0 0 1 2.223.785c2.466 1.105 3.554 2.435 3.735 3.241.026.12.036.231.029.344-.069 1.025-1.733 2.297-4.78 2.745a1.946 1.946 0 0 0-.212.044c-19.57 3.442-33.908 14.52-43.832 33.864l-.196.374c-.106.2-.21.4-.313.604a71.102 71.102 0 0 1-2.719-7.461 69.86 69.86 0 0 1-1.361-5.079h-.002Z"/></g><path fill="#FFC124" d="M1253.75 390.183v-.002c-9.52-19.43-33.03-27.444-52.5-17.9v.001c-19.47 9.544-27.53 33.032-18 52.462v.001c9.52 19.431 33.03 27.445 52.5 17.901v-.001c19.47-9.544 27.53-33.032 18-52.462Z"/><mask id="b" width="79" height="79" x="1179" y="368" maskUnits="userSpaceOnUse" style="mask-type:luminance"><path fill="#fff" d="M1253.75 390.183v-.002c-9.52-19.43-33.03-27.444-52.5-17.9v.001c-19.47 9.544-27.53 33.032-18 52.462v.001c9.52 19.431 33.03 27.445 52.5 17.901v-.001c19.47-9.544 27.53-33.032 18-52.462Z"/></mask><g fill="#FC2A4F" mask="url(#b)"><path d="m1295.68 377.578.66 1.219c.38.678.66 1.412.87 2.249.15.577.21 1.14.2 1.682-.02.527-.1.995-.25 1.434l-.11.358c-.4.908-1.19 1.719-2.33 2.337-2.61 1.428-6.79 1.656-11.17.615l-12.21-3.442a2.258 2.258 0 0 0-1.7.201c-1.05.574-1.56 1.808-1.21 2.924l2.82 9.123c2.04 6.316.71 12.595-3.34 15.617-.35.267-.72.504-1.1.71-2.29 1.254-5.04 1.491-7.95.694l-12.68-3.618a2.26 2.26 0 0 0-1.72.207 2.536 2.536 0 0 0-1.3 2.062l-.91 14.452c.01 1.527-.08 2.906-.26 4.2-.63 4.522-2.35 7.947-4.59 9.168-.36.196-.74.336-1.12.414-2.95.618-6.32-2.343-8.59-7.541l-1.36-3.124-.07.192c-4.59-9.149-10.26-17.204-16.87-23.99.01-.395.02-.799 0-1.211-.04-.984-.16-2.015-.35-3.064l-.54-4.638 4.28.363c3.03.225 5.77-.584 7.95-2.336.39-.312.76-.651 1.1-1.015 3.51-3.758 3.97-9.788 1.16-15.016l-.03-.074 2.08.171c4.05.168 7.54-.78 9.89-2.665a8.526 8.526 0 0 0 2-2.277c.39-.652.67-1.348.85-2.078.05-.177.1-.502.11-.737.1-.617.1-1.372-.01-2.141a8.27 8.27 0 0 0-.67-2.167 9.724 9.724 0 0 0-1.18-1.953c-4.56-6.284-21.12-12.576-40.37-11.844 47.9-12.803 92.51 12.912 100.02 24.539Z"/><path d="m1156.1 373.175.37-.293c30.18-23.904 69.32-11.508 74.8-4.495.05.087.11.171.18.251.23.271.42.58.6.968.1.216.17.427.2.63.03.168.03.316.01.439-.01.05-.02.125-.03.201-.1.281-.32.559-.65.822-1.17.942-3.41 1.463-5.85 1.363l-7.77-.637a2.74 2.74 0 0 0-1.95.614c-1.1.883-1.44 2.397-.8 3.6l2.65 5c.02.046.04.092.07.137 1.66 3.021 1.63 6.281-.09 8.108-.14.153-.3.293-.46.421-1.24.998-2.77 1.112-3.84 1.033l-8.1-.69a2.732 2.732 0 0 0-1.96.613 2.97 2.97 0 0 0-1.1 2.655l.95 8.087.08.638c.01.052.01.104.02.154.15.788.24 1.556.27 2.278 0 .022 0 .041.01.063.09 2.701-.63 4.264-1.27 4.781-.1.076-.19.134-.3.177-.95.39-2.82-.545-4.57-3.083a1.493 1.493 0 0 0-.13-.172c-11.7-16.056-27.96-24.055-49.7-24.451l-.42-.012c-.23-.006-.45-.012-.68-.015a70.48 70.48 0 0 1 5.5-5.725 71.92 71.92 0 0 1 3.96-3.458v-.002Z"/></g><path fill="#72BD65" d="M53 368h-.002C23.728 368 0 391.794 0 421.145v.002c0 29.352 23.728 53.146 52.998 53.146H53c29.27 0 52.998-23.794 52.998-53.146v-.002C105.998 391.794 82.27 368 53 368Z"/><mask id="c" width="106" height="107" x="0" y="368" maskUnits="userSpaceOnUse" style="mask-type:luminance"><path fill="#fff" d="M53 368h-.002C23.728 368 0 391.794 0 421.145v.002c0 29.352 23.728 53.146 52.998 53.146H53c29.27 0 52.998-23.794 52.998-53.146v-.002C105.998 391.794 82.27 368 53 368Z"/></mask><g mask="url(#c)"><path fill="#005B9F" d="M44.475 249.702C67 266.179 79.509 293.649 75.957 325.113c-8.612 76.28-102.192 99.631-76.545 161.145 5.214 12.506 16.459 20.261 26.33 24.467a56.659 56.659 0 0 0 10.108 3.226c12.726 2.78 25.183.931 35.56-4.361.114-.06.233-.112.348-.171a49.68 49.68 0 0 0 4.663-2.756c4.97-3.586 8.759-8.686 10.6-14.819.627-.633 8.921-.994 23.417-8.307a120.233 120.233 0 0 0 3.819-2.006c-3.531-.517-6.955-1.26-10.245-2.681-4.524-1.958-8.456-4.782-12.208-7.882-1.635-1.353-3.295-2.676-4.947-4.01-1-.854-1.989-1.722-2.956-2.615a84.084 84.084 0 0 0-5.539-4.683c-30.283-25.984-48.505-1.435-48.505-1.435 7.184-48.475 130.1-21.633 147.756-117.604 18.169-98.737-119.915-129.99-159.757-103.803 9.805 2.748 18.78 7.152 26.619 12.885v-.001Z"/></g><path fill="#A3A3A3" d="M385.737 272C373.179 272 363 282.162 363 294.698v.001c0 12.536 10.179 22.699 22.737 22.699 12.557 0 22.737-10.163 22.737-22.699v-.001c0-12.536-10.18-22.698-22.737-22.698Z"/><mask id="d" width="46" height="46" x="363" y="272" maskUnits="userSpaceOnUse" style="mask-type:luminance"><path fill="#fff" d="M385.741 272h-.001c-12.557 0-22.736 10.162-22.736 22.698v.001c0 12.536 10.179 22.699 22.736 22.699h.001c12.557 0 22.737-10.163 22.737-22.699v-.001c0-12.536-10.18-22.698-22.737-22.698Z"/></mask><g mask="url(#d)"><path fill="#004891" d="m422.729 229.828 1.227-.01a8.346 8.346 0 0 1 2.12.253c.511.125.98.307 1.397.541.406.23.736.49 1.016.793l.239.227c.544.688.848 1.64.86 2.782.032 2.626-1.523 5.974-4.155 8.958l-7.76 8.092a1.986 1.986 0 0 0-.548 1.405c.012 1.059.767 1.965 1.783 2.154l8.303 1.579c5.788 1.019 10.145 4.656 10.831 9.053.062.388.094.772.098 1.155.027 2.306-.929 4.546-2.759 6.482l-8.091 8.381c-.362.374-.558.88-.55 1.425a2.23 2.23 0 0 0 1.074 1.863l10.921 6.691a26.227 26.227 0 0 1 3.179 1.939c3.272 2.365 5.237 5.119 5.263 7.369a3.57 3.57 0 0 1-.139 1.04c-.743 2.556-4.457 3.958-9.463 3.573l-3.007-.231.121.134c-9.062-.203-17.712.879-25.762 3.219a15.916 15.916 0 0 0-.947-.498 19.798 19.798 0 0 0-2.542-.995l-3.853-1.494 2.061-3.185c1.433-2.266 1.941-4.74 1.475-7.165a9.542 9.542 0 0 0-.34-1.274c-1.483-4.287-6.004-7.144-11.259-7.117l-.073-.001 1-1.555c1.809-3.08 2.517-6.193 2.018-8.805a7.507 7.507 0 0 0-.951-2.502 6.668 6.668 0 0 0-1.27-1.523 4.904 4.904 0 0 0-.53-.392c-.441-.332-1.034-.644-1.682-.871a7.191 7.191 0 0 0-1.97-.38 8.791 8.791 0 0 0-2.02.118c-6.804.949-18.596 11.249-26.017 26.552 9.869-42.618 48.49-66.732 60.701-67.781l.001.001Z"/><path fill="#004891" d="m361.36 336.749-.077-.407c-6.167-33.402 19.771-58.769 27.527-60.134.091-.005.18-.017.271-.036a3.798 3.798 0 0 1 1.007-.068c.21.011.402.047.573.106.143.049.259.109.347.177.036.028.09.066.146.102.179.194.306.48.375.845.25 1.301-.272 3.266-1.364 5.125l-3.723 5.791a2.407 2.407 0 0 0-.328 1.771c.233 1.224 1.276 2.113 2.482 2.114h5.01c.045.004.09.004.136.004 3.051-.042 5.587 1.328 6.303 3.424.061.175.106.351.14.529.265 1.378-.282 2.62-.786 3.418l-3.904 6.031a2.399 2.399 0 0 0-.332 1.777c.167.886.79 1.634 1.621 1.953l6.719 2.606.53.205c.043.017.086.032.13.046a14.023 14.023 0 0 1 1.944.756c2.152 1.045 3.075 2.249 3.213 2.964.02.106.025.205.016.303-.09.903-1.598 1.976-4.308 2.285a2.011 2.011 0 0 0-.189.031c-17.414 2.478-30.416 11.836-39.747 28.608l-.184.324c-.1.173-.197.346-.294.524a62.47 62.47 0 0 1-2.193-6.655 61.178 61.178 0 0 1-1.06-4.517l-.001-.002Z"/><path fill="#72BD65" d="M371.503 360.8c-14.897-8.12-24.618-23.638-24.96-42.827-.828-46.519 53.811-67.951 33.472-102.887-4.135-7.103-11.536-10.875-17.826-12.621a34.643 34.643 0 0 0-6.356-1.139c-7.901-.664-15.275 1.432-21.119 5.433-.066.045-.132.086-.198.131a30.461 30.461 0 0 0-2.597 2.025c-2.716 2.548-4.601 5.912-5.227 9.743-.329.429-5.307 1.303-13.479 6.844-.696.472-1.406.966-2.147 1.508 2.172.032 4.298.207 6.396.801 2.885.818 5.483 2.205 7.992 3.772 1.094.683 2.201 1.347 3.303 2.019.672.433 1.336.877 1.991 1.337a50.45 50.45 0 0 0 3.713 2.376c20.331 13.219 29.39-2.974 29.39-2.974-.507 29.697-76.819 23.289-79.895 82.357-3.163 60.767 82.653 68.627 104.632 49.74-6.136-.876-11.901-2.813-17.085-5.638Z"/></g><path fill="#72BD65" d="M228.899 408h-.002C197.474 408 172 433.431 172 464.802v.002c0 31.371 25.474 56.802 56.897 56.802h.002c31.424 0 56.898-25.431 56.898-56.802v-.002c0-31.371-25.474-56.802-56.898-56.802Z"/><mask id="e" width="114" height="114" x="172" y="408" maskUnits="userSpaceOnUse" style="mask-type:luminance"><path fill="#fff" d="M228.899 408h-.002C197.474 408 172 433.431 172 464.802v.002c0 31.371 25.474 56.802 56.897 56.802h.002c31.424 0 56.898-25.431 56.898-56.802v-.002c0-31.371-25.474-56.802-56.898-56.802Z"/></mask><g fill="#FC2A4F" mask="url(#e)"><path d="m246.718 443.709-.193-1.018c-15.431-83.588 49.477-147.068 68.886-150.483.227-.014.45-.044.68-.091.769-.165 1.569-.217 2.518-.169a5.149 5.149 0 0 1 1.434.266c.359.121.649.271.869.442.089.071.225.165.366.256.446.485.765 1.201.938 2.114.626 3.256-.681 8.172-3.414 12.826l-9.315 14.49c-.831 1.285-1.124 2.864-.823 4.433.584 3.063 3.195 5.287 6.211 5.291h12.539c.111.008.225.01.339.01 7.635-.106 13.982 3.323 15.773 8.567.154.438.265.879.351 1.323.663 3.45-.705 6.557-1.966 8.554l-9.77 15.093c-.832 1.263-1.135 2.856-.83 4.447.416 2.217 1.976 4.089 4.056 4.888l16.813 6.519 1.327.516c.108.041.215.079.325.113a34.703 34.703 0 0 1 4.737 1.836l.127.057c5.385 2.616 7.696 5.629 8.041 7.416.05.265.063.514.04.76-.226 2.257-3.999 4.944-10.78 5.716a4.784 4.784 0 0 0-.474.08c-43.576 6.199-76.114 29.619-99.466 71.588l-.46.812a67.92 67.92 0 0 0-.735 1.312c-2.155-5.449-3.964-11.023-5.488-16.656-1.016-3.747-1.929-7.515-2.654-11.302l-.002-.006Z"/><path d="M272.105 503.896c-37.28-20.319-61.606-59.153-62.461-107.172-2.074-116.413 134.661-170.047 83.761-257.473-10.347-17.774-28.868-27.212-44.61-31.582a86.655 86.655 0 0 0-15.905-2.852c-19.77-1.66-38.223 3.584-52.849 13.598-.164.111-.331.214-.494.328a76.285 76.285 0 0 0-6.501 5.065c-6.797 6.376-11.512 14.795-13.08 24.383-.823 1.074-13.28 3.26-33.731 17.128a180.935 180.935 0 0 0-5.373 3.772c5.437.08 10.756.517 16.007 2.005 7.22 2.047 13.72 5.517 19.999 9.439 2.737 1.71 5.508 3.371 8.266 5.051a152.494 152.494 0 0 1 4.982 3.348 127.085 127.085 0 0 0 9.291 5.946c50.879 33.08 73.55-7.442 73.55-7.442-1.269 74.314-192.24 58.278-199.935 206.094-7.917 152.067 206.836 171.736 261.837 124.473-15.356-2.192-29.781-7.039-42.754-14.109Z"/></g><path fill="#FC2A4F" d="M700.511 453C689.183 453 680 462.195 680 473.537c0 11.343 9.183 20.537 20.511 20.537s20.511-9.194 20.511-20.537c0-11.342-9.183-20.537-20.511-20.537Z"/><mask id="f" width="42" height="42" x="680" y="453" maskUnits="userSpaceOnUse" style="mask-type:luminance"><path fill="#fff" d="M700.511 453C689.183 453 680 462.195 680 473.537c0 11.343 9.183 20.537 20.511 20.537s20.511-9.194 20.511-20.537c0-11.342-9.183-20.537-20.511-20.537Z"/></mask><g fill="#004891" mask="url(#f)"><path d="m737.095 466.676.614-.005a4.15 4.15 0 0 1 1.06.127c.256.062.491.154.7.272.203.115.368.246.508.397l.119.115c.273.345.426.823.431 1.396.016 1.319-.762 2.999-2.079 4.497l-3.885 4.062a.995.995 0 0 0-.274.705c.006.532.383.986.893 1.082l4.155.793c2.897.511 5.078 2.337 5.422 4.545.03.195.047.387.048.579.014 1.158-.464 2.283-1.381 3.255l-4.049 4.208a.993.993 0 0 0-.275.714c.003.374.207.736.538.936l5.466 3.359c.599.314 1.121.634 1.591.972 1.638 1.188 2.621 2.571 2.634 3.7.002.181-.022.357-.07.522-.372 1.283-2.231 1.987-4.736 1.794l-1.505-.117.06.068c-4.535-.101-8.865.441-12.895 1.617a7.292 7.292 0 0 0-.474-.251 9.874 9.874 0 0 0-1.272-.499l-1.928-.75 1.031-1.599c.717-1.137.972-2.379.738-3.597a4.779 4.779 0 0 0-.17-.639c-.743-2.153-3.005-3.587-5.635-3.573h-.037l.501-.781c.905-1.547 1.259-3.109 1.009-4.42a3.767 3.767 0 0 0-.475-1.256 3.4 3.4 0 0 0-.636-.766 2.77 2.77 0 0 0-.265-.196 3.168 3.168 0 0 0-.842-.437 3.563 3.563 0 0 0-.986-.191 4.433 4.433 0 0 0-1.011.059c-3.406.477-9.309 5.648-13.022 13.33 4.94-21.394 24.271-33.5 30.383-34.027h.001Z"/><path d="m706.376 520.351-.039-.204c-3.086-16.768 9.897-29.503 13.779-30.188a1.08 1.08 0 0 0 .136-.018c.153-.033.314-.044.504-.034.105.006.202.024.287.054.072.024.13.054.174.088l.073.052a.864.864 0 0 1 .188.424c.125.653-.137 1.639-.683 2.573l-1.863 2.908a1.214 1.214 0 0 0-.165.889c.117.615.639 1.061 1.243 1.061h2.507c.023.002.045.002.068.002 1.527-.021 2.797.667 3.155 1.719.031.088.053.176.07.265.133.693-.141 1.315-.393 1.717l-1.954 3.028a1.209 1.209 0 0 0-.167.891c.083.445.395.821.811.981l3.363 1.308.266.103.066.023a6.914 6.914 0 0 1 .973.379c1.077.525 1.539 1.129 1.608 1.488a.53.53 0 0 1 .007.153c-.045.453-.8.991-2.155 1.146a.724.724 0 0 0-.095.016c-8.716 1.244-15.225 5.942-19.896 14.36l-.091.163-.148.263a31.739 31.739 0 0 1-1.098-3.341 31.028 31.028 0 0 1-.53-2.268l-.001-.001Z"/><path d="M711.453 532.425c-7.457-4.076-12.322-11.866-12.493-21.499-.415-23.353 26.934-34.113 16.753-51.652-2.069-3.565-5.774-5.459-8.923-6.335a17.215 17.215 0 0 0-3.181-.572c-3.955-.334-7.645.719-10.571 2.728l-.098.065c-.453.316-.887.656-1.3 1.016a8.593 8.593 0 0 0-2.616 4.891c-.165.216-2.657.654-6.747 3.436-.349.236-.704.484-1.075.756 1.088.016 2.152.104 3.202.402 1.444.411 2.744 1.107 4 1.893.548.343 1.102.676 1.653 1.013.336.218.669.441.997.672.64.452 1.257.842 1.858 1.193 10.177 6.636 14.711-1.493 14.711-1.493-.253 14.91-38.451 11.694-39.99 41.346-1.584 30.506 41.371 34.452 52.372 24.97a25.26 25.26 0 0 1-8.552-2.83Z"/></g><path fill="#000" d="M978.887 272h-.002C948.021 272 923 297.072 923 327.999v.002C923 358.928 948.021 384 978.885 384h.002c30.863 0 55.883-25.072 55.883-55.999v-.002c0-30.927-25.02-55.999-55.883-55.999Z"/><mask id="g" width="112" height="113" x="923" y="272" maskUnits="userSpaceOnUse" style="mask-type:luminance"><path fill="#fff" d="M978.887 272h-.002C948.021 272 923 297.072 923 327.999v.002C923 358.929 948.021 384 978.885 384h.002c30.863 0 55.883-25.071 55.883-55.999v-.002c0-30.927-25.02-55.999-55.883-55.999Z"/></mask><g fill="#A3A3A3" mask="url(#g)"><path d="m989.063 210.386 1.976-.081a13.371 13.371 0 0 1 3.426.3 8.88 8.88 0 0 1 2.278.802 6.652 6.652 0 0 1 1.677 1.228l.395.354c.912 1.083 1.455 2.608 1.535 4.451.18 4.243-2.147 9.735-6.231 14.694l-12.077 13.481c-.555.614-.841 1.432-.808 2.3.075 1.71 1.337 3.135 2.984 3.388l13.453 2.122c9.369 1.347 16.579 6.997 17.909 14.069.12.624.19 1.244.22 1.861.16 3.725-1.26 7.396-4.11 10.621l-12.591 13.966a3.219 3.219 0 0 0-.812 2.329 3.612 3.612 0 0 0 1.823 2.957l17.94 10.247c1.96.949 3.67 1.925 5.21 2.966 5.4 3.653 8.7 8.004 8.86 11.639a5.55 5.55 0 0 1-.17 1.688c-1.06 4.17-6.97 6.629-15.05 6.266l-4.85-.217.2.209c-14.605.144-28.478 2.341-41.318 6.543a24.85 24.85 0 0 0-1.552-.757 31.762 31.762 0 0 0-4.144-1.476l-6.281-2.216 3.152-5.254c2.19-3.737 2.879-7.763 2.004-11.656a15.738 15.738 0 0 0-.612-2.042c-2.611-6.852-10.04-11.234-18.501-10.917h-.117l1.528-2.562c2.753-5.073 3.731-10.141 2.792-14.335-.331-1.468-.892-2.817-1.659-3.994a10.806 10.806 0 0 0-2.125-2.396 7.997 7.997 0 0 0-.875-.606c-.728-.513-1.696-.986-2.753-1.321a11.496 11.496 0 0 0-3.191-.512 14.228 14.228 0 0 0-3.249.296c-10.906 1.888-29.362 19.148-40.513 44.267 13.679-69.391 74.617-110.373 94.227-112.702Z"/><path d="m895.795 386.386-.145-.653c-11.663-53.665 28.785-96.012 41.205-98.622.144-.014.289-.037.434-.072.491-.124 1.006-.173 1.618-.163.339.008.652.055.93.143.233.071.424.161.567.267.059.043.149.102.241.158.297.304.516.759.647 1.345.472 2.091-.27 5.292-1.931 8.355l-5.694 9.552c-.507.847-.663 1.873-.436 2.881.438 1.966 2.166 3.348 4.107 3.288l8.069-.261c.073.002.145.002.218 0 4.911-.228 9.067 1.857 10.327 5.206.108.278.19.562.254.847.499 2.215-.316 4.248-1.087 5.566l-5.974 9.95c-.509.834-.671 1.869-.442 2.888a4.236 4.236 0 0 0 2.712 3.073l10.953 3.86.865.304c.07.024.141.047.211.067 1.104.304 2.143.671 3.086 1.086.029.012.055.024.084.034 3.518 1.576 5.07 3.474 5.328 4.623.037.17.051.329.041.49-.097 1.463-2.471 3.276-6.817 3.915a2.859 2.859 0 0 0-.303.063c-27.912 4.91-48.364 20.711-62.519 48.302l-.279.533c-.151.286-.3.57-.447.863-1.5-3.475-2.778-7.037-3.878-10.643-.732-2.4-1.397-4.813-1.941-7.245h-.004Z"/></g><path fill="#00CAEC" d="M1214.77 82c-42.95 0-77.77 34.865-77.77 77.872v.003c0 43.008 34.82 77.872 77.77 77.872 42.95 0 77.76-34.864 77.76-77.872v-.003c0-43.007-34.81-77.872-77.76-77.872Z"/><mask id="h" width="156" height="156" x="1137" y="82" maskUnits="userSpaceOnUse" style="mask-type:luminance"><path fill="#fff" d="M1214.77 82c-42.95 0-77.77 34.865-77.77 77.872v.003c0 43.008 34.82 77.872 77.77 77.872 42.95 0 77.76-34.864 77.76-77.872v-.003c0-43.007-34.81-77.872-77.76-77.872Z"/></mask><g mask="url(#h)"><path fill="#FC2A4F" d="M1267.39 357.471c-31.59-17.267-52.2-50.266-52.92-91.071-1.76-98.924 114.08-144.5 70.96-218.792-8.77-15.105-24.46-23.124-37.79-26.837a73.327 73.327 0 0 0-13.48-2.424c-16.75-1.413-32.38 3.045-44.77 11.555-.14.095-.28.182-.42.278a63.791 63.791 0 0 0-5.5 4.305c-5.76 5.418-9.76 12.572-11.09 20.719-.69.913-11.25 2.77-28.57 14.554a146.05 146.05 0 0 0-4.55 3.206c4.6.069 9.11.44 13.56 1.704 6.11 1.74 11.62 4.69 16.94 8.022 2.32 1.453 4.66 2.865 7 4.291 1.42.922 2.83 1.865 4.22 2.844 2.71 1.914 5.32 3.566 7.87 5.052 43.1 28.111 62.31-6.322 62.31-6.322-1.07 63.151-162.86 49.524-169.38 175.132-6.71 129.224 175.23 145.937 221.82 105.773-13-1.862-25.22-5.982-36.22-11.989h.01Z"/></g><path fill="#FFC124" d="M979.216 4h-.001C957.557 4 940 21.559 940 43.219v.001c0 21.66 17.557 39.219 39.215 39.219h.001c21.654 0 39.214-17.56 39.214-39.219v-.001c0-21.66-17.56-39.219-39.214-39.219Z"/><mask id="i" width="79" height="79" x="940" y="4" maskUnits="userSpaceOnUse" style="mask-type:luminance"><path fill="#fff" d="M979.216 4h-.001C957.557 4 940 21.559 940 43.219v.001c0 21.66 17.557 39.219 39.215 39.219h.001c21.654 0 39.214-17.56 39.214-39.219v-.001c0-21.66-17.56-39.219-39.214-39.219Z"/></mask><g fill="#72BD65" mask="url(#i)"><path d="m1043.02-68.865 2.11-.018c1.18-.016 2.38.125 3.66.438.88.216 1.69.53 2.41.935.7.397 1.27.846 1.75 1.37l.41.392c.94 1.188 1.47 2.834 1.49 4.806.05 4.538-2.63 10.322-7.17 15.478l-13.39 13.982c-.61.637-.95 1.5-.94 2.427.02 1.83 1.32 3.395 3.08 3.722l14.32 2.728c9.98 1.76 17.49 8.046 18.68 15.642.1.67.16 1.334.17 1.995.04 3.985-1.61 7.856-4.76 11.2l-13.96 14.482c-.62.645-.96 1.52-.95 2.46a3.873 3.873 0 0 0 1.86 3.22l18.83 11.561c2.07 1.082 3.87 2.184 5.48 3.35 5.65 4.086 9.04 8.845 9.08 12.733.01.623-.07 1.227-.24 1.796-1.28 4.417-7.68 6.84-16.32 6.173l-5.19-.4.21.233c-15.63-.35-30.55 1.519-44.43 5.563-.53-.298-1.07-.59-1.63-.861a34.28 34.28 0 0 0-4.39-1.72l-6.64-2.581 3.55-5.504c2.47-3.915 3.35-8.19 2.55-12.379-.15-.744-.34-1.476-.59-2.2-2.56-7.408-10.36-12.344-19.419-12.297l-.126-.003 1.724-2.686c3.12-5.322 4.342-10.701 3.481-15.213-.303-1.58-.857-3.039-1.639-4.323a11.565 11.565 0 0 0-2.192-2.632 8.438 8.438 0 0 0-.914-.677c-.761-.574-1.782-1.112-2.901-1.505a12.323 12.323 0 0 0-3.397-.657 15.15 15.15 0 0 0-3.485.204c-11.735 1.64-32.074 19.437-44.872 45.877 17.022-73.636 83.63-115.301 104.69-117.112l.01.001Z"/><path d="m937.166 115.874-.133-.703c-10.635-57.713 34.101-101.543 47.478-103.9.157-.01.31-.03.468-.063.53-.114 1.082-.15 1.736-.117.362.02.694.081.988.184.247.084.448.187.599.305.062.05.155.114.253.177.307.335.527.83.646 1.46.431 2.247-.469 5.642-2.353 8.855l-6.42 10.005c-.573.887-.775 1.977-.567 3.06.402 2.115 2.202 3.65 4.281 3.653h8.642c.076.006.155.007.233.007 5.263-.073 9.633 2.295 10.873 5.916.1.302.18.606.24.913.46 2.382-.49 4.527-1.35 5.906l-6.738 10.42c-.574.873-.783 1.972-.573 3.07a4.53 4.53 0 0 0 2.796 3.376l11.585 4.501.92.356c.07.029.15.055.22.078 1.17.363 2.27.79 3.27 1.268.03.013.06.027.08.04 3.72 1.805 5.31 3.885 5.55 5.12.03.183.04.354.02.525-.15 1.558-2.75 3.413-7.43 3.946-.11.012-.21.032-.32.055-30.037 4.28-52.462 20.45-68.557 49.428l-.317.56c-.172.3-.339.599-.507.906a107.947 107.947 0 0 1-3.782-11.5c-.701-2.587-1.329-5.189-1.829-7.803l-.002-.004Z"/><path d="M954.663 157.429c-25.694-14.029-42.46-40.841-43.049-73.996-1.43-80.376 92.806-117.408 57.73-177.77-7.132-12.272-19.897-18.789-30.746-21.806a59.682 59.682 0 0 0-10.962-1.969c-13.626-1.146-26.345 2.475-36.425 9.388-.113.077-.228.149-.341.227a52.74 52.74 0 0 0-4.48 3.497c-4.685 4.403-7.935 10.215-9.015 16.835-.567.742-9.153 2.25-23.248 11.826-1.2.814-2.425 1.668-3.703 2.605 3.746.055 7.412.357 11.032 1.384 4.976 1.413 9.456 3.809 13.784 6.517 1.886 1.18 3.796 2.327 5.696 3.488 1.159.75 2.306 1.516 3.434 2.31a87.63 87.63 0 0 0 6.404 4.106c35.067 22.84 50.692-5.138 50.692-5.138-.875 51.31-132.495 40.238-137.799 142.296-5.457 104.994 142.555 118.574 180.463 85.941-10.583-1.513-20.525-4.859-29.467-9.741Z"/></g><path fill="#A3A3A3" d="M576.115 0h-.002C554.512 0 537 17.56 537 39.222v.001c0 21.662 17.512 39.222 39.113 39.222h.002c21.601 0 39.113-17.56 39.113-39.222v-.001C615.228 17.56 597.716 0 576.115 0Z"/><mask id="j" width="79" height="79" x="537" y="0" maskUnits="userSpaceOnUse" style="mask-type:luminance"><path fill="#fff" d="M576.115 0h-.002C554.512 0 537 17.56 537 39.222v.001c0 21.662 17.512 39.222 39.113 39.222h.002c21.601 0 39.113-17.56 39.113-39.222v-.001C615.228 17.56 597.716 0 576.115 0Z"/></mask><g mask="url(#j)"><path fill="#FFC124" d="M569.823-87.306c16.624 12.16 25.856 32.434 23.235 55.655-6.356 56.296-75.419 73.529-56.492 118.926 3.848 9.23 12.147 14.954 19.433 18.058a41.9 41.9 0 0 0 7.459 2.381c9.392 2.052 18.585.686 26.243-3.219.085-.044.173-.083.258-.126a36.75 36.75 0 0 0 3.441-2.034c3.668-2.647 6.464-6.41 7.822-10.937.463-.467 6.585-.733 17.283-6.13.911-.46 1.842-.944 2.818-1.48-2.606-.382-5.132-.93-7.56-1.98-3.339-1.444-6.241-3.529-9.01-5.817-1.207-.998-2.432-1.975-3.651-2.96a75.325 75.325 0 0 1-2.182-1.929 62.2 62.2 0 0 0-4.087-3.456c-22.35-19.176-35.798-1.059-35.798-1.059 5.302-35.775 96.016-15.966 109.046-86.793 13.408-72.869-88.499-95.934-117.903-76.608 7.237 2.028 13.861 5.279 19.645 9.51v-.002Z"/></g><path fill="#FFC124" d="M195.891 3.74h-.002c-37.615 0-68.108 30.684-68.108 68.535v.002c0 37.851 30.493 68.535 68.108 68.535h.002c37.615 0 68.108-30.684 68.108-68.535v-.002c0-37.85-30.493-68.535-68.108-68.535Z"/><mask id="k" width="137" height="138" x="127" y="3" maskUnits="userSpaceOnUse" style="mask-type:luminance"><path fill="#fff" d="M195.891 3.74h-.002c-37.615 0-68.108 30.684-68.108 68.535v.002c0 37.851 30.493 68.535 68.108 68.535h.002c37.615 0 68.108-30.684 68.108-68.535v-.002c0-37.85-30.493-68.535-68.108-68.535Z"/></mask><g fill="#004891" mask="url(#k)"><path d="m129.126-49.298.561-2.25c.305-1.258.782-2.49 1.461-3.761a10.47 10.47 0 0 1 1.646-2.301 7.662 7.662 0 0 1 1.924-1.483l.527-.329c1.51-.67 3.391-.773 5.478-.252 4.802 1.193 10.17 5.632 14.367 11.873l11.086 18.065c.503.83 1.324 1.422 2.304 1.672 1.936.482 3.942-.468 4.769-2.241l6.801-14.455c4.59-10.117 13.278-16.366 21.617-15.526.736.072 1.452.195 2.151.37 4.218 1.048 7.85 3.863 10.516 8.137l11.458 18.806c.51.842 1.34 1.44 2.337 1.684 1.359.34 2.869-.062 3.906-1.08l17.355-16.816c1.708-1.893 3.363-3.501 5.034-4.898 5.857-4.869 11.807-7.153 15.92-6.13a6.665 6.665 0 0 1 1.829.748c4.311 2.577 5.11 10.047 2.046 19.029l-1.843 5.396.3-.156c-4.647 16.5-6.763 32.856-6.295 48.71-.458.475-.914.97-1.357 1.497a37.418 37.418 0 0 0-3.014 4.18l-4.543 6.345-4.834-5.291c-3.453-3.703-7.723-5.81-12.364-6.112a17.855 17.855 0 0 0-2.482.017c-8.516.674-15.858 7.594-18.29 17.231l-.036.132-2.361-2.57c-4.762-4.78-10.101-7.556-15.097-7.887-1.75-.113-3.441.072-5.01.55-1.207.366-2.34.901-3.377 1.602a9.07 9.07 0 0 0-.963.785c-.813.65-1.662 1.586-2.383 2.666a13.623 13.623 0 0 0-1.623 3.426c-.406 1.308-.649 2.532-.74 3.756-1.483 12.912 11.726 39.41 36.118 60.282-73.032-38.355-98.755-120.558-94.899-143.421Z"/><path d="m295.055 113.985-.778-.053c-63.803-4.607-97.796-64.182-96.623-79.035.034-.169.053-.339.062-.514.024-.595.139-1.19.351-1.877.119-.379.277-.715.465-.998.157-.24.319-.424.486-.552.07-.052.163-.134.258-.22.439-.236 1.018-.332 1.717-.284 2.489.161 5.823 2.055 8.699 4.939l8.797 9.572c.78.852 1.874 1.368 3.074 1.444 2.341.156 4.454-1.331 5.027-3.539l2.365-9.176c.026-.08.05-.163.072-.245 1.364-5.608 5.06-9.6 9.216-9.913a7.032 7.032 0 0 1 1.03-.004c2.638.17 4.643 1.763 5.862 3.066l9.15 10.021c.763.85 1.867 1.375 3.081 1.454a4.918 4.918 0 0 0 4.325-2.037l7.922-11.065.625-.873c.05-.07.098-.142.143-.216a26.393 26.393 0 0 1 2.23-3.117c.021-.029.045-.055.064-.082 2.921-3.443 5.551-4.561 6.92-4.473.203.013.384.05.56.116 1.603.595 2.848 3.865 2.13 8.974-.017.12-.026.24-.031.363-3.706 33.068 7.213 61.335 33.38 86.406l.506.492c.269.264.539.526.818.787-4.376.54-8.778.804-13.168.85-2.922.031-5.838-.019-8.735-.209v-.002Z"/><path d="M343.695 106.853c-21.839 23.418-54.716 33.832-89.858 25.326C168.644 111.554 155.376 1.29 82.084 21.908c-14.902 4.192-25.27 15.95-31.425 26.637a65.627 65.627 0 0 0-5.079 11.099c-4.941 14.152-4.602 28.653-.067 41.263.05.142.096.283.146.422a57.619 57.619 0 0 0 2.463 5.721c3.362 6.186 8.606 11.24 15.293 14.21.627.807-.132 10.338 6.111 27.941a137.553 137.553 0 0 0 1.734 4.651c1.083-3.964 2.406-7.773 4.48-11.331 2.855-4.893 6.609-8.992 10.65-12.84 1.763-1.678 3.496-3.389 5.24-5.088 1.106-1.024 2.23-2.03 3.379-3.009a95.917 95.917 0 0 0 6.085-5.668c33.7-30.942 8.459-55.238 8.459-55.238 53.897 15.065 6.178 151.767 112.404 185.515C331.237 280.91 386.091 127.495 362.04 78.255c-4.493 10.82-10.748 20.454-18.345 28.603v-.005Z"/></g></svg>