<svg xmlns="http://www.w3.org/2000/svg" xml:space="preserve" viewBox="-271 345.8 256 111.2"><path d="M-238.4 398.1c-.8 0-1.4.6-1.5 1.5l-2.3 28 2.3 27.1c.1.8.7 1.5 1.5 1.5s1.4-.6 1.5-1.5l2.6-27.1-2.6-28c-.1-.9-.8-1.5-1.5-1.5zM-228.2 399.9c-.9 0-1.7.7-1.7 1.7l-2.1 26 2.1 27.3c.1 1 .8 1.7 1.7 1.7.9 0 1.6-.7 1.7-1.7l2.4-27.3-2.4-26c-.1-1-.8-1.7-1.7-1.7zM-258.6 403.5c-.5 0-1 .4-1.1 1l-2.5 23 2.5 22.5c.1.6.5 1 1.1 1 .5 0 1-.4 1.1-1l2.9-22.5-2.9-23c-.2-.5-.6-1-1.1-1zM-268.1 412.3c-.5 0-1 .4-1 1l-1.9 14.3 1.9 14c.1.6.5 1 1 1s.9-.4 1-1l2.2-14-2.2-14.2c-.1-.6-.5-1.1-1-1.1zM-207.5 373.5c-1.2 0-2.1.9-2.2 2.1l-1.9 52 1.9 27.2c.1 1.2 1 2.1 2.2 2.1s2.1-.9 2.2-2.1l2.1-27.2-2.1-52c-.1-1.2-1.1-2.1-2.2-2.1zM-248.6 399c-.7 0-1.2.5-1.3 1.3l-2.4 27.3 2.4 26.3c.1.7.6 1.3 1.3 1.3.7 0 1.2-.5 1.3-1.2l2.7-26.3-2.7-27.3c-.1-.8-.6-1.4-1.3-1.4zM-217.9 383.4c-1 0-1.9.8-1.9 1.9l-2 42.3 2 27.3c.1 1.1.9 1.9 1.9 1.9s1.9-.8 1.9-1.9l2.3-27.3-2.3-42.3c0-1.1-.9-1.9-1.9-1.9zM-154.4 359.3c-1.8 0-3.2 1.4-3.2 3.2l-1.2 65 1.2 26.1c0 1.8 1.5 3.2 3.2 3.2 1.8 0 3.2-1.5 3.2-3.2l1.4-26.1-1.4-65c.1-1.7-1.4-3.2-3.2-3.2zM-197.1 368.9c-1.3 0-2.3 1-2.4 2.4l-1.8 56.3 1.8 26.9c0 1.3 1.1 2.3 2.4 2.3s2.3-1 2.4-2.4l2-26.9-2-56.3c0-1.2-1.1-2.3-2.4-2.3zM-46.5 394c-4.3 0-8.4.9-12.2 2.4-2.5-28.4-26.3-50.6-55.3-50.6-7.1 0-14 1.4-20.1 3.8-2.4.9-3 1.9-3 3.7v99.9c0 1.9 1.5 3.5 3.4 3.7h87.3c17.4 0 31.5-14.1 31.5-31.5-.1-17.3-14.2-31.4-31.6-31.4zM-143.6 353.2c-1.9 0-3.4 1.6-3.5 3.5l-1.4 70.9 1.4 25.7c0 1.9 1.6 3.4 3.5 3.4s3.4-1.6 3.5-3.5l1.5-25.8-1.5-70.9c-.1-1.7-1.6-3.3-3.5-3.3zM-186.5 366.8c-1.4 0-2.5 1.1-2.6 2.6l-1.6 58.2 1.6 26.7c0 1.4 1.2 2.6 2.6 2.6s2.5-1.1 2.6-2.6l1.8-26.7-1.8-58.2c-.1-1.5-1.2-2.6-2.6-2.6zM-175.9 368.1c-1.5 0-2.8 1.2-2.8 2.8l-1.5 56.7 1.5 26.5c0 1.6 1.3 2.8 2.8 2.8s2.8-1.2 2.8-2.8l1.7-26.5-1.7-56.7c0-1.6-1.2-2.8-2.8-2.8zM-165.2 369.9c-1.7 0-3 1.3-3 3l-1.4 54.7 1.4 26.3c0 1.7 1.4 3 3 3 1.7 0 3-1.3 3-3l1.5-26.3-1.5-54.7c0-1.6-1.3-3-3-3z"/></svg>