<svg xmlns="http://www.w3.org/2000/svg" fill="none" viewBox="0 0 268 131"><path fill="#F1003E" d="M294.646-76.543H-18.918v312.894h313.564V-76.543Z"/><mask id="a" width="314" height="314" x="-19" y="-77" maskUnits="userSpaceOnUse" style="mask-type:luminance"><path fill="#fff" d="M294.646-76.543H-18.918v312.894h313.564V-76.543Z"/></mask><g fill="#083780" mask="url(#a)"><path d="M417.527 27.615h4.684c2.643-.06 5.285.24 8.108.96a21.124 21.124 0 0 1 5.345 2.097c1.562.899 2.823 1.857 3.904 3.056l.901.899c2.102 2.637 3.243 6.293 3.303 10.608.12 10.068-5.825 22.833-15.915 34.28l-29.669 30.923c-1.381 1.438-2.102 3.296-2.102 5.394 0 4.075 2.943 7.491 6.847 8.21l31.77 6.053c22.162 3.895 38.798 17.799 41.441 34.639.24 1.499.36 2.937.36 4.435.12 8.81-3.543 17.38-10.57 24.811l-30.93 32.063a7.49 7.49 0 0 0-2.102 5.453c0 2.817 1.561 5.634 4.084 7.132l41.8 25.59c4.565 2.397 8.589 4.854 12.132 7.431 12.552 9.049 20.059 19.597 20.12 28.167a14.31 14.31 0 0 1-.541 3.955c-2.823 9.769-17.057 15.163-36.215 13.664l-11.531-.899.48.54c-34.654-.779-67.746 3.356-98.556 12.285a50.792 50.792 0 0 0-3.603-1.917c-3.003-1.439-6.306-2.697-9.73-3.776l-14.714-5.693 7.868-12.166c5.465-8.69 7.447-18.099 5.645-27.388-.3-1.678-.78-3.296-1.321-4.854-5.645-16.421-23.002-27.328-43.062-27.208h-.3l3.844-5.933c6.906-11.806 9.609-23.673 7.747-33.681a28.93 28.93 0 0 0-3.663-9.589c-1.322-2.157-2.943-4.135-4.865-5.813-.481-.419-1.381-1.079-2.042-1.498-1.682-1.259-3.964-2.457-6.426-3.356-2.343-.839-4.925-1.319-7.508-1.438-2.762-.12-5.285 0-7.747.479-26.005 3.656-71.169 43.03-99.517 101.521 37.777-163.009 185.52-255.24 232.246-259.196v-.24Z"/><path d="M221.553 528.508c-56.995-31.044-94.171-90.374-95.493-163.788-3.183-177.931 205.88-259.855 128.045-393.499-15.796-27.148-44.143-41.59-68.227-48.243a134.976 134.976 0 0 0-24.323-4.375c-30.21-2.517-58.437 5.454-80.779 20.796-.24.18-.48.3-.78.48a104.344 104.344 0 0 0-9.91 7.73c-10.39 9.769-17.597 22.594-20 37.276-1.26 1.619-20.3 4.975-51.59 26.19a360.374 360.374 0 0 0-8.228 5.753c8.288.12 16.456.779 24.444 3.056 11.05 3.117 20.96 8.45 30.57 14.443 4.204 2.637 8.408 5.154 12.612 7.731a337.658 337.658 0 0 1 7.628 5.094 199.854 199.854 0 0 0 14.233 9.11c77.776 50.58 112.429-11.387 112.429-11.387-1.921 113.567-293.925 89.056-305.696 314.991-12.132 232.407 316.267 262.432 400.348 190.216-23.482-3.356-45.524-10.727-65.343-21.574h.06Z"/></g><path fill="#FAB202" d="M82.154 249.655-77 198.056 30.444 43.077l113.631 119.141-61.92 87.437Z"/><mask id="b" width="270" height="170" x="-77" y="43" maskUnits="userSpaceOnUse" style="mask-type:luminance"><path fill="#fff" d="M192.662 212.918-77 198.056 30.444 43.077l60.78 63.766c12.071 12.705 31.23 15.701 46.665 7.311l54.773 98.764Z"/></mask><g fill="#67B14E" mask="url(#b)"><path d="m229.118 100.37 2.402 1.618c1.321.899 2.583 2.038 3.724 3.356.84.959 1.441 1.918 1.982 2.937.48 1.019.78 1.918.9 2.936l.121.779c.12 2.038-.601 4.315-2.163 6.533-3.543 5.094-11.11 9.409-20.239 11.626l-26.005 5.034a4.522 4.522 0 0 0-2.943 1.978c-1.442 2.038-1.202 4.854.48 6.592l13.814 14.323c9.789 9.829 13.212 22.774 8.528 32.183a21.81 21.81 0 0 1-1.382 2.337c-3.123 4.495-7.987 7.491-14.173 8.75l-27.027 5.154c-1.201.239-2.282.958-3.002 1.977-1.021 1.439-1.202 3.416-.481 5.034l11.892 27.748c1.441 2.817 2.582 5.453 3.483 8.03 3.063 8.99 3.123 16.961.06 21.335a8.028 8.028 0 0 1-1.682 1.798c-4.924 3.896-13.993 1.558-23.122-5.993l-5.465-4.554v.419c-17.117-12.705-35.255-22.414-53.993-28.826-.36-.719-.72-1.498-1.14-2.277-1.022-1.798-2.223-3.596-3.544-5.394l-5.406-8.091 8.288-3.356c5.826-2.397 10.21-6.472 12.613-11.806.42-.959.781-1.918 1.081-2.936 3.003-10.248-1.802-21.935-11.952-29.006l-.12-.12 4.024-1.618c7.687-3.476 13.273-8.51 15.915-14.204.901-1.977 1.442-4.075 1.562-6.112a15.4 15.4 0 0 0-.36-4.675c-.06-.36-.301-1.019-.481-1.498-.42-1.259-1.141-2.637-2.042-3.956a16.161 16.161 0 0 0-3.303-3.416c-1.321-1.078-2.643-1.857-4.024-2.517-14.414-7.431-51.17-3.595-86.364 15.762 77.175-68.68 184.499-62.567 209.424-48.004l.12.12Z"/><path d="M-48.291 282.976c-17.597-35.898-15.195-78.988 10.33-116.384 61.86-90.733 196.39-57.712 204.859-152.64 1.741-19.298-7.388-36.618-17.117-48.544a82.937 82.937 0 0 0-10.69-10.847c-14.294-12.046-31.411-17.979-48.107-18.219h-.54c-2.583 0-5.166.12-7.748.36-8.709 1.199-16.937 5.154-23.363 11.686-1.201.36-12.011-4.734-35.314-5.154h-6.186c4.144 2.997 7.988 6.233 11.23 10.248 4.445 5.514 7.568 11.687 10.27 18.1 1.202 2.816 2.403 5.572 3.604 8.39a94.159 94.159 0 0 1 1.982 5.273c1.261 3.476 2.523 6.652 3.904 9.649 21.14 53.097 60.659 34.22 60.659 34.22-41.5 56.453-179.755-59.63-266.299 49.921-89.006 112.728 65.584 244.513 133.69 238.041-10.63-10.008-19.098-21.575-25.224-34.1h.06Z"/></g><path fill="#FAA400" d="M250.442 186.849 125.4 134.41c-2.162 6.952-16.936-28.347-2.462-59.63 12.913-27.807 32.552-60.35 44.563-98.345 5.406-17.08 146.903 63.766 146.903 63.766l-63.902 146.588-.06.06Z"/><mask id="c" width="212" height="213" x="103" y="-26" maskUnits="userSpaceOnUse" style="mask-type:luminance"><path fill="#fff" d="m250.438 186.848-146.903-63.765S166.176 1.306 167.437-23.505C168.278-39.146 314.34 40.26 314.34 40.26l-63.902 146.588Z"/></mask><g fill="#28BCD9" mask="url(#c)"><path d="M249.002 204.768c1.562-34.58-9.489-68.021-31.59-95.049a139.765 139.765 0 0 0-18.198-18.518c-3.123-2.637-4.925-6.533-4.865-10.608 0-4.135 1.922-7.97 5.105-10.547 4.745-3.836 11.291-4.196 16.396-.84l21.981 14.504h.181l.12-.12 3.543-22.834c.841-5.393 3.664-10.248 7.868-13.723a21.96 21.96 0 0 1 9.369-4.495c8.828-1.858 17.777 1.738 22.882 9.17l10.871 16.06 8.288-27.867c.48-1.558 1.141-2.997 2.042-4.255-7.628-25.53-20.42-49.562-38.017-70.418a12.445 12.445 0 0 0-15.615-2.816c-4.024 2.277-6.427 6.652-6.246 11.267l1.621 38.834c.24 6.412-7.027 10.248-12.192 6.412l-20.9-15.581c-7.087-5.334-16.756-5.813-24.384-1.259a21.924 21.924 0 0 0-10.33 22.594l5.406 30.504c1.021 5.693-4.205 10.488-9.85 9.05l-34.173-8.93c-4.565-1.199-9.369.719-11.892 4.734-3.543 5.694-1.081 13.245 5.165 15.702 11.051 4.315 21.861 9.709 32.312 16.18 43.121 26.79 72.19 67.602 85.042 112.789l.06.06Z"/><path d="M318.368 35.466c-1.501-.54-3.123-.66-4.804-.36-.721.12-1.382.36-2.042.66-.06 0-.121 0-.241.12-.6.3-1.201.659-1.681 1.078 0 0-.12 0-.18.12 0 0-.121.12-.181.12l-.54.54c-.12.12-.24.24-.36.419a4.14 4.14 0 0 0-.481.6c-.12.12-.24.299-.3.419-.18.24-.301.54-.421.779l-.18.36c-.18.419-.36.839-.48 1.258l-.961 3.236-7.327 24.631a6.233 6.233 0 0 1-.721 1.558c-.12.18-.24.24-.36.42-.241.3-.481.54-.721.78-.36.299-.721.538-1.141.718-.12 0-.24.12-.361.12-.3.12-.66.24-1.021.3-.12 0-.24 0-.42.06-.42 0-.841.06-1.261 0h-.12c-.481 0-.901-.18-1.322-.36-.12 0-.24-.12-.36-.18-.3-.12-.601-.36-.901-.54-.12-.059-.24-.179-.36-.239-.361-.3-.721-.659-1.021-1.138l-10.991-16.062c-.961-1.378-2.042-2.577-3.303-3.536-1.261-.958-2.643-1.797-4.144-2.397-2.222-.899-4.625-1.258-7.027-1.138-.841 0-1.621.18-2.462.36-.781.179-1.502.359-2.222.659-.241.06-.421.18-.661.24-.481.179-.961.419-1.441.658-.241.12-.421.24-.661.36-.481.3-.961.6-1.381.899-.181.12-.301.24-.481.36 0 0-.12.06-.12.12-.18.12-.24.299-.42.419-.481.42-1.021.899-1.442 1.378-.24.24-.42.48-.6.72-.361.479-.721.958-1.021 1.498-.181.3-.361.539-.481.839-.3.539-.54 1.138-.781 1.738-.12.3-.24.539-.36.839-.3.899-.541 1.798-.661 2.697l-3.543 22.833c-.06.48-.24.899-.36 1.318 0 .12-.121.24-.181.36l-.54.899c-.06.06-.12.18-.18.24-.241.3-.541.599-.841.838h-.06c-.421.36-.901.6-1.442.84-.12 0-.24.06-.42.12-.42.12-.781.239-1.261.299h-.541c-.42 0-.78 0-1.201-.12-.18 0-.36 0-.54-.12-.541-.18-1.142-.36-1.622-.719l-21.981-14.503a8.328 8.328 0 0 0-2.343-1.079c-.84-.24-1.681-.3-2.522-.24-.841 0-1.682.24-2.462.54-.781.3-1.562.72-2.223 1.258-.48.42-.9.84-1.261 1.319-.36.48-.66.959-.901 1.498-1.261 2.637-.961 5.813.781 8.21.36.48.781.9 1.261 1.319 3.364 2.877 6.667 5.873 9.79 9.11 3.123 3.236 6.186 6.592 9.069 10.127a146.36 146.36 0 0 1 22.461 37.876 138.829 138.829 0 0 1 4.685 13.544 142.284 142.284 0 0 1 5.285 27.748c.841 9.349.781 18.758-.12 28.047-.24 2.517.961 4.674 2.823 5.873.54.359 1.201.599 1.801.719.661.18 1.322.18 2.042.12h.601c.42-.06.841-.24 1.261-.42.06 0 .12 0 .18-.06.181-.06.361-.119.541-.239a62.362 62.362 0 0 0 4.204-2.697 145.617 145.617 0 0 0 12.252-8.99c15.795-12.884 28.227-28.346 37.176-45.306a140.332 140.332 0 0 0 7.087-15.642c1.381-3.536 2.582-7.132 3.663-10.787 1.082-3.656 2.042-7.312 2.823-10.968.781-3.715 1.442-7.431 1.922-11.147.48-3.715.841-7.491 1.081-11.266.3-5.634.3-11.327 0-17.02-.18-2.637-.42-5.274-.721-7.851-.24-2.337-.6-4.675-.961-7.012-.3-1.678-.6-3.356-.9-5.094a135.371 135.371 0 0 0-1.862-8.21c-.721-2.757-1.502-5.514-2.403-8.27-.9-2.757-1.861-5.454-2.942-8.151 0-.12-.121-.24-.181-.36a8.771 8.771 0 0 0-1.441-2.397v-.06c-.36-.42-.721-.779-1.141-1.079-.841-.659-1.742-1.198-2.763-1.558v.18Z"/></g><path fill="#F52224" d="M62.158-35.79c16.576 4.734 34.113 3.236 49.788-4.315 3.904-1.858 7.627-4.135 11.051-6.652a6.895 6.895 0 0 1 5.705-1.14c1.982.48 3.664 1.859 4.565 3.657 1.321 2.697.72 5.933-1.502 8.03l-9.609 8.93v.12l10.69 4.375a11.003 11.003 0 0 1 5.766 5.393 10.437 10.437 0 0 1 1.081 5.034c-.12 4.495-2.883 8.39-7.087 10.008l-9.069 3.416 12.552 7.192c.721.42 1.322.899 1.802 1.498 13.273-.719 26.426-4.135 38.558-10.248 2.642-1.318 4.024-4.375 3.183-7.251-.661-2.218-2.463-3.896-4.745-4.315l-19.038-3.716c-3.123-.6-4.144-4.614-1.682-6.652l9.97-8.27c3.423-2.817 4.744-7.431 3.423-11.627-1.381-4.315-5.225-7.311-9.789-7.61l-15.435-.9c-2.883-.18-4.625-3.236-3.244-5.813l8.288-15.462c1.082-2.097.721-4.614-.9-6.292-2.343-2.397-6.307-2.038-8.228.659-3.364 4.854-7.267 9.469-11.592 13.724C108.643-46.278 85.52-36.93 62.098-35.91l.06.12Z"/><path fill="#F52224" d="M136.271 17.307c.42-.659.66-1.438.72-2.277 0-.36 0-.719-.06-1.079v-.12c-.06-.3-.18-.659-.3-.958v-.18c0-.12-.12-.24-.18-.3 0-.06-.12-.18-.12-.24-.06-.12-.181-.24-.241-.3 0-.06-.12-.119-.18-.179-.12-.12-.24-.18-.3-.3 0 0-.12-.12-.18-.12l-.541-.359-1.441-.839-11.111-6.413s-.48-.36-.661-.539c-.06-.06-.12-.18-.18-.24-.12-.12-.24-.3-.3-.42-.12-.179-.18-.419-.24-.658V.886c0-.239.06-.419.12-.599.06-.24.18-.42.3-.599 0 0 .06-.12.12-.18l.361-.36s.12-.12.18-.12c.18-.119.42-.299.66-.359l9.069-3.476c.781-.3 1.502-.719 2.102-1.198.601-.48 1.201-1.079 1.622-1.738a8.958 8.958 0 0 0 1.381-3.296c.06-.42.12-.78.12-1.199v-1.499c0-.239-.12-.538-.18-.778 0-.12-.06-.24-.12-.36-.06-.24-.18-.54-.3-.779 0-.06-.06-.18-.12-.24v-.06c0-.06-.121-.18-.121-.24-.18-.299-.3-.599-.54-.838-.12-.12-.18-.24-.3-.36-.181-.24-.361-.48-.601-.66l-.36-.359c-.241-.18-.481-.42-.721-.599-.12-.06-.24-.18-.36-.24-.421-.24-.781-.48-1.262-.659l-10.69-4.375c-.24-.12-.42-.24-.601-.36 0 0-.12-.06-.12-.12l-.36-.359-.12-.12c-.12-.18-.24-.3-.3-.48-.12-.239-.181-.538-.241-.778v-1.079c0-.18.121-.36.181-.54 0-.06.06-.18.12-.239.12-.24.3-.48.54-.72l9.61-8.929c.3-.3.6-.659.78-1.018.18-.36.361-.78.421-1.2.06-.419.06-.838 0-1.258 0-.42-.18-.839-.361-1.198 0 0-.3-.54-.48-.78-.18-.239-.421-.419-.601-.599a4.013 4.013 0 0 0-4.084-.539c-.3.12-.54.24-.78.48a88.782 88.782 0 0 1-5.526 3.715c-1.922 1.199-3.904 2.218-5.946 3.236-6.786 3.296-13.873 5.394-20.96 6.473-2.342.36-4.745.6-7.087.719-4.744.24-9.429 0-14.114-.66-4.624-.659-9.188-1.797-13.633-3.295a3.047 3.047 0 0 0-3.183.719c-.24.24-.42.48-.6.779-.18.3-.24.659-.3.959V-30.096c.24.778.54 1.557.78 2.336.84 2.338 1.802 4.675 2.943 6.952 4.444 9.11 10.51 16.9 17.717 23.193 2.162 1.858 4.444 3.656 6.787 5.214a57.999 57.999 0 0 0 4.804 2.996c1.622.96 3.304 1.798 4.985 2.637 1.682.84 3.423 1.558 5.165 2.218a79.993 79.993 0 0 0 5.345 1.797c2.703.84 5.466 1.439 8.228 1.978 1.322.24 2.583.42 3.904.6 1.141.12 2.342.24 3.484.36.84.059 1.681.119 2.582.119 1.381 0 2.763.06 4.204 0 1.442 0 2.883-.12 4.324-.18 1.442-.12 2.883-.24 4.325-.48h.18c.48-.06.901-.239 1.321-.419.24-.12.48-.24.661-.42.42-.299.78-.718 1.081-1.138l-.12-.36Z"/></svg>