<svg xmlns="http://www.w3.org/2000/svg" fill="none" viewBox="0 0 759 557"><g clip-path="url(#a)"><path fill="#fff" d="M121.31 412.566c-15.866 0-31.26-2.276-45.752-6.77-14.503-4.495-27.523-11.395-38.696-20.509-11.185-9.126-20.127-20.771-26.574-34.613C3.835 336.833.562 320.346.562 301.669c0-19.798 3.5-39.357 10.396-58.126 6.896-18.756 16.622-36.375 28.92-52.373 12.083-15.725 26.21-29.475 41.986-40.882a90.169 90.169 0 0 1-10.77-6.195 156.264 156.264 0 0 1-10.919-7.982c-11.98-9.455-21.092-20.105-27.085-31.654-5.999-11.549-9.044-23.154-9.044-34.498 0-8.568 1.761-16.908 5.226-24.782 3.471-7.88 8.749-15.042 15.679-21.289 6.459-6.013 14.486-10.82 23.836-14.29 9.344-3.465 20.388-5.223 32.828-5.223 1.812 0 3.738.057 5.732.176 1.96.12 4.005.296 6.073.524 16.309 1.382 33.322 5.404 50.557 11.964 17.173 6.537 35.197 14.456 53.574 23.541a6690.183 6690.183 0 0 1 55.693 27.882c3.664-11.736 8.725-22.79 15.059-32.866 6.459-10.28 14.764-18.773 24.688-25.248 9.947-6.485 21.672-9.773 34.845-9.773 11.14 0 20.967 3.715 29.21 11.036 8.26 7.345 12.452 18.365 12.452 32.764 0 11.566-2.869 22.767-8.527 33.298-5.51 10.24-12.701 19.895-21.381 28.707a375.155 375.155 0 0 0 31.72 9.205 249.655 249.655 0 0 0 32.902 5.695c5.283.466 10.634.921 16.048 1.382 5.323.455 10.941.688 16.701.688 10.754 0 21.467-.927 31.846-2.759 10.356-1.82 19.996-5.177 28.658-9.967 8.169-4.546 14.969-10.309 20.201-17.141 5.192-6.787 7.822-14.001 7.822-21.442 0-2.697-.341-5.2-1.011-7.447l-.023-.08v-.774c0-1.422.841-2.355 2.363-2.634a3.76 3.76 0 0 1 .688-.068c1.181 0 1.971.671 2.215 1.895 1.148 3.914 1.738 7.344 1.738 10.143 0 8.62-2.999 16.937-8.924 24.725a67.51 67.51 0 0 1-21.762 18.66c-9.231 4.853-19.337 8.249-30.045 10.087a190.775 190.775 0 0 1-32.385 2.776c-6.022 0-12.077-.233-18.002-.694a364.527 364.527 0 0 1-17.292-1.73 252.541 252.541 0 0 1-34.771-5.888 456.742 456.742 0 0 1-33.743-9.592 172.306 172.306 0 0 1-30.767 22.671c-11.009 6.367-22.677 11.902-34.685 16.47 2.675 13.398 5.373 27.2 8.021 41.03 2.641 13.824 3.982 28.286 3.982 42.992 0 23.246-3.556 44.546-10.566 63.314-7.016 18.762-16.69 35.517-28.761 49.796-12.066 14.269-25.938 26.352-41.225 35.91-15.297 9.557-31.669 16.851-48.666 21.681-17.013 4.836-34.026 7.282-50.574 7.282h.017ZM94.452 156.034c-14.963 10.94-28.074 24.389-38.98 39.972a198.749 198.749 0 0 0-25.654 50.866c-6.056 18.068-9.123 36.74-9.123 55.496 0 22.615 4.618 41.656 13.73 56.595 9.106 14.934 21.399 26.204 36.538 33.503 15.161 7.305 31.754 11.009 49.307 11.009 14.134 0 28.778-2.378 43.514-7.066 14.718-4.688 28.897-11.703 42.15-20.851 13.242-9.148 25.279-20.685 35.788-34.288 10.504-13.614 18.894-29.554 24.949-47.39 6.05-17.852 9.124-38.151 9.124-60.338 0-13.267-.756-26.335-2.239-38.839a3801.183 3801.183 0 0 1-4.249-37.224c-4.243 1.064-8.481 2.128-12.724 3.186l-.46.114a292.026 292.026 0 0 1-13.35 3.021c.602 9.796-1.102 20.179-5.073 30.863-4.039 10.855-10.52 21.385-19.274 31.301-8.288 9.683-18.559 18.217-30.522 25.356-11.952 7.135-24.54 12.681-37.424 16.487-12.889 3.801-25.256 5.729-36.765 5.729-9.43 0-17.945-1.399-25.319-4.153-.71-.045-1.147-.517-1.147-1.257 0-.626.392-1.32 1.204-2.133.796-.797 1.744-1.207 2.818-1.207h.057l.056.012a99.904 99.904 0 0 0 20.257 2.065c13.003 0 25.893-2.315 38.311-6.884a147.637 147.637 0 0 0 35.089-18.603c10.85-7.777 20.16-16.464 27.687-25.834 5.459-6.605 9.782-14.576 12.856-23.689 2.993-8.881 4.328-17.557 3.97-25.8a412.204 412.204 0 0 1-20.308 2.167c-7.016.575-13.929 1.104-20.552 1.559-1.852 0-3.931.057-6.403.176-2.374.12-4.925.171-7.793.171-10.339 0-22.791-.876-37.021-2.6-14.173-1.718-28.642-5.587-43.02-11.503l-.005.011Zm8.407-5.632c10.504 3.937 22.427 7.054 35.464 9.262 13.475 2.287 28.546 3.447 44.798 3.447 14.014 0 29.357-1.359 45.615-4.05-1.664-9.04-6.044-16.885-13.02-23.325-7.112-6.554-18.195-9.877-32.936-9.877s-28.892 2.202-42.474 6.543a150.534 150.534 0 0 0-37.441 17.994l-.006.006Zm80.262-33.975c17.774 0 31.658 3.942 41.275 11.714 9.453 7.651 15.349 17.277 17.531 28.621a575.144 575.144 0 0 1 13.241-3.14 206.16 206.16 0 0 0 13.321-3.487c-1.34-12.266-2.022-24.924-2.022-37.634 0-5.757.352-11.77 1.04-17.875.676-5.962 1.8-11.947 3.345-17.79a6726.193 6726.193 0 0 0-60.004-29.014c-19.445-9.279-38.248-17.067-55.886-23.149-17.599-6.058-34.499-9.13-50.234-9.13-14.11 0-26.34 2.537-36.35 7.549-9.987 5-17.695 11.793-22.91 20.196C40.253 51.685 37.612 61.01 37.612 71c0 14.342 4.442 28.2 13.196 41.183 8.714 12.931 21.967 23.871 39.378 32.519 13.486-8.665 28.25-15.606 43.894-20.64 15.758-5.069 32.26-7.635 49.035-7.635h.006Zm99.922-34.203a88.497 88.497 0 0 0-.591 10.223c0 8.927.523 17.807 1.551 26.392a387.024 387.024 0 0 0 3.84 25.055c11.663-4.529 22.626-9.78 32.607-15.622 9.873-5.781 18.405-12.511 25.364-20.015a758.27 758.27 0 0 1-31.681-12.34 811.39 811.39 0 0 1-31.084-13.681l-.006-.012Zm.864-8.084a1458.923 1458.923 0 0 0 33.089 15.366 523.29 523.29 0 0 0 33.425 13.677c6.283-7.709 12.1-17.159 17.28-28.104 5.232-11.054 7.885-21.966 7.885-32.44 0-4.522-.63-8.943-1.874-13.153-1.239-4.17-3.352-8.118-6.283-11.736-2.233-2.68-5.3-4.898-9.112-6.582-3.829-1.69-8.049-2.543-12.548-2.543-11.561 0-21.729 3.277-30.216 9.74-8.526 6.49-15.502 14.86-20.734 24.883-5.175 9.905-8.845 20.293-10.912 30.886v.006Z"/><path fill="#000" d="M347.842 1.138c11.049 0 20.66 3.63 28.835 10.894 8.168 7.265 12.258 18.046 12.258 32.337 0 11.532-2.823 22.54-8.458 33.025-5.646 10.496-12.952 20.23-21.927 29.225a372.556 372.556 0 0 0 32.635 9.512 249.113 249.113 0 0 0 32.976 5.706c5.294.467 10.646.922 16.059 1.383 5.408.466 10.992.694 16.747.694 10.816 0 21.467-.916 31.942-2.765 10.475-1.843 20.081-5.189 28.835-10.03 8.288-4.608 15.076-10.377 20.376-17.295 5.294-6.918 7.942-14.177 7.942-21.789 0-2.765-.347-5.302-1.034-7.606v-.694c0-1.15.63-1.844 1.897-2.077.21-.04.403-.057.585-.057.915 0 1.466.478 1.659 1.44 1.147 3.925 1.727 7.265 1.727 10.03 0 8.533-2.937 16.657-8.805 24.383-5.868 7.726-13.066 13.893-21.581 18.501-9.208 4.841-19.166 8.186-29.869 10.029a189.319 189.319 0 0 1-32.288 2.765c-5.988 0-11.975-.227-17.957-.694a360.227 360.227 0 0 1-17.269-1.729 250.414 250.414 0 0 1-34.703-5.877 451.311 451.311 0 0 1-34.015-9.683 170.966 170.966 0 0 1-30.909 22.825 237.977 237.977 0 0 1-35.049 16.601 5613.696 5613.696 0 0 1 8.118 41.501c2.641 13.836 3.97 28.133 3.97 42.884 0 23.292-3.51 44.33-10.532 63.115-7.027 18.797-16.576 35.329-28.664 49.626-12.088 14.291-25.784 26.226-41.094 35.795-15.315 9.564-31.482 16.772-48.518 21.613-17.042 4.842-33.839 7.265-50.416 7.265-16.576 0-31.078-2.247-45.58-6.741-14.504-4.495-27.342-11.299-38.504-20.407-11.168-9.108-19.973-20.577-26.415-34.413-6.448-13.836-9.669-30.09-9.669-48.761 0-19.827 3.454-39.135 10.362-57.926 6.908-18.791 16.514-36.194 28.835-52.22 12.315-16.021 26.528-29.794 42.65-41.326-3.92-1.843-7.771-4.033-11.566-6.571a153.928 153.928 0 0 1-10.878-7.953c-11.975-9.45-20.95-19.94-26.938-31.472-5.987-11.526-8.98-22.938-8.98-34.237 0-8.528 1.726-16.714 5.18-24.554 3.454-7.834 8.634-14.871 15.542-21.095 6.442-5.99 14.332-10.724 23.654-14.177 9.322-3.459 20.2-5.189 32.635-5.189 1.841 0 3.738.057 5.698.171 1.954.12 3.971.29 6.044.518 16.343 1.382 33.152 5.359 50.416 11.93 17.269 6.57 35.106 14.41 53.523 23.518a6576.12 6576.12 0 0 1 56.289 28.184c3.681-11.987 8.748-23.109 15.196-33.372 6.442-10.257 14.616-18.615 24.517-25.072 9.896-6.451 21.411-9.683 34.533-9.683m2.761 102.717c6.441-7.834 12.315-17.346 17.61-28.531 5.294-11.179 7.941-22.074 7.941-32.684 0-4.608-.636-9.045-1.897-13.312-1.267-4.261-3.397-8.244-6.391-11.93-2.306-2.765-5.414-5.012-9.322-6.742-3.919-1.73-8.174-2.594-12.776-2.594-11.741 0-21.927 3.288-30.561 9.86-8.635 6.57-15.599 14.927-20.894 25.071-5.3 10.15-8.981 20.634-11.048 31.472a1432.684 1432.684 0 0 0 33.498 15.565 520.961 520.961 0 0 0 33.84 13.836M90.242 145.373c13.583-8.761 28.256-15.679 44.031-20.748 15.764-5.069 32.056-7.606 48.865-7.606 17.723 0 31.362 3.862 40.923 11.582 9.549 7.726 15.366 17.352 17.44 28.878a591.195 591.195 0 0 1 13.815-3.282 205.16 205.16 0 0 0 13.815-3.63c-1.38-12.448-2.073-25.129-2.073-38.043 0-5.763.346-11.697 1.034-17.812a123.365 123.365 0 0 1 3.453-18.154 6819.379 6819.379 0 0 0-60.43-29.225c-19.57-9.336-38.219-17.061-55.943-23.171-17.729-6.105-34.533-9.166-50.416-9.166-14.275 0-26.477 2.538-36.606 7.607-10.134 5.074-17.842 11.878-23.137 20.406-5.3 8.534-7.941 17.87-7.941 28.013 0 14.525 4.43 28.36 13.292 41.502 8.862 13.142 22.155 24.093 39.884 32.855m197.18-.695c11.969-4.608 23.075-9.91 33.323-15.906 10.242-5.991 18.933-12.909 26.074-20.748a752.294 752.294 0 0 1-32.459-12.624 798.772 798.772 0 0 1-31.772-14.007 87.37 87.37 0 0 0-.517 5.536 86.101 86.101 0 0 0-.17 5.535c0 8.995.517 17.813 1.556 26.454a383.757 383.757 0 0 0 3.971 25.766m-104.291 19.019c14.27 0 29.699-1.383 46.275-4.148-1.613-9.449-6.044-17.516-13.293-24.207-7.254-6.684-18.36-10.029-33.322-10.029-14.963 0-28.955 2.196-42.651 6.57-13.701 4.381-26.534 10.611-38.503 18.678 10.816 4.153 23.018 7.384 36.606 9.682 13.582 2.31 28.545 3.459 44.894 3.459m-62.85 240.358c14.269 0 28.835-2.367 43.684-7.089 14.849-4.727 28.948-11.702 42.303-20.924 13.35-9.222 25.325-20.697 35.913-34.413 10.589-13.722 18.934-29.572 25.035-47.555 6.095-17.983 9.151-38.157 9.151-60.52 0-13.37-.75-26.341-2.244-38.908a3658.165 3658.165 0 0 1-4.317-37.872c-4.607 1.155-9.208 2.31-13.815 3.459a286.741 286.741 0 0 1-13.815 3.112c.693 9.916-.983 20.293-5.005 31.125-4.033 10.837-10.418 21.214-19.167 31.125-8.288 9.682-18.422 18.102-30.391 25.248-11.975 7.151-24.404 12.624-37.293 16.43-12.895 3.806-25.097 5.706-36.606 5.706-9.441 0-17.843-1.383-25.21-4.148-.467 0-.694-.227-.694-.694 0-.466.347-1.035 1.034-1.729.693-.694 1.494-1.035 2.42-1.035a100.252 100.252 0 0 0 20.376 2.076c13.123 0 25.955-2.304 38.504-6.918 12.543-4.608 24.284-10.832 35.225-18.677 10.93-7.834 20.201-16.481 27.801-25.937 5.528-6.684 9.845-14.638 12.952-23.86 3.107-9.216 4.431-18.096 3.971-26.63a412.165 412.165 0 0 1-20.894 2.247c-7.026.58-13.872 1.098-20.546 1.559-1.847 0-3.971.057-6.391.171-2.42.119-5.005.17-7.771.17-10.362 0-22.677-.864-36.953-2.594-14.275-1.729-28.664-5.587-43.167-11.583-15.195 11.065-28.318 24.503-39.366 40.29-11.05 15.793-19.633 32.803-25.728 51.014-6.101 18.216-9.152 36.78-9.152 55.679 0 22.824 4.602 41.786 13.816 56.891 9.202 15.098 21.467 26.34 36.776 33.719 15.31 7.373 31.823 11.065 49.552 11.065M347.842 0c-13.281 0-25.109 3.322-35.152 9.865-9.992 6.52-18.36 15.07-24.858 25.419-6.243 9.933-11.259 20.81-14.918 32.36a6723.13 6723.13 0 0 0-55.102-27.587c-18.394-9.091-36.435-17.022-53.625-23.559-17.286-6.576-34.351-10.616-50.728-12.004a122.795 122.795 0 0 0-6.072-.523 102.686 102.686 0 0 0-5.766-.176c-12.509 0-23.62 1.769-33.027 5.256-9.425 3.493-17.508 8.346-24.035 14.41-6.982 6.293-12.299 13.518-15.804 21.471-3.499 7.948-5.277 16.368-5.277 25.015 0 11.435 3.062 23.132 9.106 34.766 6.027 11.617 15.196 22.33 27.239 31.842a157.87 157.87 0 0 0 10.952 8.01 92.572 92.572 0 0 0 9.986 5.82c-15.513 11.327-29.414 24.924-41.337 40.438-12.327 16.043-22.087 33.713-29 52.521C3.511 262.181 0 281.808 0 301.674c0 18.757 3.29 35.33 9.776 49.245 6.482 13.921 15.474 25.635 26.728 34.811 11.23 9.16 24.313 16.095 38.884 20.612 14.542 4.511 29.993 6.793 45.916 6.793 15.923 0 33.664-2.458 50.728-7.305 17.042-4.847 33.465-12.163 48.808-21.744 15.343-9.591 29.255-21.709 41.361-36.023 12.111-14.331 21.825-31.142 28.857-49.961 7.039-18.837 10.606-40.205 10.606-63.513 0-14.74-1.341-29.236-3.993-43.101a5221.147 5221.147 0 0 0-7.931-40.563 239.47 239.47 0 0 0 34.317-16.339 173.157 173.157 0 0 0 30.619-22.523 455.319 455.319 0 0 0 33.464 9.501 252.217 252.217 0 0 0 34.851 5.905c5.55.694 11.372 1.28 17.303 1.736 5.936.46 12.009.694 18.042.694a191.87 191.87 0 0 0 32.482-2.782c10.764-1.855 20.927-5.268 30.203-10.144a68.122 68.122 0 0 0 21.962-18.82c5.998-7.89 9.038-16.321 9.038-25.071 0-2.845-.591-6.31-1.761-10.309-.313-1.462-1.318-2.298-2.761-2.298-.244 0-.511.023-.784.074-1.801.33-2.835 1.496-2.835 3.197v.86l.046.158c.653 2.19.988 4.643.988 7.282 0 7.317-2.596 14.41-7.708 21.095-5.181 6.765-11.918 12.482-20.025 16.988-8.606 4.762-18.189 8.09-28.477 9.905-10.344 1.826-21.024 2.748-31.749 2.748-5.743 0-11.344-.234-16.65-.689-6.226-.529-11.332-.967-16.053-1.382a248.898 248.898 0 0 1-32.811-5.678 371.46 371.46 0 0 1-30.818-8.898c8.436-8.675 15.446-18.148 20.842-28.189 5.704-10.61 8.595-21.903 8.595-33.566 0-14.564-4.255-25.731-12.639-33.184C369.07 3.778 359.118.017 347.83.017l.012-.017Zm-63.294 73.81c2.074-10.388 5.698-20.577 10.771-30.3 5.192-9.944 12.111-18.256 20.575-24.696 8.39-6.39 18.439-9.626 29.874-9.626 4.42 0 8.567.842 12.322 2.497 3.732 1.65 6.731 3.812 8.907 6.429 2.874 3.55 4.953 7.43 6.175 11.526 1.227 4.153 1.852 8.522 1.852 12.988 0 10.383-2.636 21.215-7.834 32.195-5.095 10.752-10.793 20.06-16.951 27.671a523.493 523.493 0 0 1-33.01-13.523A1446.664 1446.664 0 0 1 284.548 73.8v.011Zm-194.39 70.237c-17.185-8.585-30.261-19.411-38.873-32.183-8.692-12.886-13.1-26.636-13.1-40.864 0-9.888 2.613-19.11 7.771-27.41 5.158-8.312 12.787-15.037 22.677-19.986 9.93-4.967 22.075-7.487 36.095-7.487 15.673 0 32.51 3.06 50.046 9.103 17.616 6.076 36.396 13.852 55.824 23.12a6628.47 6628.47 0 0 1 59.584 28.81 124.42 124.42 0 0 0-3.244 17.414c-.693 6.127-1.045 12.163-1.045 17.937 0 12.568.665 25.084 1.977 37.224a200.406 200.406 0 0 1-12.833 3.339c-4.129.928-8.39 1.94-12.673 3.004-2.295-11.224-8.214-20.765-17.616-28.371-9.719-7.857-23.728-11.839-41.633-11.839-16.837 0-33.396 2.577-49.211 7.663-15.582 5.012-30.301 11.919-43.752 20.526h.005Zm198.117-.944a386.266 386.266 0 0 1-3.71-24.344c-1.028-8.562-1.545-17.414-1.545-26.323 0-1.866.057-3.704.171-5.462.079-1.297.193-2.605.329-3.908a804.428 804.428 0 0 0 30.386 13.364 745.454 745.454 0 0 0 30.897 12.055c-6.811 7.214-15.099 13.694-24.649 19.286-9.77 5.717-20.49 10.877-31.885 15.338l.006-.006Zm-184.166 7.151a150.034 150.034 0 0 1 36.367-17.306c13.531-4.324 27.761-6.52 42.304-6.52 14.542 0 25.551 3.271 32.556 9.729 6.737 6.212 11.02 13.756 12.735 22.437-16.013 2.617-31.129 3.948-44.945 3.948-16.218 0-31.26-1.16-44.7-3.441-12.572-2.128-24.098-5.104-34.311-8.847h-.006ZM120.27 402.9c-17.468 0-33.976-3.686-49.063-10.957-15.043-7.248-27.256-18.45-36.3-33.287-9.054-14.848-13.644-33.787-13.644-56.299 0-18.7 3.061-37.309 9.094-55.32a198.263 198.263 0 0 1 25.58-50.719c10.81-15.44 23.79-28.781 38.594-39.647 14.327 5.866 28.75 9.712 42.872 11.418 14.247 1.724 26.727 2.6 37.089 2.6 2.886 0 5.442-.057 7.828-.176 2.459-.114 4.527-.171 6.334-.171h.079c6.629-.461 13.543-.984 20.564-1.559 6.561-.534 13.19-1.24 19.717-2.093.262 7.987-1.067 16.384-3.965 24.975-3.05 9.051-7.339 16.953-12.747 23.501-7.504 9.336-16.78 17.995-27.585 25.738a147.338 147.338 0 0 1-34.953 18.535c-12.355 4.545-25.176 6.849-38.111 6.849-6.8 0-13.577-.688-20.144-2.053l-.113-.023h-.114c-1.227 0-2.312.461-3.22 1.371-.933.933-1.37 1.741-1.37 2.532 0 1.012.63 1.718 1.59 1.814 7.42 2.76 15.98 4.165 25.444 4.165 11.56 0 23.984-1.934 36.924-5.752 12.929-3.817 25.563-9.381 37.555-16.544 12.02-7.174 22.336-15.747 30.67-25.481 8.787-9.956 15.309-20.549 19.365-31.466 3.931-10.582 5.658-20.873 5.135-30.602 4.278-.87 8.612-1.854 12.895-2.93l.46-.113c4.028-1.007 8.061-2.014 12.094-3.027A3707.944 3707.944 0 0 0 273 194.765c1.482 12.482 2.238 25.527 2.238 38.771 0 22.125-3.056 42.367-9.089 60.157-6.033 17.772-14.395 33.662-24.859 47.225-10.469 13.557-22.467 25.054-35.663 34.168-13.207 9.114-27.335 16.106-42.002 20.777-14.679 4.67-29.261 7.037-43.338 7.037h-.017Z"/><path fill="#fff" d="M496.402 556.431c-12.991 0-22.773-3.373-29.073-10.035-6.289-6.651-9.481-15.452-9.481-26.159 0-13.864 5.135-30.249 15.264-48.693 10.117-18.421 24.915-36.387 43.973-53.409 11.935-10.809 25.682-20.662 40.844-29.293 15.173-8.63 31.823-15.69 49.501-20.975 17.695-5.297 36.22-8.096 55.062-8.323h4.806l27.142-67.473a289.603 289.603 0 0 1-12.883 14.485c-5.05 5.291-9.243 9.483-12.458 12.476l-.045.04c-4.636 3.476-9.141 6.235-13.401 8.186-4.323 1.986-8.646 2.993-12.844 2.993-5.698 0-9.748-1.713-12.037-5.092-2.244-3.3-3.38-7.248-3.38-11.731 0-3.715.528-7.606 1.573-11.56 1.04-3.926 2.267-7.675 3.647-11.134 3.21-8.038 6.76-15.792 10.555-23.052a604.143 604.143 0 0 0 11.213-22.631c.932-1.872 2.261-4.887 3.96-8.966 1.687-4.062 2.545-7.828 2.545-11.196 0-3.624-1.466-5.308-4.613-5.308-3.147 0-6.243 1.519-9.452 4.517a55.006 55.006 0 0 0-8.715 10.44c-2.471 3.823-4.442 6.957-5.862 9.324-4.283 8.579-8.174 16.203-11.554 22.626-3.261 6.195-6.635 12.1-10.027 17.556a880.658 880.658 0 0 1-8.799 15.15c-5.073 8.545-11.39 16.038-18.769 22.278-3.948 3.26-7.89 5.672-11.725 7.186-3.851 1.519-7.464 2.287-10.742 2.287-5.885 0-10.85-2.094-14.747-6.23-3.885-4.119-5.851-9.665-5.851-16.47 0-3.971.938-8.806 2.79-14.359 2.999-8.334 7.56-16.413 13.559-24.036a550.392 550.392 0 0 0 17.247-23.149c3.374-4.5 5.078-8.926 5.078-13.159 0-2.156-.596-4.016-1.778-5.53-1.159-1.473-3.289-2.332-6.328-2.548h-.046l-.045-.017c-1.801-.45-3.846-.677-6.078-.677h-20.377c-.954 0-1.846-.08-2.647-.228-.96 5.638-2.852 11.987-5.635 18.893a258.14 258.14 0 0 1-9.862 21.488 385.124 385.124 0 0 1-7.39 13.688c-3.67 6.924-7.953 13.068-12.719 18.256-5.385 5.86-12.497 8.83-21.138 8.83-7.663 0-13.684-2.646-17.899-7.874-6.38 10.314-14.179 19.087-23.189 26.084-9.27 7.191-19.496 10.838-30.391 10.838-8.85 0-16.587-2.901-22.995-8.619-6.425-5.729-9.686-14.661-9.686-26.534 0-3.009.233-6.133.688-9.307a473.416 473.416 0 0 1-3.948 6.497c-4.727 7.612-10.504 14.865-17.173 21.544-3.022 3.027-7.14 5.798-12.242 8.238-5.118 2.447-10.196 3.687-15.093 3.687-5.851 0-11.134-1.724-15.707-5.126-4.618-3.436-6.964-9.12-6.964-16.885 0-7.766 1.988-17.147 5.913-26.841 3.88-9.609 7.601-18.342 11.06-25.96 1.937-3.88 4.437-8.943 7.431-15.059a275.34 275.34 0 0 1 9.702-18.028h-15.235c-.597 0-1.602-.296-1.602-2.299 0-1.029.38-2.127 1.13-3.254.801-1.2 1.772-1.809 2.892-1.809 6.356 0 11.173-.569 14.309-1.695 3.136-1.121 5.857-2.714 8.101-4.728 3.635-3.186 7.265-7.344 10.793-12.357 3.567-5.068 7.129-9.512 10.583-13.204 2.545-3.248 5.817-5.752 9.691-7.396 3.056-1.297 5.243-1.928 6.686-1.928.46 0 .846.062 1.17.193l.676.268-.42.591c-1.142 1.599-2.948 4.307-5.51 8.278a437.227 437.227 0 0 0-7.93 12.777c-3.006 5.018-5.488 9.2-7.595 12.79-1.892 3.22-3.25 5.598-4.045 7.094h21.859c1.488 0 1.602.967 1.602 1.263 0 1.081-.557 2.224-1.699 3.493-1.141 1.274-2.272 1.917-3.357 1.917h-22.12c-4.102 7.1-8.976 16.356-14.497 27.524-5.607 11.332-10.651 22.432-15.008 32.991-.915 2.065-2.483 6.235-4.653 12.419-2.153 6.127-3.249 11.879-3.249 17.101 0 3.34.721 6.145 2.153 8.335 1.397 2.156 3.783 3.203 7.294 3.203 3.789 0 7.987-1.428 12.474-4.239 4.528-2.833 8.084-5.763 10.572-8.704 5.255-5.717 10.112-12.089 14.457-18.956 4.369-6.912 8.777-14.348 13.105-22.108l.023-.039c2.028-5.388 4.221-10.372 6.527-14.82 5.988-11.305 13.639-21.306 22.74-29.726 9.157-8.477 20.268-12.772 33.016-12.772 12.747 0 21.086 3.453 26.011 10.263 4.886 6.759 7.362 15.133 7.362 24.89 0 3.931-.352 8.039-1.045 12.197-1.829 11.196-5.624 22.205-11.287 32.718 1.528 2.099 3.544 3.863 5.998 5.251 2.54 1.445 5.408 2.173 8.527 2.173 5.374 0 10.021-1.473 13.815-4.38 3.835-2.936 7.215-6.668 10.055-11.094a188.654 188.654 0 0 0 5.879-9.785c3.977-7.828 7.8-15.463 11.35-22.665a100.914 100.914 0 0 0 9.038-27.985c-5.226-3.089-8.799-8.374-10.628-15.719a39.035 39.035 0 0 1-.534-3.362 25.78 25.78 0 0 1-.176-3.004c0-4.233.897-7.879 2.67-10.843 1.829-3.05 4.027-4.597 6.532-4.597 3.483 0 6.334 3.271 8.481 9.728.472 1.662.824 3.493 1.063 5.473.233 2.003.346 3.943.346 5.775 0 2.048-.057 3.982-.176 5.746a39.92 39.92 0 0 1-.432 3.874c1.506.387 3.449.683 5.783.882 2.596.227 5.539.341 8.76.341 4.8 0 9.896-.176 15.156-.518 5.283-.347 9.827-.517 13.503-.517 4.521 0 7.686.995 9.407 2.958 1.698 1.951 2.556 4.403 2.556 7.293 0 3.522-.886 7.379-2.636 11.464-1.715 4.011-3.408 7.464-5.038 10.263-2.971 5.496-5.823 10.451-8.47 14.712a525.372 525.372 0 0 1-8.817 13.676c-4.788 7.311-8.31 14.081-10.469 20.111-2.153 6.014-3.249 11.122-3.249 15.196 0 6.832 2.414 10.149 7.373 10.149 4.209 0 9.776-3.095 16.542-9.194 4.329-3.879 8.424-8.556 12.174-13.909a179.617 179.617 0 0 0 10.327-16.55 2120.278 2120.278 0 0 1 7.771-14.012c.193-.296.381-.529.568-.711 2.261-4.238 4.215-8.056 5.8-11.361 2.869-5.974 6.186-12.272 9.862-18.712a131.988 131.988 0 0 1 12.827-19.098c3.283-3.527 6.884-6.189 10.742-7.942 3.857-1.752 7.708-2.645 11.457-2.645 6.59 0 11.208 1.525 13.731 4.528 2.493 2.976 3.76 6.651 3.76 10.912 0 4.261-.943 9.04-2.8 13.699-1.847 4.608-3.71 8.705-5.55 12.164-5.744 10.12-10.504 19.012-14.151 26.442-3.653 7.436-6.902 14.695-9.651 21.573-2.034 4.984-3.068 9.103-3.068 12.237 0 5.667 2.301 8.426 7.027 8.426 3.988 0 8.163-1.815 12.412-5.399 12.1-9.825 22.047-21.527 29.568-34.777 7.544-13.273 14.855-27.342 21.734-41.809 2.289-4.591 5.204-9.672 8.669-15.105 3.482-5.456 7.828-10.16 12.917-13.983 4.59-3.454 9.913-5.2 15.821-5.2.71 0 1.443.022 2.17.074l1.244.085-.88.882c-4.085 4.09-8.641 10.911-13.537 20.264-4.925 9.399-10.146 20.384-15.526 32.644a1536.237 1536.237 0 0 0-16.053 38.026c-5.3 13.028-10.305 25.368-15.02 37.002-4.555 11.236-8.691 20.947-12.292 28.889 16.252 2.122 29.664 6.713 39.883 13.654 10.384 7.048 18.173 15.554 23.149 25.282 4.97 9.722 7.487 19.934 7.487 30.345 0 11.566-2.812 22.825-8.351 33.463-5.544 10.645-13.628 19.497-24.017 26.324-10.407 6.827-22.939 10.405-37.254 10.638-1.312 0-2.551-.58-3.692-1.723-.46-.461-1.04-1.144-.761-1.81.266-.642 1.084-.716 1.681-.716 12.242-.228 22.938-3.567 31.783-9.922 8.856-6.366 15.821-14.672 20.712-24.691 4.885-10.024 7.367-20.532 7.367-31.221 0-9.558-2.073-18.962-6.163-27.951-4.079-8.971-10.697-16.805-19.672-23.291-8.89-6.423-20.575-10.729-34.726-12.806-12.81 27.427-27.17 52.982-42.684 75.955-15.605 23.092-31.891 43.419-48.41 60.429-16.542 17.022-33.084 30.38-49.16 39.693-16.122 9.347-31.323 14.08-45.178 14.08l.005.04Zm166.102-191.596c-17.36 0-34.379 2.725-50.586 8.101a211.654 211.654 0 0 0-46.32 21.903c-14.508 9.148-27.835 19.479-39.622 30.709-11.771 11.214-22.149 22.882-30.841 34.681-8.68 11.782-15.457 23.263-20.137 34.123-4.664 10.832-7.033 20.589-7.033 28.997 0 7.646 2.159 13.859 6.408 18.461 4.249 4.586 11.196 6.907 20.649 6.907 11.821 0 23.699-3.004 35.311-8.932 11.639-5.945 23.097-14.12 34.061-24.292 10.975-10.195 21.586-21.864 31.533-34.687a498.702 498.702 0 0 0 28.113-40.244c8.697-13.876 16.65-27.535 23.637-40.603 6.811-12.755 12.668-24.565 17.406-35.13h-2.579v.006ZM455.32 220.275c-4.459 0-9.106 1.764-13.821 5.251-4.783 3.539-9.339 7.868-13.543 12.88-4.215 5.018-7.975 10.235-11.174 15.492-3.209 5.273-5.635 9.677-7.22 13.085-3.874 8.442-6.708 16.088-8.424 22.727-1.704 6.611-2.573 12.499-2.573 17.494 0 7.214 1.528 12.795 4.539 16.59 2.982 3.76 6.606 5.666 10.776 5.666 11.071 0 22.205-5.53 33.095-16.436a92.014 92.014 0 0 0 8.754-10.138 103.355 103.355 0 0 0 6.845-10.485c-2.903-3.425-4.999-7.168-6.237-11.139-1.278-4.062-1.926-8.016-1.926-11.754 0-5.819 1.062-11.076 3.158-15.627 2.165-4.694 5.244-7.078 9.152-7.078 1.994 0 3.937.99 5.766 2.947 1.289 1.377 2.244 3.317 2.863 5.78.312-2.27.471-4.653.471-7.122 0-8.608-1.596-15.549-4.749-20.623-3.101-4.984-8.396-7.515-15.746-7.515l-.006.005Z"/><path fill="#000" d="M391.509 174.251c.386 0 .704.051.96.153-1.153 1.616-2.994 4.381-5.527 8.301A451.138 451.138 0 0 0 379 195.499c-2.761 4.614-5.3 8.881-7.595 12.795-2.306 3.926-3.8 6.571-4.488 7.953h22.791c.693 0 1.034.234 1.034.694 0 .922-.517 1.963-1.556 3.112-1.034 1.155-2.017 1.73-2.937 1.73h-22.445c-4.141 7.151-9.037 16.43-14.678 27.842-5.647 11.412-10.651 22.426-15.02 33.025-.92 2.077-2.477 6.224-4.664 12.448-2.192 6.224-3.277 11.992-3.277 17.289 0 3.459.744 6.343 2.243 8.647 1.495 2.31 4.085 3.459 7.772 3.459 3.914 0 8.168-1.439 12.775-4.323 4.602-2.879 8.169-5.82 10.708-8.818 5.295-5.763 10.129-12.107 14.503-19.019a471.938 471.938 0 0 0 13.122-22.136c.012-.012.017-.023.029-.034 2.028-5.394 4.198-10.343 6.527-14.837 5.981-11.293 13.52-21.152 22.62-29.572 9.089-8.414 19.967-12.624 32.635-12.624s20.717 3.345 25.552 10.03c4.834 6.69 7.254 14.871 7.254 24.554 0 3.925-.347 7.953-1.034 12.106-1.846 11.298-5.647 22.25-11.395 32.854 1.607 2.31 3.737 4.21 6.39 5.706 2.642 1.502 5.579 2.248 8.805 2.248 5.527 0 10.242-1.497 14.156-4.495 3.914-2.992 7.306-6.741 10.186-11.241a187.112 187.112 0 0 0 5.896-9.814 2056.062 2056.062 0 0 0 11.367-22.694c4.488-9.102 7.538-18.614 9.152-28.53-5.3-2.993-8.868-8.181-10.703-15.566a36.852 36.852 0 0 1-.517-3.282 25.71 25.71 0 0 1-.17-2.941c0-4.148.863-7.664 2.59-10.548 1.727-2.879 3.738-4.324 6.044-4.324 3.221 0 5.869 3.112 7.942 9.336.46 1.616.807 3.402 1.034 5.359.227 1.963.346 3.863.346 5.706 0 2.077-.056 3.977-.17 5.706-.119 1.73-.29 3.175-.517 4.324 1.608.467 3.738.808 6.391 1.036 2.641.233 5.578.347 8.805.347 4.834 0 9.895-.171 15.195-.518 5.295-.347 9.782-.518 13.469-.518 4.369 0 7.362.922 8.976 2.765 1.607 1.849 2.42 4.147 2.42 6.918 0 3.459-.864 7.208-2.591 11.242-1.727 4.039-3.397 7.435-5.004 10.2-2.994 5.536-5.817 10.434-8.459 14.701a514.432 514.432 0 0 1-8.805 13.659c-4.834 7.379-8.345 14.126-10.532 20.23-2.193 6.11-3.283 11.242-3.283 15.389 0 7.152 2.641 10.719 7.941 10.719 4.369 0 10.015-3.112 16.923-9.336 4.368-3.92 8.458-8.585 12.259-14.007a178.782 178.782 0 0 0 10.361-16.6 1850.54 1850.54 0 0 1 7.771-14.007 3.52 3.52 0 0 1 .529-.643c2.295-4.289 4.243-8.107 5.856-11.463 2.875-5.991 6.158-12.22 9.845-18.677a130.628 130.628 0 0 1 12.776-19.019c3.22-3.459 6.731-6.053 10.531-7.783 3.801-1.729 7.539-2.594 11.225-2.594 6.442 0 10.879 1.445 13.293 4.324 2.414 2.884 3.624 6.4 3.624 10.547 0 4.381-.92 8.881-2.761 13.489-1.846 4.614-3.686 8.648-5.527 12.106-5.754 10.15-10.481 18.968-14.156 26.455-3.687 7.492-6.908 14.7-9.668 21.612-2.074 5.075-3.108 9.222-3.108 12.448 0 5.996 2.534 8.995 7.595 8.995 4.142 0 8.402-1.844 12.776-5.536 12.202-9.91 22.103-21.556 29.698-34.931 7.595-13.369 14.85-27.319 21.757-41.849 2.301-4.608 5.181-9.626 8.635-15.042 3.454-5.416 7.708-10.029 12.775-13.835 4.517-3.397 9.675-5.092 15.48-5.092.699 0 1.415.023 2.13.074-4.141 4.147-8.691 10.951-13.639 20.407-4.953 9.455-10.134 20.349-15.542 32.683a1503.11 1503.11 0 0 0-16.059 38.043 26461.83 26461.83 0 0 0-15.02 37.008c-4.72 11.639-8.924 21.499-12.605 29.571 16.576 2.077 30.045 6.622 40.401 13.66 10.361 7.031 18.013 15.389 22.966 25.072 4.948 9.682 7.425 19.712 7.425 30.089 0 11.526-2.761 22.591-8.288 33.201-5.527 10.605-13.469 19.309-23.83 26.113-10.362 6.799-22.677 10.315-36.947 10.548-1.153 0-2.244-.518-3.283-1.559-1.034-1.035-.864-1.559.516-1.559 12.43-.233 23.138-3.578 32.113-10.03 8.981-6.457 15.94-14.757 20.893-24.901 4.948-10.149 7.425-20.64 7.425-31.472 0-9.682-2.073-19.081-6.215-28.183-4.141-9.108-10.764-16.948-19.859-23.519-9.095-6.571-20.893-10.894-35.396-12.971-12.895 27.666-27.165 53.085-42.821 76.256-15.655 23.172-31.771 43.283-48.347 60.35-16.577 17.062-32.92 30.26-49.036 39.596-16.11 9.336-31.078 14.006-44.894 14.006-12.889 0-22.444-3.288-28.664-9.859-6.22-6.571-9.322-15.161-9.322-25.766 0-13.835 5.067-29.975 15.196-48.419 10.134-18.45 24.75-36.2 43.854-53.261 11.975-10.838 25.557-20.578 40.747-29.225 15.196-8.647 31.653-15.622 49.382-20.924 17.724-5.308 36.027-8.073 54.909-8.301h5.181l28.664-71.244c-5.067 6.224-10.134 11.992-15.196 17.295-5.067 5.308-9.208 9.455-12.429 12.447-4.607 3.459-9.038 6.173-13.292 8.13-4.261 1.957-8.459 2.941-12.606 2.941-5.527 0-9.384-1.615-11.566-4.841-2.192-3.226-3.283-7.032-3.283-11.412 0-3.687.517-7.487 1.557-11.413 1.033-3.919 2.243-7.606 3.624-11.065 3.221-8.067 6.731-15.736 10.532-23.001a597.549 597.549 0 0 0 11.225-22.654c.92-1.843 2.243-4.841 3.97-8.994 1.727-4.147 2.591-7.953 2.591-11.412 0-3.92-1.727-5.877-5.181-5.877-3.227 0-6.51 1.559-9.845 4.671a55.32 55.32 0 0 0-8.805 10.547c-2.533 3.926-4.487 7.037-5.868 9.336-4.374 8.767-8.236 16.316-11.571 22.654-3.283 6.235-6.618 12.066-10.009 17.522a897.766 897.766 0 0 1-8.805 15.161c-5.067 8.534-11.282 15.907-18.65 22.137-3.919 3.231-7.771 5.592-11.566 7.088-3.8 1.496-7.31 2.247-10.531 2.247-5.755 0-10.532-2.019-14.333-6.053-3.8-4.033-5.697-9.392-5.697-16.083 0-3.92.914-8.647 2.76-14.177 2.988-8.3 7.482-16.254 13.469-23.866a547.867 547.867 0 0 0 17.264-23.171c3.454-4.608 5.18-9.103 5.18-13.489 0-2.304-.636-4.261-1.897-5.877-1.267-1.61-3.511-2.537-6.731-2.765-1.847-.461-3.92-.694-6.215-.694h-20.376c-1.154 0-2.193-.114-3.108-.347-.92 5.763-2.823 12.226-5.697 19.366a254.611 254.611 0 0 1-9.845 21.442 377.143 377.143 0 0 1-7.385 13.665c-3.658 6.895-7.867 12.954-12.645 18.154-5.3 5.763-12.202 8.647-20.717 8.647-7.828 0-13.81-2.765-17.957-8.3-6.447 10.61-14.275 19.485-23.483 26.63-9.209 7.146-19.224 10.724-30.045 10.724-8.754 0-16.292-2.827-22.62-8.471-6.334-5.649-9.498-14.353-9.498-26.112 0-3.977.397-8.045 1.17-12.192a459.19 459.19 0 0 1-5.482 9.08c-4.721 7.606-10.418 14.757-17.093 21.442-2.994 2.998-7.027 5.706-12.088 8.129-5.068 2.418-10.015 3.63-14.85 3.63-5.754 0-10.878-1.673-15.366-5.012-4.487-3.34-6.731-8.818-6.731-16.43 0-8.067 1.954-16.948 5.868-26.631 3.914-9.682 7.595-18.33 11.049-25.936 1.84-3.687 4.317-8.699 7.424-15.042a274.144 274.144 0 0 1 10.186-18.848h-16.23c-.693 0-1.034-.575-1.034-1.729 0-.916.347-1.901 1.034-2.942.687-1.041 1.494-1.558 2.42-1.558 6.442 0 11.276-.575 14.503-1.73 3.221-1.149 5.981-2.765 8.288-4.841 3.681-3.226 7.305-7.379 10.878-12.448 3.568-5.069 7.078-9.45 10.532-13.142 2.534-3.225 5.698-5.649 9.498-7.265 2.96-1.251 5.113-1.883 6.465-1.883M413.879 330c11.276 0 22.444-5.535 33.499-16.6a91.658 91.658 0 0 0 8.805-10.201 104.213 104.213 0 0 0 7.078-10.894c-2.994-3.459-5.124-7.203-6.391-11.242-1.267-4.034-1.897-7.896-1.897-11.583 0-5.757 1.034-10.895 3.107-15.389 2.074-4.494 4.948-6.741 8.635-6.741 1.84 0 3.624.921 5.351 2.764 1.727 1.849 2.817 4.728 3.283 8.648.688-3.226 1.034-6.685 1.034-10.377 0-8.761-1.613-15.736-4.834-20.924-3.227-5.189-8.635-7.783-16.23-7.783-4.607 0-9.322 1.786-14.156 5.359-4.834 3.578-9.384 7.902-13.639 12.971-4.26 5.075-8.004 10.263-11.225 15.565-3.226 5.308-5.646 9.683-7.254 13.142-3.92 8.534-6.732 16.14-8.458 22.825-1.727 6.69-2.591 12.567-2.591 17.636 0 7.384 1.557 13.028 4.664 16.948 3.107 3.919 6.845 5.882 11.225 5.882m81.142 219.263c11.975 0 23.825-2.999 35.566-8.995 11.742-5.996 23.138-14.126 34.186-24.383 11.049-10.263 21.581-21.846 31.596-34.755a493.632 493.632 0 0 0 28.142-40.29c8.748-13.955 16.627-27.495 23.654-40.637 7.021-13.142 12.952-25.134 17.786-35.966h-3.454c-17.496 0-34.419 2.708-50.762 8.13-16.349 5.416-31.823 12.737-46.445 21.959-14.616 9.217-27.852 19.48-39.713 30.778-11.855 11.293-22.154 22.882-30.908 34.755-8.748 11.873-15.48 23.285-20.201 34.237-4.714 10.945-7.078 20.691-7.078 29.224 0 7.834 2.193 14.121 6.562 18.848 4.374 4.722 11.395 7.089 21.063 7.089M391.509 173.084c-1.517 0-3.778.643-6.908 1.974a24.908 24.908 0 0 0-9.918 7.567c-3.465 3.704-7.027 8.158-10.6 13.227-3.505 4.978-7.101 9.097-10.697 12.249-2.198 1.979-4.857 3.533-7.919 4.625-3.078 1.104-7.827 1.661-14.122 1.661-1.318 0-2.454.694-3.363 2.065-.812 1.223-1.227 2.424-1.227 3.573 0 2.662 1.665 2.867 2.17 2.867h14.247a275.01 275.01 0 0 0-9.219 17.21 2734.304 2734.304 0 0 1-7.419 15.036l-.011.017-.012.017c-3.459 7.623-7.186 16.367-11.071 25.982-3.948 9.762-5.954 18.871-5.954 27.057 0 8.187 2.42 13.791 7.192 17.34 4.675 3.477 10.072 5.24 16.042 5.24 4.982 0 10.14-1.257 15.338-3.743 5.163-2.469 9.333-5.28 12.401-8.352 6.703-6.713 12.508-13.995 17.257-21.647a400.909 400.909 0 0 0 2.568-4.204 64.55 64.55 0 0 0-.358 6.713c0 12.05 3.323 21.118 9.879 26.961 6.515 5.814 14.377 8.761 23.375 8.761 11.021 0 21.365-3.687 30.738-10.957 8.874-6.884 16.576-15.48 22.91-25.567 4.301 4.961 10.288 7.475 17.832 7.475 8.805 0 16.059-3.032 21.558-9.011 4.794-5.217 9.106-11.401 12.804-18.376a378.206 378.206 0 0 0 7.396-13.693c3.675-7.14 7.004-14.382 9.884-21.539 2.704-6.719 4.573-12.92 5.567-18.456.682.097 1.409.148 2.182.148h20.376c2.187 0 4.187.222 5.942.66l.097.023h.096c2.875.216 4.869 1.001 5.925 2.344 1.114 1.422 1.653 3.118 1.653 5.177 0 4.113-1.664 8.42-4.953 12.806l-.012.011-.011.012a549.116 549.116 0 0 1-17.229 23.12c-6.039 7.669-10.629 15.805-13.645 24.179-1.88 5.638-2.829 10.53-2.829 14.564 0 6.958 2.022 12.63 6.01 16.862 4.005 4.25 9.106 6.412 15.156 6.412 3.346 0 7.027-.785 10.946-2.327 3.892-1.53 7.885-3.977 11.873-7.271 7.442-6.286 13.798-13.83 18.899-22.432a863.162 863.162 0 0 0 8.805-15.161c3.392-5.456 6.772-11.367 10.038-17.574 3.374-6.411 7.266-14.029 11.56-22.636 1.415-2.356 3.374-5.473 5.828-9.268 2.472-3.823 5.374-7.305 8.624-10.331 3.101-2.896 6.152-4.364 9.066-4.364 1.88 0 4.045.541 4.045 4.739 0 3.294-.841 6.986-2.506 10.974-1.692 4.074-3.022 7.072-3.936 8.921a596.677 596.677 0 0 1-11.214 22.631c-3.806 7.271-7.362 15.048-10.583 23.103-1.392 3.482-2.624 7.248-3.67 11.196-1.056 4-1.59 7.937-1.59 11.703 0 4.597 1.17 8.653 3.476 12.049 2.398 3.545 6.607 5.342 12.509 5.342 4.278 0 8.68-1.024 13.077-3.043 4.294-1.974 8.839-4.751 13.503-8.249l.045-.035.046-.039c3.221-2.993 7.424-7.203 12.48-12.499a284.866 284.866 0 0 0 10.623-11.794l-25.677 63.82h-4.414c-18.91.228-37.486 3.038-55.232 8.346-17.718 5.297-34.408 12.368-49.615 21.027-15.201 8.647-28.977 18.529-40.951 29.367-19.104 17.061-33.942 35.079-44.088 53.557-10.174 18.529-15.332 35.005-15.332 48.966 0 10.86 3.244 19.792 9.634 26.545 6.408 6.776 16.332 10.212 29.489 10.212 13.951 0 29.249-4.762 45.462-14.16 16.121-9.342 32.703-22.728 49.279-39.79 16.542-17.027 32.851-37.388 48.473-60.503 15.463-22.887 29.778-48.334 42.553-75.648 13.873 2.083 25.33 6.338 34.062 12.642 8.89 6.428 15.451 14.188 19.49 23.063 4.056 8.915 6.112 18.239 6.112 27.712 0 10.604-2.46 21.026-7.311 30.971-4.851 9.927-11.759 18.165-20.535 24.474-8.748 6.287-19.337 9.592-31.471 9.814h-.017c-.432 0-1.733.011-2.17 1.069-.449 1.093.557 2.1.886 2.43 1.25 1.251 2.625 1.888 4.085 1.888 14.44-.233 27.073-3.845 37.571-10.735 10.475-6.878 18.621-15.804 24.211-26.534 5.584-10.724 8.419-22.068 8.419-33.724 0-10.502-2.539-20.805-7.55-30.608-5.021-9.819-12.872-18.398-23.336-25.498-10.134-6.884-23.37-11.469-39.372-13.648 3.533-7.817 7.561-17.301 11.986-28.212 4.885-12.055 9.941-24.509 15.019-37.002a1503.295 1503.295 0 0 1 16.048-38.014c5.374-12.255 10.589-23.223 15.508-32.61 4.869-9.302 9.39-16.077 13.435-20.128l1.767-1.769-2.494-.171a32.5 32.5 0 0 0-2.21-.08c-6.027 0-11.469 1.787-16.161 5.32-5.147 3.862-9.538 8.619-13.054 14.131-3.471 5.45-6.397 10.548-8.692 15.15-6.885 14.479-14.19 28.531-21.728 41.792-7.493 13.187-17.394 24.833-29.426 34.607-4.158 3.51-8.214 5.279-12.06 5.279-2.772 0-6.459-.813-6.459-7.856 0-3.061 1.017-7.106 3.023-12.021 2.749-6.878 5.987-14.121 9.634-21.545 3.641-7.418 8.396-16.299 14.128-26.397v-.012l.017-.011c1.851-3.476 3.726-7.589 5.578-12.214 1.886-4.728 2.846-9.41 2.846-13.91s-1.307-8.198-3.891-11.282c-2.636-3.14-7.402-4.727-14.168-4.727-3.828 0-7.765.904-11.69 2.696-3.92 1.787-7.584 4.489-10.896 8.039l-.028.029-.029.034a132.347 132.347 0 0 0-12.889 19.189c-3.675 6.434-6.999 12.743-9.873 18.734-1.574 3.277-3.511 7.066-5.754 11.264a4.811 4.811 0 0 0-.557.7l-.023.034-.023.034a2225.811 2225.811 0 0 0-7.776 14.013 179.826 179.826 0 0 1-10.294 16.492c-3.726 5.314-7.794 9.962-12.088 13.813-6.663 6.002-12.1 9.046-16.161 9.046-6.101 0-6.806-5.467-6.806-9.581 0-4.113 1.079-9.057 3.215-15.007 2.142-5.991 5.647-12.715 10.413-19.992a529.057 529.057 0 0 0 8.822-13.682c2.647-4.267 5.499-9.228 8.487-14.74 1.636-2.816 3.34-6.287 5.061-10.315 1.778-4.153 2.682-8.084 2.682-11.685 0-3.027-.909-5.609-2.699-7.663-1.863-2.128-5.078-3.158-9.833-3.158-3.692 0-8.248.177-13.543.524-5.248.341-10.333.518-15.121.518-3.199 0-6.13-.114-8.709-.342-2.056-.176-3.794-.426-5.192-.745.148-.984.267-2.122.352-3.402.114-1.775.176-3.721.176-5.786a51.29 51.29 0 0 0-.352-5.837c-.238-2.008-.596-3.874-1.073-5.541v-.023l-.017-.023c-2.233-6.713-5.272-10.115-9.021-10.115-2.716 0-5.079 1.639-7.016 4.876-1.823 3.049-2.749 6.798-2.749 11.133 0 .996.062 2.026.182 3.072.119 1.064.295 2.208.533 3.38v.022l.012.023c1.829 7.339 5.379 12.675 10.56 15.873a100.057 100.057 0 0 1-8.918 27.444 1986.55 1986.55 0 0 1-11.35 22.659c-1.699 3.05-3.67 6.327-5.851 9.74-2.801 4.375-6.141 8.056-9.919 10.952-3.692 2.827-8.225 4.261-13.469 4.261-3.016 0-5.794-.706-8.242-2.1-2.272-1.285-4.158-2.901-5.607-4.807 5.596-10.473 9.356-21.431 11.18-32.581.698-4.187 1.05-8.323 1.05-12.289 0-9.882-2.51-18.364-7.47-25.219-5.038-6.969-13.945-10.502-26.471-10.502s-24.137 4.346-33.402 12.925c-9.146 8.466-16.832 18.513-22.853 29.874-2.313 4.46-4.511 9.449-6.539 14.842a472.164 472.164 0 0 1-13.088 22.085c-4.323 6.839-9.163 13.182-14.378 18.86l-.017.017-.017.017c-2.448 2.896-5.964 5.786-10.441 8.59-4.397 2.754-8.492 4.148-12.173 4.148-3.307 0-5.533-.962-6.817-2.942-1.369-2.099-2.062-4.801-2.062-8.027 0-5.16 1.079-10.849 3.215-16.914 2.164-6.172 3.721-10.331 4.63-12.368v-.017l.011-.017c4.346-10.547 9.39-21.635 14.991-32.956 5.437-11.009 10.254-20.157 14.315-27.206h21.791c1.256 0 2.528-.711 3.784-2.105 1.238-1.376 1.846-2.645 1.846-3.874 0-.842-.568-1.832-2.17-1.832h-20.905c.812-1.485 2.011-3.572 3.579-6.241 2.136-3.635 4.544-7.697 7.595-12.789a434.34 434.34 0 0 1 7.924-12.76c2.557-3.96 4.357-6.662 5.494-8.255l.846-1.183-1.352-.535c-.392-.16-.846-.233-1.38-.233l-.006.039Zm22.365 155.779c-4.045 0-7.425-1.781-10.334-5.451-2.931-3.692-4.413-9.153-4.413-16.236 0-4.95.857-10.787 2.55-17.352 1.704-6.605 4.533-14.223 8.391-22.637 1.573-3.385 3.993-7.771 7.191-13.028 3.181-5.234 6.925-10.422 11.123-15.423 4.175-4.972 8.703-9.273 13.446-12.789 4.613-3.408 9.151-5.137 13.486-5.137 7.237 0 12.23 2.372 15.264 7.248 3.096 4.983 4.663 11.822 4.663 20.321a54.17 54.17 0 0 1-.181 4.443c-.574-1.393-1.301-2.56-2.17-3.493-1.943-2.076-4.022-3.129-6.181-3.129-4.147 0-7.402 2.492-9.663 7.407-2.13 4.626-3.215 9.962-3.215 15.867 0 3.795.659 7.811 1.954 11.93 1.227 3.92 3.278 7.629 6.09 11.026a102.58 102.58 0 0 1-6.612 10.086 90.877 90.877 0 0 1-8.697 10.076c-10.777 10.792-21.78 16.265-32.692 16.265v.006Zm81.142 219.262c-9.288 0-16.099-2.264-20.235-6.724-4.152-4.495-6.26-10.576-6.26-18.075 0-8.328 2.352-18.011 6.987-28.775 4.664-10.821 11.418-22.267 20.076-34.015 8.674-11.771 19.03-23.416 30.777-34.607 11.759-11.201 25.063-21.51 39.537-30.641a211.125 211.125 0 0 1 46.195-21.846c16.145-5.353 33.107-8.073 50.405-8.073h1.698c-4.669 10.343-10.395 21.875-17.03 34.294-6.976 13.051-14.923 26.705-23.615 40.569a497.56 497.56 0 0 1-28.079 40.199c-9.93 12.8-20.519 24.446-31.471 34.618-10.924 10.138-22.336 18.279-33.93 24.201-11.532 5.883-23.325 8.869-35.05 8.869l-.005.006Z"/></g><defs><clipPath id="a"><path fill="#fff" d="M0 0h759v557H0z"/></clipPath></defs></svg>