<svg xmlns="http://www.w3.org/2000/svg" fill="none" viewBox="0 0 210 26"><path fill="#FC2A4F" d="M31.896 19.578V8.985h4.128a6.02 6.02 0 0 1 2.24.408 5.67 5.67 0 0 1 1.795 1.128c.512.48.912 1.042 1.204 1.687.291.646.437 1.342.437 2.088 0 .747-.144 1.44-.429 2.08a5.044 5.044 0 0 1-1.204 1.673 5.828 5.828 0 0 1-1.803 1.12 5.997 5.997 0 0 1-2.24.408h-4.128v.001Zm2.225-1.952h1.872a3.466 3.466 0 0 0 2.432-.97c.312-.302.552-.653.722-1.051a3.32 3.32 0 0 0 .253-1.31c0-.474-.084-.9-.253-1.31a3.23 3.23 0 0 0-.722-1.074 3.387 3.387 0 0 0-1.09-.719 3.44 3.44 0 0 0-1.327-.258h-1.887v6.692ZM46.839 19.73a4.32 4.32 0 0 1-3.712-2.02c-.38-.61-.568-1.298-.568-2.065a4.043 4.043 0 0 1 2.025-3.54 4.044 4.044 0 0 1 2.07-.546c.757 0 1.451.185 2.048.553a3.92 3.92 0 0 1 1.412 1.505c.343.636.514 1.363.514 2.18v.544h-5.922c.092.313.246.596.46.848.215.253.475.446.783.583.306.136.639.205.997.205s.675-.053.981-.16c.308-.106.568-.26.783-.461l1.381 1.241c-.49.393-.995.681-1.51.862a5.214 5.214 0 0 1-1.742.273v-.002Zm-2.163-4.873h3.897a2.21 2.21 0 0 0-.407-.825 2.001 2.001 0 0 0-.682-.552 1.917 1.917 0 0 0-.86-.197 2.04 2.04 0 0 0-.889.19 1.789 1.789 0 0 0-.667.544c-.179.237-.31.517-.39.84h-.002ZM55.723 19.73c-.799 0-1.519-.182-2.163-.545a4.14 4.14 0 0 1-1.534-1.475 3.888 3.888 0 0 1-.568-2.065c0-.756.189-1.46.568-2.08.378-.621.889-1.11 1.533-1.468.645-.359 1.366-.538 2.164-.538.797 0 1.518.18 2.163.538a4.089 4.089 0 0 1 1.533 1.467c.38.62.568 1.315.568 2.08 0 .766-.187 1.446-.56 2.066a4.088 4.088 0 0 1-1.526 1.475c-.645.363-1.37.545-2.178.545Zm0-1.801c.419 0 .798-.103 1.135-.31a2.262 2.262 0 0 0 1.09-1.99c0-.435-.1-.807-.3-1.15a2.286 2.286 0 0 0-.798-.818 2.106 2.106 0 0 0-1.112-.303 2.2 2.2 0 0 0-1.135.303 2.208 2.208 0 0 0-.799.817 2.293 2.293 0 0 0-.29 1.15c0 .424.096.823.29 1.166.195.343.458.618.79.825.334.207.71.31 1.129.31ZM64.191 19.578V8.985h2.87l2.93 5.72 2.946-5.72h2.838v10.593H73.69v-7.793l-3.729 7.037-3.713-7.066v7.823H64.19ZM78.95 19.578l-2.209-7.884h2.01l1.32 5.085 1.595-5.085h1.764l1.58 5.1 1.32-5.1h1.963l-2.209 7.884h-2.026l-1.534-5.04-1.549 5.04H78.95ZM91.516 19.715c-.562 0-1.064-.104-1.503-.31a2.476 2.476 0 0 1-1.028-.854 2.194 2.194 0 0 1-.368-1.257c0-.757.287-1.344.859-1.763.573-.418 1.37-.628 2.393-.628a6 6 0 0 1 1.965.317v-.575c0-.454-.144-.797-.43-1.029-.286-.232-.706-.348-1.258-.348-.327 0-.69.054-1.09.16-.398.106-.848.27-1.35.491l-.752-1.543a11.704 11.704 0 0 1 1.81-.62 7.177 7.177 0 0 1 1.72-.213c1.094 0 1.937.255 2.531.765.593.51.89 1.228.89 2.156v5.115h-2.071v-.56c-.328.243-.681.42-1.059.53-.379.11-.798.167-1.258.167l-.001-.001Zm-.905-2.467c0 .303.133.542.399.719.265.176.619.265 1.058.265.348 0 .668-.04.959-.121.29-.08.56-.212.806-.393v-1.15a3.399 3.399 0 0 0-.799-.236 5.476 5.476 0 0 0-.889-.068c-.48 0-.856.086-1.128.258a.814.814 0 0 0-.406.727v-.001ZM97.346 19.578v-7.884h2.102v.65c.614-.534 1.366-.802 2.255-.802.614 0 1.158.134 1.634.4.475.268.846.637 1.112 1.106.266.469.399 1.011.399 1.626v4.903h-2.087v-4.585c0-.515-.151-.92-.452-1.219-.302-.298-.708-.446-1.22-.446-.358 0-.675.068-.951.205-.276.136-.506.33-.69.582v5.463h-2.102v.001ZM110.187 19.73c-.798 0-1.519-.182-2.163-.545a4.14 4.14 0 0 1-1.534-1.475 3.886 3.886 0 0 1-.568-2.065c0-.756.189-1.46.568-2.08.379-.621.889-1.11 1.534-1.468.644-.359 1.366-.538 2.163-.538.797 0 1.518.18 2.163.538a4.095 4.095 0 0 1 1.534 1.467c.379.62.567 1.315.567 2.08 0 .766-.186 1.446-.559 2.066a4.09 4.09 0 0 1-1.527 1.475c-.644.363-1.37.545-2.178.545Zm0-1.801c.419 0 .798-.103 1.135-.31a2.26 2.26 0 0 0 1.089-1.99c0-.435-.099-.807-.298-1.15a2.293 2.293 0 0 0-.798-.818 2.108 2.108 0 0 0-1.113-.303c-.408 0-.798.101-1.135.303a2.206 2.206 0 0 0-.798.817 2.286 2.286 0 0 0-.291 1.15 2.279 2.279 0 0 0 1.081 1.99c.333.208.708.31 1.128.31ZM123.949 19.73a5.99 5.99 0 0 1-2.24-.416 5.576 5.576 0 0 1-1.818-1.158 5.377 5.377 0 0 1-1.212-1.732 5.252 5.252 0 0 1-.437-2.142c0-.767.146-1.48.437-2.14a5.397 5.397 0 0 1 1.22-1.741 5.63 5.63 0 0 1 1.818-1.166 5.934 5.934 0 0 1 2.232-.416c.593 0 1.166.082 1.718.243a6.302 6.302 0 0 1 1.542.681 4.83 4.83 0 0 1 1.22 1.06l-1.503 1.452a3.68 3.68 0 0 0-1.336-1.067 3.85 3.85 0 0 0-1.641-.355 3.45 3.45 0 0 0-1.351.265c-.419.177-.782.42-1.089.727a3.372 3.372 0 0 0-.721 1.082 3.52 3.52 0 0 0-.26 1.377c0 .505.089.936.268 1.355.179.42.423.782.736 1.09.312.308.68.547 1.105.72.424.171.893.257 1.404.257.562 0 1.089-.116 1.58-.348.491-.232.92-.565 1.289-.998l1.443 1.423a5.067 5.067 0 0 1-1.204 1.044 6.125 6.125 0 0 1-3.199.909l-.001-.006ZM133.047 19.73c-.798 0-1.518-.182-2.163-.545a4.14 4.14 0 0 1-1.534-1.475 3.886 3.886 0 0 1-.568-2.065c0-.756.189-1.46.568-2.08.379-.621.889-1.11 1.534-1.468.645-.359 1.366-.538 2.163-.538.797 0 1.519.18 2.163.538a4.087 4.087 0 0 1 1.534 1.467c.379.62.568 1.315.568 2.08a3.91 3.91 0 0 1-.56 2.066 4.09 4.09 0 0 1-1.527 1.475c-.644.363-1.37.545-2.178.545Zm0-1.801c.419 0 .798-.103 1.135-.31a2.27 2.27 0 0 0 .799-.825c.194-.343.291-.731.291-1.165 0-.435-.1-.807-.299-1.15a2.293 2.293 0 0 0-.798-.818 2.108 2.108 0 0 0-1.113-.303c-.408 0-.798.101-1.135.303a2.206 2.206 0 0 0-.798.817 2.297 2.297 0 0 0-.291 1.15c0 .424.097.823.291 1.166.194.343.458.618.79.825.333.207.709.31 1.128.31ZM138.447 19.578v-7.884h2.101v.65c.614-.534 1.366-.802 2.256-.802.613 0 1.158.134 1.633.4.476.268.847.637 1.113 1.106.265.469.398 1.011.398 1.626v4.903h-2.086v-4.585c0-.515-.152-.92-.452-1.219-.302-.298-.709-.446-1.22-.446-.358 0-.675.068-.951.205-.277.136-.506.33-.691.582v5.463h-2.101v.001ZM150.368 19.73a7.024 7.024 0 0 1-2.017-.28 5.138 5.138 0 0 1-1.634-.796l1.043-1.392c.46.303.902.53 1.327.681.424.152.847.227 1.266.227.47 0 .847-.078 1.128-.235.281-.156.422-.36.422-.613a.577.577 0 0 0-.239-.484c-.159-.121-.411-.207-.759-.258l-1.534-.227c-.788-.121-1.389-.376-1.803-.765-.414-.387-.622-.9-.622-1.535 0-.515.135-.959.407-1.333.271-.373.656-.66 1.158-.862.501-.201 1.084-.302 1.749-.302a6.18 6.18 0 0 1 1.726.243 5.484 5.484 0 0 1 1.572.742l-1.012 1.347a5.332 5.332 0 0 0-1.266-.59 4.173 4.173 0 0 0-1.204-.182c-.399 0-.683.07-.913.212-.23.142-.345.328-.345.56 0 .212.082.378.246.5.164.12.439.212.829.272l1.534.213c.798.111 1.407.362 1.826.757.42.393.629.892.629 1.497a2.1 2.1 0 0 1-.46 1.34c-.306.389-.723.697-1.25.923-.527.227-1.128.34-1.803.34h-.001ZM157.87 19.73c-.614 0-1.158-.134-1.634-.4a2.836 2.836 0 0 1-1.112-1.12c-.266-.48-.398-1.022-.398-1.627v-4.888h2.086v4.585c0 .515.15.921.452 1.219.302.298.708.446 1.22.446.348 0 .662-.07.943-.212a1.97 1.97 0 0 0 .698-.575v-5.463h2.102v7.884h-2.102v-.635c-.613.524-1.365.787-2.255.787ZM163.715 19.578V8.985l2.101-.348V19.58h-2.101ZM171.079 19.7c-.88 0-1.547-.2-2.003-.598-.456-.399-.683-.976-.683-1.733v-3.95h-1.641v-1.725h1.641V9.68l2.086-.469v2.483h2.302v1.725h-2.302v3.511c0 .363.085.623.254.78.169.157.452.235.851.235.215 0 .406-.013.575-.038.169-.025.356-.068.56-.129v1.695c-.215.07-.481.126-.798.167-.317.04-.598.06-.843.06l.001-.001ZM176.188 19.715c-.562 0-1.064-.104-1.503-.31a2.473 2.473 0 0 1-1.028-.854 2.193 2.193 0 0 1-.368-1.257c0-.757.287-1.344.859-1.763.573-.418 1.37-.628 2.393-.628.695 0 1.351.106 1.965.317v-.575c0-.454-.144-.797-.43-1.029-.286-.232-.706-.348-1.258-.348-.327 0-.691.054-1.089.16-.399.106-.849.27-1.351.491l-.752-1.543a11.73 11.73 0 0 1 1.811-.62 7.174 7.174 0 0 1 1.718-.213c1.095 0 1.938.255 2.532.765.593.51.889 1.228.889 2.156v5.115h-2.07v-.56c-.328.243-.681.42-1.059.53-.379.11-.798.167-1.258.167l-.001-.001Zm-.905-2.467c0 .303.133.542.399.719.265.176.619.265 1.058.265.348 0 .668-.04.959-.121.291-.08.56-.212.805-.393v-1.15a3.382 3.382 0 0 0-.798-.236 5.467 5.467 0 0 0-.889-.068c-.481 0-.857.086-1.128.258a.814.814 0 0 0-.406.727v-.001ZM182.018 19.578v-7.884h2.102v.65c.613-.534 1.365-.802 2.255-.802.614 0 1.158.134 1.634.4.475.268.846.637 1.112 1.106.266.469.398 1.011.398 1.626v4.903h-2.086v-4.585c0-.515-.151-.92-.452-1.219-.302-.298-.708-.446-1.22-.446-.358 0-.675.068-.951.205-.276.136-.506.33-.69.582v5.463h-2.102v.001ZM194.768 19.73c-.778 0-1.48-.179-2.109-.537a4.087 4.087 0 0 1-1.504-1.468c-.373-.62-.56-1.319-.56-2.095 0-.777.185-1.458.553-2.073a4.083 4.083 0 0 1 1.503-1.468 4.182 4.182 0 0 1 2.117-.545c.644 0 1.255.122 1.833.363.578.243 1.072.59 1.481 1.044l-1.274 1.348a3.038 3.038 0 0 0-.928-.712 2.437 2.437 0 0 0-1.051-.227 2.078 2.078 0 0 0-1.872 1.106 2.46 2.46 0 0 0-.275 1.18c0 .444.096.81.291 1.158.194.347.454.622.782.824.328.202.701.303 1.12.303a2.27 2.27 0 0 0 1.005-.227c.312-.152.612-.378.897-.682l1.258 1.302c-.419.444-.91.79-1.472 1.037a4.416 4.416 0 0 1-1.795.37ZM199.754 22.847c-.185 0-.36-.008-.529-.023a1.505 1.505 0 0 1-.407-.083v-1.77c.185.04.424.06.722.06.767 0 1.299-.359 1.595-1.075l.123-.317-3.115-7.945h2.332l1.979 5.372 2.255-5.372h2.271l-3.683 8.52c-.277.625-.578 1.133-.905 1.52-.327.39-.704.671-1.127.848-.425.176-.928.265-1.511.265ZM20.963 4.27h.185c.104-.004.208.008.32.035a.803.803 0 0 1 .21.081.63.63 0 0 1 .154.118l.037.034a.66.66 0 0 1 .13.415c.004.392-.23.891-.628 1.336L20.2 7.496a.292.292 0 0 0-.083.209.331.331 0 0 0 .27.322l1.253.236c.874.151 1.532.694 1.635 1.35.01.058.014.115.014.172.005.345-.14.678-.416.968l-1.22 1.25a.293.293 0 0 0-.084.212c0 .11.062.219.162.278l1.65.998c.18.093.338.188.48.289.493.353.79.763.794 1.099a.553.553 0 0 1-.02.155c-.113.381-.674.59-1.43.533l-.453-.035.02.02a13.032 13.032 0 0 0-3.89.48 2.486 2.486 0 0 0-.526-.224l-.582-.223.31-.475c.217-.338.294-.707.224-1.07a1.288 1.288 0 0 0-.052-.189c-.224-.639-.907-1.066-1.7-1.061h-.01l.15-.232c.273-.46.38-.924.304-1.314a1.104 1.104 0 0 0-.144-.373.985.985 0 0 0-.192-.228.718.718 0 0 0-.08-.058.956.956 0 0 0-.254-.13 1.07 1.07 0 0 0-.297-.057c-.109-.005-.209 0-.306.018-1.027.142-2.807 1.677-3.927 3.96 1.49-6.356 7.32-9.954 9.164-10.11l-.001.003Z"/><path fill="#FC2A4F" d="m11.698 20.218-.012-.061c-.931-4.982 2.984-8.767 4.156-8.97a.178.178 0 0 0 .04-.005.563.563 0 0 1 .152-.01c.032.002.06.006.087.016.022.008.04.016.052.026l.022.015c.028.03.046.072.058.126.037.194-.041.487-.207.764l-.562.864a.353.353 0 0 0-.05.264.385.385 0 0 0 .375.315h.777c.461-.006.844.198.952.511a.494.494 0 0 1 .021.08.714.714 0 0 1-.119.51l-.59.9c-.05.075-.067.17-.05.265.026.132.12.244.245.291l1.015.389.08.03.02.007c.102.031.198.068.285.11l.008.002c.325.156.464.336.485.442a.16.16 0 0 1 .002.046c-.013.134-.241.294-.65.341-.01 0-.018.003-.028.004-2.629.37-4.592 1.766-6 4.268l-.028.048-.044.078a9.424 9.424 0 0 1-.332-.993 9.082 9.082 0 0 1-.16-.673Z"/><path fill="#FC2A4F" d="M13.23 23.806c-2.249-1.211-3.717-3.526-3.769-6.388-.125-6.94 8.124-10.135 5.053-15.347-.624-1.06-1.741-1.623-2.69-1.882a5.258 5.258 0 0 0-.96-.17 4.946 4.946 0 0 0-3.189.81l-.03.02a4.625 4.625 0 0 0-.392.301 2.55 2.55 0 0 0-.789 1.454c-.05.064-.802.194-2.035 1.021-.105.07-.211.144-.323.225.328.005.648.03.965.12.436.122.828.329 1.206.562.165.101.333.201.499.3.1.066.202.132.3.2.194.134.38.25.56.354 3.07 1.972 4.438-.444 4.438-.444C11.998 9.372.478 8.417.014 17.227c-.478 9.064 12.477 10.236 15.795 7.42a7.71 7.71 0 0 1-2.58-.841Z"/></svg>