<svg xmlns="http://www.w3.org/2000/svg" fill="none" viewBox="0 0 17 17"><path fill="#fff" d="M8.273 1.848c2.096 0 2.339.007 3.165.049.763.034 1.18.16 1.457.27.368.14.625.313.902.583.278.278.444.535.583.902.104.278.236.694.27 1.458.035.825.05 1.075.05 3.164 0 2.089-.008 2.339-.05 3.164-.034.764-.159 1.18-.27 1.457a2.435 2.435 0 0 1-.583.903c-.27.277-.534.444-.902.582-.277.105-.694.236-1.457.271-.826.035-1.076.049-3.165.049-2.088 0-2.338-.007-3.164-.049-.763-.034-1.18-.16-1.457-.27a2.436 2.436 0 0 1-.902-.583 2.353 2.353 0 0 1-.583-.902c-.104-.278-.236-.694-.27-1.458-.035-.825-.05-1.075-.05-3.164 0-2.089.008-2.339.05-3.164.034-.764.159-1.18.27-1.458.139-.367.312-.624.583-.902.277-.277.534-.444.902-.583.277-.104.694-.236 1.457-.27.826-.035 1.076-.049 3.164-.049Zm0-1.409C6.143.44 5.88.446 5.04.488c-.833.035-1.402.174-1.902.368-.513.201-.95.465-1.387.902-.438.437-.701.874-.903 1.388-.194.5-.326 1.068-.36 1.901C.446 5.88.439 6.151.439 8.281s.007 2.394.049 3.234c.034.832.173 1.401.36 1.901.202.514.465.95.902 1.388.438.437.875.7 1.388.902.5.194 1.069.326 1.902.368.832.034 1.103.048 3.233.048s2.395-.007 3.234-.048c.833-.035 1.402-.174 1.902-.368.513-.201.95-.465 1.387-.902.438-.437.701-.874.902-1.388.195-.5.327-1.069.361-1.901.035-.833.049-1.104.049-3.234s-.007-2.394-.049-3.234c-.034-.833-.173-1.402-.36-1.901a3.856 3.856 0 0 0-.903-1.388A3.856 3.856 0 0 0 13.41.856c-.5-.194-1.07-.326-1.902-.368-.832-.035-1.103-.049-3.234-.049Z"/><path fill="#fff" d="M8.271 4.245A4.028 4.028 0 0 0 4.247 8.27a4.028 4.028 0 0 0 4.024 4.025 4.028 4.028 0 0 0 4.025-4.025 4.028 4.028 0 0 0-4.025-4.025Zm0 6.634a2.61 2.61 0 0 1-2.609-2.61 2.615 2.615 0 0 1 2.61-2.608A2.615 2.615 0 0 1 10.88 8.27a2.615 2.615 0 0 1-2.61 2.61ZM13.395 4.09a.945.945 0 0 1-1.887 0 .945.945 0 0 1 1.887 0Z"/></svg>