<svg xmlns="http://www.w3.org/2000/svg" fill="none" viewBox="0 0 196 26"><g fill="#008AC7" clip-path="url(#a)"><path d="M30.355 20.303V5.8h2.941V17.65h7.768v2.652H30.355ZM47.698 20.51c-1.055 0-2.011-.251-2.87-.756a5.676 5.676 0 0 1-2.039-2.01c-.5-.835-.75-1.778-.75-2.829 0-1.05.24-1.979.72-2.828a5.451 5.451 0 0 1 1.957-2.02 5.205 5.205 0 0 1 2.738-.747c1.001 0 1.917.253 2.708.757a5.295 5.295 0 0 1 1.866 2.06c.453.871.68 1.866.68 2.985v.746h-7.83c.123.429.325.815.61 1.16a2.88 2.88 0 0 0 1.033.798c.406.187.844.28 1.319.28.474 0 .892-.072 1.297-.218.406-.145.75-.355 1.035-.631l1.826 1.699c-.65.538-1.316.932-1.999 1.18-.683.25-1.45.374-2.301.374Zm-2.86-6.671h5.151a3.055 3.055 0 0 0-.537-1.13 2.65 2.65 0 0 0-.902-.756c-.352-.18-.73-.27-1.137-.27-.432 0-.825.087-1.175.26a2.373 2.373 0 0 0-.883.745 3.237 3.237 0 0 0-.517 1.15ZM57.696 20.49c-.744 0-1.406-.142-1.987-.424-.581-.283-1.035-.674-1.358-1.17-.325-.498-.488-1.07-.488-1.72 0-1.037.379-1.84 1.136-2.414.758-.574 1.812-.86 3.164-.86.92 0 1.785.145 2.597.434v-.787c0-.621-.19-1.09-.568-1.408-.379-.318-.933-.477-1.663-.477-.433 0-.913.073-1.44.218-.527.145-1.122.37-1.785.673l-.994-2.113a15.09 15.09 0 0 1 2.393-.85 9.15 9.15 0 0 1 2.271-.29c1.448 0 2.563.35 3.347 1.047.784.698 1.176 1.682 1.176 2.953v7.004h-2.738v-.767c-.433.331-.9.574-1.4.725a5.71 5.71 0 0 1-1.663.228v-.002ZM56.5 17.112c0 .415.176.743.527.985.352.242.819.362 1.4.362.459 0 .882-.055 1.267-.166.384-.11.74-.29 1.065-.538V16.18a4.338 4.338 0 0 0-1.055-.32 7.018 7.018 0 0 0-1.177-.094c-.636 0-1.133.118-1.49.353a1.123 1.123 0 0 0-.538.993h.001ZM65.587 20.303V9.508h2.8v1.201a3.3 3.3 0 0 1 1.205-1.077 3.448 3.448 0 0 1 1.613-.373c.527.013.913.09 1.155.228v2.508a3.816 3.816 0 0 0-.679-.229 3.282 3.282 0 0 0-.74-.083c-.541 0-1.035.143-1.48.425-.446.282-.805.68-1.076 1.191v7.004h-2.8.002ZM73.88 20.303V9.508h2.78v.891c.811-.732 1.805-1.098 2.98-1.098.812 0 1.532.183 2.16.548.63.366 1.12.87 1.47 1.513.353.642.528 1.385.528 2.228v6.713H81.04v-6.278c0-.704-.2-1.26-.598-1.668-.399-.407-.936-.61-1.612-.61a2.72 2.72 0 0 0-1.257.28c-.366.186-.67.452-.913.797v7.48h-2.78ZM87.288 8.223c-.433 0-.805-.159-1.116-.476a1.596 1.596 0 0 1-.466-1.16c0-.457.155-.82.466-1.13a1.523 1.523 0 0 1 1.116-.467c.433 0 .821.155 1.126.466.305.312.456.688.456 1.13 0 .442-.152.843-.456 1.16-.305.318-.68.477-1.126.477Zm-1.379 12.08V9.508h2.78v10.795h-2.78ZM90.857 20.303V9.508h2.78v.891c.81-.732 1.805-1.098 2.98-1.098.812 0 1.532.183 2.16.548.629.366 1.119.87 1.47 1.513.352.642.527 1.385.527 2.228v6.713h-2.757v-6.278c0-.704-.2-1.26-.598-1.668-.4-.407-.936-.61-1.613-.61a2.72 2.72 0 0 0-1.257.28c-.365.186-.669.452-.913.797v7.48h-2.779ZM108.219 24.737a10.63 10.63 0 0 1-2.372-.259 8.86 8.86 0 0 1-2.069-.735l.974-2.197c.594.29 1.169.507 1.724.652a6.623 6.623 0 0 0 1.683.218c.812 0 1.43-.184 1.856-.549.427-.367.639-.909.639-1.626v-.85a4.786 4.786 0 0 1-2.901.954 5.174 5.174 0 0 1-2.708-.736 5.364 5.364 0 0 1-1.937-1.988c-.473-.837-.71-1.765-.71-2.788s.24-1.948.72-2.776a5.358 5.358 0 0 1 1.958-1.97c.825-.482 1.751-.724 2.779-.724.5 0 .994.072 1.48.218.488.145.933.355 1.339.631v-.704h2.758v10.774c0 1.423-.449 2.52-1.349 3.295-.9.774-2.188 1.16-3.864 1.16Zm-.02-6.775c.5 0 .96-.087 1.38-.26a3.04 3.04 0 0 0 1.075-.735v-4.206a3.122 3.122 0 0 0-1.095-.725 3.66 3.66 0 0 0-1.359-.25c-.581 0-1.102.136-1.562.405a3.017 3.017 0 0 0-1.5 2.642c0 .566.132 1.126.395 1.596.264.47.628.843 1.095 1.118.466.276.991.415 1.572.415h-.001ZM124.91 20.51a8.86 8.86 0 0 1-3.346-.662 9.492 9.492 0 0 1-2.921-1.845l1.683-2.175c.825.746 1.62 1.288 2.383 1.627a5.915 5.915 0 0 0 2.424.508c.594 0 1.108-.073 1.541-.218.433-.145.767-.355 1.003-.632.237-.276.356-.6.356-.974 0-.497-.177-.883-.527-1.16-.352-.277-.954-.484-1.806-.622l-2.819-.497c-1.204-.221-2.123-.66-2.758-1.316-.636-.656-.953-1.51-.953-2.559 0-.897.229-1.674.689-2.33.46-.657 1.106-1.161 1.937-1.513.832-.353 1.822-.529 2.971-.529 1.027 0 2.066.176 3.113.529a8.527 8.527 0 0 1 2.749 1.502l-1.582 2.217c-1.488-1.161-2.981-1.74-4.482-1.74-.527 0-.987.068-1.38.207-.392.138-.693.329-.902.57-.21.241-.315.52-.315.838 0 .47.159.822.476 1.057.318.235.835.422 1.552.56l2.677.434c1.42.236 2.485.694 3.194 1.378.71.684 1.065 1.586 1.065 2.705 0 .94-.247 1.754-.741 2.445-.493.69-1.19 1.23-2.089 1.616-.899.386-1.964.58-3.195.58h.003ZM136.574 20.51c-.811 0-1.531-.183-2.161-.548a3.832 3.832 0 0 1-1.47-1.533c-.352-.657-.527-1.399-.527-2.227V9.508h2.759v6.278c0 .704.199 1.26.598 1.668.398.407.936.61 1.612.61.46 0 .875-.096 1.247-.29.372-.193.679-.455.923-.787V9.508h2.779v10.795h-2.779v-.87c-.811.718-1.805 1.078-2.981 1.078ZM149.534 20.51c-1.027 0-1.957-.245-2.788-.735a5.498 5.498 0 0 1-1.988-2.01c-.494-.85-.74-1.806-.74-2.87 0-1.065.243-1.996.73-2.84a5.495 5.495 0 0 1 1.987-2.01c.838-.497 1.771-.745 2.799-.745.852 0 1.659.166 2.424.497a5.424 5.424 0 0 1 1.956 1.429l-1.683 1.844c-.392-.442-.801-.766-1.228-.974a3.13 3.13 0 0 0-1.389-.31c-.541 0-1.027.134-1.46.404-.433.27-.77.639-1.014 1.108-.244.47-.366 1.01-.366 1.617s.129 1.108.386 1.585c.257.476.601.853 1.034 1.13.433.275.926.414 1.48.414a2.91 2.91 0 0 0 1.328-.311c.413-.208.808-.518 1.186-.933l1.663 1.782a5.935 5.935 0 0 1-1.946 1.42 5.663 5.663 0 0 1-2.373.507l.002.002ZM160.019 20.51c-1.027 0-1.956-.245-2.788-.735a5.505 5.505 0 0 1-1.988-2.01c-.494-.85-.74-1.806-.74-2.87 0-1.065.244-1.996.73-2.84a5.495 5.495 0 0 1 1.987-2.01c.838-.497 1.771-.745 2.799-.745.852 0 1.66.166 2.424.497a5.428 5.428 0 0 1 1.957 1.429l-1.684 1.844c-.392-.442-.801-.766-1.227-.974a3.135 3.135 0 0 0-1.389-.31c-.541 0-1.028.134-1.46.404-.433.27-.771.639-1.015 1.108-.243.47-.365 1.01-.365 1.617s.128 1.108.386 1.585c.256.476.6.853 1.033 1.13.433.275.926.414 1.481.414.473 0 .915-.104 1.328-.311.412-.208.807-.518 1.186-.933l1.663 1.782a5.95 5.95 0 0 1-1.947 1.42 5.66 5.66 0 0 1-2.373.507l.002.002ZM170.648 20.51c-1.055 0-2.011-.251-2.871-.756a5.674 5.674 0 0 1-2.037-2.01c-.501-.835-.751-1.778-.751-2.829 0-1.05.24-1.979.72-2.828a5.455 5.455 0 0 1 1.957-2.02 5.204 5.204 0 0 1 2.738-.747c1.002 0 1.917.253 2.708.757a5.293 5.293 0 0 1 1.866 2.06c.453.871.68 1.866.68 2.985v.746h-7.829c.122.429.324.815.608 1.16a2.89 2.89 0 0 0 1.034.798c.406.187.845.28 1.319.28s.892-.072 1.298-.218a2.83 2.83 0 0 0 1.034-.631l1.826 1.699c-.649.538-1.315.932-1.998 1.18-.683.25-1.45.374-2.302.374Zm-2.86-6.671h5.151a3.057 3.057 0 0 0-.537-1.13 2.653 2.653 0 0 0-.902-.756c-.352-.18-.73-.27-1.136-.27-.433 0-.826.087-1.176.26a2.377 2.377 0 0 0-.883.745 3.241 3.241 0 0 0-.516 1.15h-.001ZM181.397 20.51a9.03 9.03 0 0 1-2.667-.383c-.832-.256-1.551-.619-2.16-1.087l1.379-1.907a8.22 8.22 0 0 0 1.755.933 4.796 4.796 0 0 0 1.673.31c.622 0 1.119-.106 1.491-.32.371-.215.557-.495.557-.84a.8.8 0 0 0-.315-.663c-.209-.166-.544-.283-1.004-.352l-2.028-.31c-1.042-.167-1.835-.515-2.383-1.047-.547-.532-.821-1.233-.821-2.104 0-.704.179-1.312.537-1.823.358-.511.869-.905 1.531-1.18.663-.277 1.434-.416 2.312-.416.784 0 1.545.112 2.282.332.736.22 1.429.56 2.078 1.016l-1.338 1.844c-.582-.373-1.139-.642-1.673-.808a5.346 5.346 0 0 0-1.592-.249c-.527 0-.903.097-1.208.29-.304.194-.456.45-.456.767 0 .29.108.518.324.684.216.166.582.289 1.096.373l2.029.29c1.054.151 1.858.497 2.413 1.036.554.538.832 1.223.832 2.05a2.94 2.94 0 0 1-.609 1.834c-.406.532-.957.953-1.653 1.264-.696.31-1.49.466-2.383.466h.001ZM191.355 20.51a9.03 9.03 0 0 1-2.667-.383c-.832-.256-1.551-.619-2.16-1.087l1.379-1.907a8.22 8.22 0 0 0 1.755.933 4.796 4.796 0 0 0 1.673.31c.622 0 1.119-.106 1.491-.32.371-.215.557-.495.557-.84a.8.8 0 0 0-.315-.663c-.209-.166-.544-.283-1.004-.352l-2.028-.31c-1.042-.167-1.835-.515-2.383-1.047-.547-.532-.821-1.233-.821-2.104 0-.704.179-1.312.537-1.823.358-.511.869-.905 1.531-1.18.663-.277 1.434-.416 2.312-.416.784 0 1.545.112 2.282.332.736.22 1.429.56 2.078 1.016l-1.338 1.844c-.582-.373-1.139-.642-1.673-.808a5.346 5.346 0 0 0-1.592-.249c-.527 0-.903.097-1.208.29-.304.194-.456.45-.456.767 0 .29.108.518.324.684.216.166.582.289 1.096.373l2.029.29c1.054.151 1.858.497 2.413 1.036.554.538.832 1.223.832 2.05a2.94 2.94 0 0 1-.609 1.834c-.406.532-.957.953-1.653 1.264-.696.31-1.49.466-2.383.466h.001ZM23.038 13.78c-.136-.1-.87-.54-1.368-.852-.131-.082-.842-.539-.843-.713a.301.301 0 0 1 .08-.212l1.132-1.2c.263-.278.455-.62.45-1.018 0-.056-.005-.114-.014-.172-.1-.657-.734-1.199-1.579-1.35l-1.21-.236c-.205-.039-.327-.29-.22-.476a.293.293 0 0 1 .04-.055l1.132-1.207c.384-.445.61-.945.605-1.336a.68.68 0 0 0-.125-.415l-.035-.034a.588.588 0 0 0-.148-.118 1.021 1.021 0 0 0-.512-.118l-.18.001c-.643.057-1.792.564-3.063 1.49a15.472 15.472 0 0 0-2.401 2.178 15.185 15.185 0 0 0-2.109 3.015 13.875 13.875 0 0 0-1.275 3.428c.783-1.653 1.9-2.915 2.834-3.539.355-.237.685-.382.958-.422.093-.017.19-.023.294-.018.1.006.197.024.287.057.095.034.181.08.246.13.026.017.06.042.077.058.072.066.135.143.186.227.066.112.113.237.138.374.073.39-.03.854-.294 1.313l-.146.232h.011c.202 0 .396.028.577.083.506.153.905.508 1.064.98.05.149.076.306.074.464a1.537 1.537 0 0 1-.24.794l-.299.476.561.222c.176.057.348.13.509.223.318-.095.644-.176.975-.243.567-.116 1.151-.19 1.75-.222.338-.019 1.528.016 1.785.006.557-.021.953-.22 1.045-.54a.53.53 0 0 0 .02-.154c-.004-.336-.29-.747-.767-1.1h-.002Z"/><path d="M23.038 13.78c-.136-.1-.87-.54-1.368-.852-.131-.082-.842-.539-.843-.713a.301.301 0 0 1 .08-.212l1.132-1.2c.263-.278.455-.62.45-1.018 0-.056-.005-.114-.014-.172-.1-.657-.734-1.199-1.579-1.35l-1.21-.236c-.205-.039-.327-.29-.22-.476a.293.293 0 0 1 .04-.055l1.132-1.207c.384-.445.61-.945.605-1.336a.68.68 0 0 0-.125-.415l-.035-.034a.588.588 0 0 0-.148-.118 1.021 1.021 0 0 0-.512-.118l-.18.001c-.643.057-1.792.564-3.063 1.49a15.472 15.472 0 0 0-2.401 2.178 15.185 15.185 0 0 0-2.109 3.015 13.875 13.875 0 0 0-1.275 3.428c.783-1.653 1.9-2.915 2.834-3.539.355-.237.685-.382.958-.422.093-.017.19-.023.294-.018.1.006.197.024.287.057.095.034.181.08.246.13.026.017.06.042.077.058.072.066.135.143.186.227.066.112.113.237.138.374.073.39-.03.854-.294 1.313l-.146.232h.011c.202 0 .396.028.577.083.506.153.905.508 1.064.98.05.149.076.306.074.464a1.537 1.537 0 0 1-.24.794l-.299.476.561.222c.176.057.348.13.509.223.318-.095.644-.176.975-.243.567-.116 1.151-.19 1.75-.222.338-.019 1.528.016 1.785.006.557-.021.953-.22 1.045-.54a.53.53 0 0 0 .02-.154c-.004-.336-.29-.747-.767-1.1h-.002Z"/><path d="M23.038 13.78c-.136-.1-.87-.54-1.368-.852-.131-.082-.842-.539-.843-.713a.301.301 0 0 1 .08-.212l1.132-1.2c.263-.278.455-.62.45-1.018 0-.056-.005-.114-.014-.172-.1-.657-.734-1.199-1.579-1.35l-1.21-.236c-.205-.039-.327-.29-.22-.476a.293.293 0 0 1 .04-.055l1.132-1.207c.384-.445.61-.945.605-1.336a.68.68 0 0 0-.125-.415l-.035-.034a.588.588 0 0 0-.148-.118 1.021 1.021 0 0 0-.512-.118l-.18.001c-.643.057-1.792.564-3.063 1.49a15.472 15.472 0 0 0-2.401 2.178 15.185 15.185 0 0 0-2.109 3.015 13.875 13.875 0 0 0-1.275 3.428c.783-1.653 1.9-2.915 2.834-3.539.355-.237.685-.382.958-.422.093-.017.19-.023.294-.018.1.006.197.024.287.057.095.034.181.08.246.13.026.017.06.042.077.058.072.066.135.143.186.227.066.112.113.237.138.374.073.39-.03.854-.294 1.313l-.146.232h.011c.202 0 .396.028.577.083.506.153.905.508 1.064.98.05.149.076.306.074.464a1.537 1.537 0 0 1-.24.794l-.299.476.561.222c.176.057.348.13.509.223.318-.095.644-.176.975-.243.567-.116 1.151-.19 1.75-.222.338-.019 1.528.016 1.785.006.557-.021.953-.22 1.045-.54a.53.53 0 0 0 .02-.154c-.004-.336-.29-.747-.767-1.1h-.002Z"/><path d="M18.289 17.145c.002-.015 0-.029-.002-.045-.017-.096-.128-.25-.378-.394-.032-.018-.064-.037-.097-.05a1.96 1.96 0 0 0-.276-.11l-.02-.007-.077-.03-.98-.39a.39.39 0 0 1-.188-.556l.57-.9a.726.726 0 0 0 .114-.51.622.622 0 0 0-.02-.079c-.064-.19-.227-.342-.447-.428a1.233 1.233 0 0 0-.471-.082h-.75a.376.376 0 0 1-.362-.315.368.368 0 0 1 .048-.264l.543-.863c.159-.277.235-.57.198-.765a.26.26 0 0 0-.054-.126.243.243 0 0 0-.155-.058c-.065-.003-.123.011-.186.015-.394.071-1.113.578-1.84 1.42a9.693 9.693 0 0 0-1.465 2.277 9.399 9.399 0 0 0-.577 1.627 8.608 8.608 0 0 0-.13 3.646l.01.06a8.423 8.423 0 0 0 .156.674c.055.21.186.623.186.623l.134.37a20.053 20.053 0 0 1 .347-.609 10.3 10.3 0 0 1 .545-.81c.116-.154.235-.302.357-.445a7.48 7.48 0 0 1 1.618-1.432c.88-.57 1.875-.933 2.995-1.097a.302.302 0 0 1 .028-.004c.395-.046.615-.207.628-.34l-.002-.003Z"/><path d="M18.289 17.145c.002-.015 0-.029-.002-.045-.017-.096-.128-.25-.378-.394-.032-.018-.064-.037-.097-.05a1.96 1.96 0 0 0-.276-.11l-.02-.007-.077-.03-.98-.39a.39.39 0 0 1-.188-.556l.57-.9a.726.726 0 0 0 .114-.51.622.622 0 0 0-.02-.079c-.064-.19-.227-.342-.447-.428a1.233 1.233 0 0 0-.471-.082h-.75a.376.376 0 0 1-.362-.315.368.368 0 0 1 .048-.264l.543-.863c.159-.277.235-.57.198-.765a.26.26 0 0 0-.054-.126.243.243 0 0 0-.155-.058c-.065-.003-.123.011-.186.015-.394.071-1.113.578-1.84 1.42a9.693 9.693 0 0 0-1.465 2.277 9.399 9.399 0 0 0-.577 1.627 8.608 8.608 0 0 0-.13 3.646l.01.06a8.423 8.423 0 0 0 .156.674c.055.21.186.623.186.623l.134.37a20.053 20.053 0 0 1 .347-.609 10.3 10.3 0 0 1 .545-.81c.116-.154.235-.302.357-.445a7.48 7.48 0 0 1 1.618-1.432c.88-.57 1.875-.933 2.995-1.097a.302.302 0 0 1 .028-.004c.395-.046.615-.207.628-.34l-.002-.003Z"/><path d="M18.289 17.145c.002-.015 0-.029-.002-.045-.017-.096-.128-.25-.378-.394-.032-.018-.064-.037-.097-.05a1.96 1.96 0 0 0-.276-.11l-.02-.007-.077-.03-.98-.39a.39.39 0 0 1-.188-.556l.57-.9a.726.726 0 0 0 .114-.51.622.622 0 0 0-.02-.079c-.064-.19-.227-.342-.447-.428a1.233 1.233 0 0 0-.471-.082h-.75a.376.376 0 0 1-.362-.315.368.368 0 0 1 .048-.264l.543-.863c.159-.277.235-.57.198-.765a.26.26 0 0 0-.054-.126.243.243 0 0 0-.155-.058c-.065-.003-.123.011-.186.015-.394.071-1.113.578-1.84 1.42a9.693 9.693 0 0 0-1.465 2.277 9.399 9.399 0 0 0-.577 1.627 8.608 8.608 0 0 0-.13 3.646l.01.06a8.423 8.423 0 0 0 .156.674c.055.21.186.623.186.623l.134.37a20.053 20.053 0 0 1 .347-.609 10.3 10.3 0 0 1 .545-.81c.116-.154.235-.302.357-.445a7.48 7.48 0 0 1 1.618-1.432c.88-.57 1.875-.933 2.995-1.097a.302.302 0 0 1 .028-.004c.395-.046.615-.207.628-.34l-.002-.003Z"/><path d="M4.89 24.875c.802.361 1.654.63 2.515.815 2.377.509 4.825.371 6.498-.265.546-.209 1.01-.47 1.362-.78a7.256 7.256 0 0 1-2.427-.805 6.917 6.917 0 0 1-2.092-1.753c-.817-1.022-1.361-2.297-1.544-3.741a8.887 8.887 0 0 1 .032-2.41c.284-1.873 1.137-3.464 2.085-4.915 1.867-2.856 4.107-5.171 3.115-8.039a5.467 5.467 0 0 0-.418-.913C13.531 1.216 12.738.685 11.97.374a5.43 5.43 0 0 0-.55-.188A4.909 4.909 0 0 0 9.751.009a4.641 4.641 0 0 0-2.368.837 2.975 2.975 0 0 0-.604.547A2.56 2.56 0 0 0 6.243 2.6c-.034.046-.414.126-1.062.468-.425.224-.83.49-1.216.778.317.005.627.031.933.12.42.121.799.329 1.164.563.233.148.47.288.696.447.202.142.405.281.618.408.68.453 1.276.675 1.787.747 1.714.24 2.5-1.19 2.5-1.19-.003.12-.014.235-.034.348-.481 2.839-3.888 3.06-6.964 4.853-1.563.911-3.01 2.085-3.865 3.852a7.971 7.971 0 0 0-.722 2.494c-.03.238-.052.483-.065.736-.078 1.545.22 2.86.784 3.966a7.343 7.343 0 0 0 1.79 2.243 9.61 9.61 0 0 0 2.303 1.44v.002Z"/></g><defs><clipPath id="a"><path fill="#fff" d="M0 0h196v26H0z"/></clipPath></defs></svg>